<?xml version="1.0" encoding="UTF-8" standalone="no"?>
<!-- Created with Inkscape (http://www.inkscape.org/) -->

<svg
   version="1.1"
   id="svg132"
   width="768"
   height="768"
   viewBox="0 0 768 768"
   sodipodi:docname="azrael.svg"
   inkscape:version="1.2.1 (9c6d41e410, 2022-07-14)"
   inkscape:export-filename="azrael.png"
   inkscape:export-xdpi="64"
   inkscape:export-ydpi="64"
   xmlns:inkscape="http://www.inkscape.org/namespaces/inkscape"
   xmlns:sodipodi="http://sodipodi.sourceforge.net/DTD/sodipodi-0.dtd"
   xmlns:xlink="http://www.w3.org/1999/xlink"
   xmlns="http://www.w3.org/2000/svg"
   xmlns:svg="http://www.w3.org/2000/svg">
  <defs
     id="defs136" />
  <sodipodi:namedview
     id="namedview134"
     pagecolor="#505050"
     bordercolor="#eeeeee"
     borderopacity="1"
     inkscape:showpageshadow="0"
     inkscape:pageopacity="0"
     inkscape:pagecheckerboard="0"
     inkscape:deskcolor="#505050"
     showgrid="false"
     inkscape:zoom="1.090123"
     inkscape:cx="330.23796"
     inkscape:cy="389.86426"
     inkscape:window-width="2560"
     inkscape:window-height="1387"
     inkscape:window-x="1912"
     inkscape:window-y="892"
     inkscape:window-maximized="1"
     inkscape:current-layer="g138" />
  <g
     inkscape:groupmode="layer"
     inkscape:label="Image"
     id="g138">
    <path
       id="path7815"
       style="fill:#c0c0c0;fill-opacity:1;stroke-width:1"
       d="m 275.44531,70.013672 c -4.49421,0.0583 -8.99821,-0.06332 -13.48437,0.24414 -1.21341,0.03779 -2.51416,0.788609 -2.64601,2.092333 -2.00732,10.480636 -3.83257,20.995212 -5.72581,31.497455 -11.35984,63.76477 -22.517,127.56864 -32.89042,191.50162 -6.64683,41.05741 -13.06089,82.15671 -18.60929,123.37848 -2.74198,20.71469 -5.36008,41.45707 -7.0302,62.29001 -0.7088,9.16577 -1.14707,18.37621 -0.6669,27.56519 0.0481,2.00925 0.53131,3.98309 1.41008,5.79015 2.44134,5.37826 6.41481,9.91247 10.92814,13.66123 7.52873,6.25445 16.13905,11.05509 24.92104,15.30461 6.28167,3.04387 12.75775,5.66093 19.26054,8.18845 2.0226,0.82941 4.13861,1.88466 5.21538,3.89665 2.75011,4.60496 3.95996,10.00691 3.88662,15.34319 0.0109,2.32596 -0.22603,4.6423 -0.44184,6.95548 -4.0477,0.0182 -8.08854,-0.29011 -12.09377,-0.86953 -5.39293,-0.75708 -10.73784,-1.74778 -16.02229,-2.86817 -3.97513,-0.83571 -7.91964,-1.78754 -11.91129,-2.70176 -2.63037,1.34543 -5.16593,2.89949 -7.36825,4.88299 -7.27074,6.36712 -12.41251,14.72736 -16.79984,23.23982 -4.92277,9.6438 -8.99029,19.72485 -12.21081,30.06079 -0.20582,0.66283 -0.37818,1.3614 -0.001,1.99507 0.80217,1.24251 2.15995,2.00385 3.27636,2.94292 7.48003,5.63418 15.26387,10.85821 23.28175,15.69496 5.41547,3.30761 10.92708,6.45781 16.47977,9.52619 7.02822,4.85504 13.87904,9.9628 20.78732,14.98639 28.36197,20.79342 56.58609,41.77427 84.87551,62.667 0.93137,0.63886 1.81036,1.4379 2.77367,1.97848 32.80196,0.008 65.60391,0.0157 98.40586,0.0215 28.58428,-21.08527 57.08946,-42.27864 85.7928,-63.20163 3.13485,-2.22401 6.15985,-4.61786 9.48041,-6.56515 10.28417,-6.55554 20.11994,-13.82126 29.32839,-21.82065 8.63869,-7.42881 16.72989,-15.46131 24.702,-23.59311 0.93849,-0.9483 1.8759,-1.89768 2.81554,-2.84485 -0.41547,-4.3348 -1.10171,-8.67519 -2.61827,-12.77572 -3.48995,-9.56689 -9.50304,-17.97868 -16.12866,-25.61951 -3.25492,-3.72863 -6.72738,-7.26042 -10.18549,-10.79787 -2.32401,-1.97851 -5.33004,-3.00291 -8.30506,-3.49214 -4.31533,-0.47592 -8.68576,-0.26223 -12.99003,0.22947 -5.0315,0.72844 -9.95382,2.06545 -14.83694,3.45437 -3.81815,1.08392 -7.55571,2.42182 -11.33399,3.63226 -0.35227,-5.97509 -0.28864,-12.22326 2.16461,-17.79544 0.8892,-1.86926 1.95405,-3.76797 3.60219,-5.0675 2.47437,-1.46761 5.25455,-2.31343 7.90207,-3.40893 11.5451,-4.54234 22.90316,-9.80366 33.13973,-16.87267 5.87153,-4.12175 11.44467,-8.91406 15.40234,-14.96093 1.95891,-3.02511 3.25554,-6.53282 3.30127,-10.16417 0.26686,-7.08512 -0.10342,-14.17667 -0.4735,-21.25141 -0.78737,-13.87611 -2.38985,-27.69019 -4.02575,-41.48706 -3.75671,-30.87286 -8.26019,-61.64938 -12.93572,-92.39466 -9.25961,-60.52599 -19.404,-120.91303 -29.92863,-181.23123 -5.58723,-32.0348 -11.35869,-64.03819 -17.13659,-96.039668 -0.29195,-1.636742 -0.58475,-3.273329 -0.8753,-4.910321 -3.23958,-0.355028 -6.50738,-0.16656 -9.76002,-0.249938 C 480.41533,69.968179 461.68806,70.01087 442.96094,70 c -0.83351,3.27079 -1.16442,6.639344 -1.72205,9.963095 -6.61364,43.502615 -13.17459,87.008275 -19.7467,130.517375 -24.8281,-0.0216 -49.65667,0.0609 -74.48438,-0.10156 -6.95345,-46.2674 -14.00292,-92.52056 -20.92774,-138.792172 -0.0227,-0.677451 -0.11808,-1.283773 -0.94311,-1.175078 -2.1773,-0.371145 -4.40535,-0.199895 -6.60491,-0.293784 -14.36167,-0.150804 -28.72453,-0.113574 -43.08674,-0.104204 z" />
    <path
       style="fill:#c0c0c0;fill-opacity:1;stroke-width:1"
       d="m 282.4,698.20819 c -32.71873,-24.19798 -53.83449,-39.6079 -55.52,-40.51753 -9.20662,-4.96861 -21.254,-12.24592 -28.64,-17.30016 -6.67384,-4.56695 -13.28,-9.46381 -13.28,-9.84391 0,-0.2096 0.73013,-2.52435 1.62252,-5.14384 5.024,-14.74742 11.94081,-29.14371 18.26446,-38.01472 4.27848,-6.00198 9.23705,-10.8552 13.41313,-13.12809 l 1.57425,-0.8568 5.54234,1.28428 c 12.74491,2.95328 24.67204,4.87277 30.9433,4.97981 l 4.32,0.0737 0.20214,0.92954 c 0.11118,0.51123 0.23019,0.7855 0.26448,0.6095 0.0343,-0.176 0.12125,-0.608 0.19323,-0.96 0.072,-0.352 0.30496,-2.67978 0.51772,-5.17286 0.63639,-7.45706 -0.22638,-13.19485 -2.78285,-18.50714 -2.14549,-4.45827 -3.35303,-5.45482 -9.43472,-7.78627 -23.08711,-8.85053 -40.20597,-19.08835 -47.81039,-28.59271 -2.39138,-2.98886 -4.44271,-6.71164 -5.0993,-9.25433 -0.56409,-2.18445 -0.66915,-12.79687 -0.21032,-21.24669 2.3207,-42.73885 17.11229,-144.09142 42.56832,-291.68 7.1789,-41.62174 21.76699,-123.856883 22.26659,-125.52 0.15873,-0.528378 1.93795,-0.56 31.50666,-0.56 17.319,0 31.33844,0.123322 31.33844,0.275667 0,0.151616 4.752,31.696673 10.56,70.100123 5.808,38.40345 10.56,69.8874 10.56,69.96433 0,0.0769 17.53504,0.13988 38.96678,0.13988 h 38.96679 l 10.49952,-69.52 c 5.77472,-38.236 10.57529,-69.844 10.6679,-70.24 L 444.54938,72 h 31.32531 c 17.22893,0 31.32531,0.06579 31.32531,0.146192 0,0.08041 1.79418,10.052406 3.98701,22.16 31.18621,172.190378 54.15961,318.164148 59.66825,379.133808 1.29693,14.35443 1.892,31.18605 1.27277,36 -0.53805,4.18259 -3.08569,8.5409 -7.88166,13.48339 -8.55408,8.81539 -23.42023,17.44157 -43.28637,25.11715 -6.99725,2.70352 -7.80144,3.13904 -9.32726,5.05146 -3.69255,4.6281 -5.33175,11.33683 -4.98359,20.39632 0.10173,2.64685 0.25392,4.88144 0.33821,4.9657 0.0843,0.0843 3.11139,-0.85863 6.72694,-2.0954 6.63988,-2.27126 14.59831,-4.40844 19.8857,-5.34019 4.45827,-0.78563 11.96192,-0.9536 14.87245,-0.33286 2.90438,0.61939 5.49993,1.84403 6.76464,3.19168 0.51757,0.55152 2.41395,2.51949 4.21421,4.37331 8.45648,8.708 14.68812,17.0271 18.56924,24.78944 2.7986,5.59731 4.21988,10.21904 4.8537,15.78342 l 0.19402,1.7034 -7.13415,7.21401 c -11.77059,11.9024 -22.2655,21.20496 -33.05411,29.29875 -5.38966,4.04343 -13.71734,9.71255 -17.76,12.09028 -1.32,0.77635 -22.72509,16.42774 -47.56688,34.78086 L 432.38627,737.28 383.79312,737.2688 335.2,737.2576 282.4,698.20803 Z"
       id="path2991"
       sodipodi:nodetypes="csssssscsscsssssssssssssssscsscsscsssssssssssssscssssccccc" />
    <path
       style="fill:#000000;fill-opacity:0.21831;stroke:none;stroke-width:1.88976;stroke-linejoin:bevel;stroke-opacity:1;paint-order:markers fill stroke"
       d="m 504.75958,580.15245 18.80521,-5.3893 11.75327,-2.75198 12.26925,-0.172 6.36397,2.52265 c 0,0 1.43332,2.17865 1.20399,2.23598 -0.22933,0.0573 -12.09726,9.28795 -12.09726,9.28795 l -16.05324,11.86792 -14.79191,8.54262 -8.08395,-14.96391 z"
       id="path3805" />
    <path
       style="fill:#000000;fill-opacity:0.21830986;stroke:none;stroke-width:1.88976;stroke-linejoin:bevel;stroke-opacity:1;paint-order:markers fill stroke"
       d="m 222.19397,575.65181 22.30253,3.66931 15.65191,2.09265 2.72331,1.08933 -4.24264,15.13591 -1.94932,3.66931 -9.7466,-5.2173 -17.94523,-13.35859 z"
       id="path3047" />
    <path
       style="fill:#1c1c1c;stroke-width:1;fill-opacity:1"
       d="m 282.4,698.20819 c -32.71873,-24.19798 -53.83449,-39.6079 -55.52,-40.51753 -9.20662,-4.96861 -21.254,-12.24592 -28.64,-17.30016 -6.67384,-4.56695 -13.28,-9.46381 -13.28,-9.84391 0,-0.2096 0.73013,-2.52435 1.62252,-5.14384 5.024,-14.74742 11.94081,-29.14371 18.26446,-38.01472 4.27848,-6.00198 9.23705,-10.8552 13.41313,-13.12809 l 1.57425,-0.8568 5.54234,1.28428 c 12.74491,2.95328 24.67204,4.87277 30.9433,4.97981 l 4.32,0.0737 0.20214,0.92954 c 0.11118,0.51123 0.23019,0.7855 0.26448,0.6095 0.0343,-0.176 0.12125,-0.608 0.19323,-0.96 0.072,-0.352 0.30496,-2.67978 0.51772,-5.17286 0.63639,-7.45706 -0.22638,-13.19485 -2.78285,-18.50714 -2.14549,-4.45827 -3.35303,-5.45482 -9.43472,-7.78627 -23.08711,-8.85053 -40.20597,-19.08835 -47.81039,-28.59271 -2.39138,-2.98886 -4.44271,-6.71164 -5.0993,-9.25433 -0.56409,-2.18445 -0.66915,-12.79687 -0.21032,-21.24669 2.3207,-42.73885 17.11229,-144.09142 42.56832,-291.68 7.1789,-41.62174 21.76699,-123.856883 22.26659,-125.52 0.15873,-0.528378 1.93795,-0.56 31.50666,-0.56 17.319,0 31.33844,0.123322 31.33844,0.275667 0,0.151616 4.752,31.696673 10.56,70.100123 5.808,38.40345 10.56,69.8874 10.56,69.96433 0,0.0769 17.53504,0.13988 38.96678,0.13988 h 38.96679 l 10.49952,-69.52 c 5.77472,-38.236 10.57529,-69.844 10.6679,-70.24 L 444.54938,72 h 31.32531 c 17.22893,0 31.32531,0.06579 31.32531,0.146192 0,0.08041 1.79418,10.052406 3.98701,22.16 31.18621,172.190378 54.15961,318.164148 59.66825,379.133808 1.29693,14.35443 1.892,31.18605 1.27277,36 -0.53805,4.18259 -3.08569,8.5409 -7.88166,13.48339 -8.55408,8.81539 -23.42023,17.44157 -43.28637,25.11715 -6.99725,2.70352 -7.80144,3.13904 -9.32726,5.05146 -3.69255,4.6281 -5.33175,11.33683 -4.98359,20.39632 0.10173,2.64685 0.25392,4.88144 0.33821,4.9657 0.0843,0.0843 3.11139,-0.85863 6.72694,-2.0954 6.63988,-2.27126 14.59831,-4.40844 19.8857,-5.34019 4.45827,-0.78563 11.96192,-0.9536 14.87245,-0.33286 2.90438,0.61939 5.49993,1.84403 6.76464,3.19168 0.51757,0.55152 2.41395,2.51949 4.21421,4.37331 8.45648,8.708 14.68812,17.0271 18.56924,24.78944 2.7986,5.59731 4.21988,10.21904 4.8537,15.78342 l 0.19402,1.7034 -7.13415,7.21401 c -11.77059,11.9024 -22.2655,21.20496 -33.05411,29.29875 -5.38966,4.04343 -13.71734,9.71255 -17.76,12.09028 -1.32,0.77635 -22.72509,16.42774 -47.56688,34.78086 L 432.38627,737.28 383.79312,737.2688 335.2,737.2576 282.4,698.20803 Z m 154.56,-6.01094 c 21.92992,-1.59728 36.03709,-4.0473 51.12653,-8.8793 24.60646,-7.87952 49.07225,-22.85817 72.87347,-44.61523 5.30666,-4.85091 15.07904,-14.44237 17.61101,-17.28499 l 1.87254,-2.10227 -0.32272,-2.37773 c -1.31289,-9.6728 -9.29859,-23.14218 -20.69328,-34.90311 l -3.94448,-4.07129 -3.90153,3.21427 c -37.22404,30.66685 -82.37997,50.13827 -130.46154,56.25549 -11.91318,1.51568 -16.14352,1.74678 -32.16,1.75705 -15.64579,0.01 -18.4391,-0.12416 -30.4,-1.46054 -48.86286,-5.45933 -96.60132,-26.0511 -134.83223,-58.15923 l -3.95224,-3.3193 -2.2251,1.52035 c -4.26993,2.91751 -9.06922,8.41076 -13.54943,15.50858 -2.98547,4.72976 -8.58483,16.11002 -11.26621,22.89766 -2.50977,6.35328 -5.05541,13.53472 -4.86049,13.71181 0.77718,0.70611 10.95436,7.81213 15.1657,10.58915 47.49906,31.32173 102.10517,49.13463 159.36,51.98442 7.68742,0.38262 68.6408,0.16534 74.56,-0.26579 z m 82.09565,-91.11472 c 6.94979,-4.1441 14.93977,-9.53098 21.98886,-14.82496 7.90208,-5.93459 12.63287,-9.86365 12.47088,-10.35741 -0.21193,-0.64598 -2.18861,-1.81027 -4.05529,-2.38864 -1.40301,-0.43469 -2.96634,-0.55005 -7.3801,-0.54451 -4.83114,0.006 -6.21014,0.12941 -10.044,0.89833 -5.3825,1.07956 -12.50634,3.105 -18.756,5.33271 -2.552,0.90966 -4.90778,1.73517 -5.23507,1.83443 -0.51738,0.15696 -0.56733,0.39366 -0.38272,1.81402 0.67331,5.18025 5.48761,20.9935 6.39142,20.9935 0.20775,0 2.45866,-1.24086 5.00202,-2.75747 z m -261.523,-4.94807 c 0.85851,-2.70185 2.73973,-9.97945 3.43691,-13.29584 0.14022,-0.66697 0.0571,-0.6814 -3.93316,-0.68192 -5.90204,0 -13.56116,-1.07171 -25.81571,-3.60979 -3.33263,-0.69021 -6.10607,-1.20819 -6.16321,-1.15104 -0.14524,0.14522 7.95389,6.60461 12.38252,9.87555 7.40691,5.47066 18.09482,12.51031 18.69168,12.31136 0.1878,-0.0626 0.81823,-1.61433 1.40097,-3.44832 z m 165.68857,-36.47078 c 2.24489,-0.3976 5.90086,-1.54502 5.89388,-1.84976 -0.003,-0.11766 -0.12992,-0.41126 -0.28268,-0.65242 -0.23034,-0.36358 -0.63012,-0.32128 -2.33988,0.24772 -4.36,1.45091 -9.94089,1.46361 -15.37056,0.035 -15.85315,-4.17113 -35.7798,-21.38918 -54.63001,-47.20422 -4.61178,-6.31571 -11.96675,-17.43187 -11.70621,-17.69245 0.12013,-0.12013 1.49514,-0.66221 3.05555,-1.20461 l 2.83715,-0.98617 2.18077,3.20838 c 8.43162,12.40467 19.39603,25.37437 27.74183,32.81552 17.6496,15.73651 32.29635,20.49648 43.67667,14.19427 2.57046,-1.42348 6.29907,-4.94611 8.07696,-7.63078 0.75181,-1.1353 1.56486,-2.06416 1.80681,-2.06416 0.56324,0 2.72519,-4.6639 4.09312,-8.82992 4.68708,-14.27453 5.35716,-35.76477 1.87991,-60.29008 -1.47575,-10.40858 -4.37626,-24.99603 -5.11751,-25.73725 -0.21942,-0.21942 -1.19708,-3.4823 -2.17257,-7.25085 -1.55399,-6.00345 -4.89699,-17.72441 -5.48173,-19.21952 -0.1135,-0.2902 -0.0618,-0.61699 0.11485,-0.72617 0.68125,-0.42103 -7.06253,-22.06714 -12.60195,-35.22621 -5.63668,-13.39005 -14.8522,-32.54723 -15.58205,-32.3919 -0.18583,0.0396 -1.62435,-2.2321 -3.19674,-5.0481 -3.30707,-5.92269 -8.41693,-14.5016 -10.28915,-17.27446 -0.71098,-1.05295 -1.27197,-2.18902 -1.24669,-2.52461 0.0554,-0.73587 -4.45488,-7.47328 -9.55565,-14.27406 -10.71254,-14.28287 -22.78067,-26.48249 -32.74019,-33.09685 -5.34979,-3.55292 -13.13225,-7.26554 -13.82064,-6.59312 -0.16147,0.15772 -1.0456,0.0554 -2.04451,-0.23667 -1.24992,-0.36544 -3.15114,-0.52119 -6.56,-0.5374 -4.43947,-0.0211 -4.97629,0.0416 -7.14707,0.83452 -3.26872,1.19401 -5.55846,2.63643 -8.03659,5.06265 -6.99444,6.84792 -11.10553,18.55722 -12.52712,35.68 -0.46187,5.5631 -0.19312,21.47754 0.47284,28 1.25461,12.28778 3.67388,26.72646 6.28659,37.51955 l 0.63918,2.64045 -1.20392,1.0559 c -2.56791,2.25223 -3.94469,3.34944 -4.05211,3.22932 -0.0616,-0.0689 -0.98705,-3.72522 -2.05664,-8.12522 -4.02974,-16.57738 -6.62792,-31.84384 -8.11459,-47.68 -0.65222,-6.94755 -0.55345,-28.87378 0.15491,-34.38865 2.03224,-15.82181 6.09492,-26.52358 12.68256,-33.408 2.58053,-2.69677 5.22315,-4.53324 8.17689,-5.68246 1.6403,-0.6382 2.24507,-1.03073 2.24507,-1.45719 0,-0.83353 -1.11965,-0.63738 -3.91812,0.68641 -3.00699,1.42242 -4.67986,2.59089 -7.04926,4.92379 -15.60305,15.36267 -18.73593,54.56004 -8.38345,104.89045 1.27474,6.19738 4.79615,20.67927 5.11195,21.02301 0.13509,0.14707 -1.21389,1.58611 -2.99775,3.19792 -19.52788,17.64432 -33.85412,35.16586 -41.64612,50.93472 -4.65923,9.42902 -6.55725,16.00541 -6.55725,22.71997 v 3.41942 l 8.11178,14.29031 c 9.63929,16.98124 8.94964,15.81059 8.70117,14.7703 -0.10509,-0.44 -0.43758,-1.664 -0.73886,-2.72 -0.76183,-2.67021 -0.73442,-9.58454 0.0526,-13.28 3.86113,-18.12886 20.49615,-41.51053 46.34459,-65.14045 24.54134,-22.43501 56.14761,-43.92496 88.13277,-59.92381 l 5.80409,-2.90316 1.04803,1.96633 c 0.817,1.53283 0.94839,1.99891 0.59591,2.11415 -1.11031,0.36294 -16.96352,8.56275 -21.73213,11.24057 -14.85706,8.34301 -30.55226,18.51731 -42.24,27.38186 -9.84915,7.47008 -27.54821,22.784 -34.76041,30.07609 -8.83832,8.93626 -17.06042,18.9842 -22.26715,27.21188 -2.75038,4.34617 -6.60846,12.15971 -7.88873,15.97654 -1.2487,3.72272 -2.219,8.43427 -1.79883,8.73469 0.17332,0.12393 0.32533,1.73731 0.33781,3.58531 0.0385,5.69466 1.90583,10.12589 5.80479,13.77472 3.44783,3.22662 8.3099,5.39296 14.82503,6.60547 4.22748,0.78675 16.06706,0.77443 21.90749,-0.0227 32.48464,-4.43427 73.80294,-22.05257 113.12,-48.23478 5.35264,-3.56445 8.55664,-5.51347 8.68784,-5.28483 0.20624,0.35942 1.55216,6.32556 1.55216,6.88035 0,0.43363 -14.5153,9.90989 -22.72,14.8327 -9.80768,5.88458 -14.6368,8.55584 -25.04378,13.85306 -4.88611,2.48704 -8.79532,4.61033 -8.68723,4.71846 0.68195,0.68195 -27.44435,12.57431 -28.86224,12.20352 -0.34573,-0.0904 -2.06368,0.35671 -3.81766,0.9936 -8.44819,3.06755 -23.00023,7.00247 -31.9202,8.6313 -9.25712,1.69037 -11.71176,1.9112 -21.34889,1.92048 -9.87195,0.01 -13.10152,-0.37341 -18.41683,-2.18346 -6.32903,-2.15526 -11.65764,-6.09478 -13.77059,-10.1808 -0.50363,-0.97392 -0.68453,-1.05421 -1.38119,-0.61315 -0.36947,0.23392 -0.30234,0.53363 0.38049,1.69878 3.64389,6.21786 11.65757,10.62516 22.3834,12.31024 5.23438,0.82234 16.85564,0.7378 23.60472,-0.17171 10.20493,-1.37526 20.58829,-3.70413 31.6288,-7.09401 3.02765,-0.9296 5.5529,-1.63325 5.61171,-1.56365 0.0588,0.0696 1.7632,2.64653 3.78755,5.72653 15.88586,24.16976 32.40141,42.248 47.93194,52.46716 9.93216,6.53543 20.6464,9.67943 28.34122,8.31652 z m 7.03894,-30.0839 c -13.89446,-4.71104 -29.82576,-20.17306 -46.37859,-45.01239 -2.22285,-3.33565 -4.04157,-6.15923 -4.04157,-6.27459 0,-0.11536 2.916,-1.66717 6.48,-3.44845 14.6991,-7.34656 29.89686,-16.19526 43.99299,-25.61437 2.85616,-1.90848 5.31402,-3.46998 5.46189,-3.46998 0.49434,0 2.87069,14.39565 3.88256,23.52 2.79232,25.17942 0.97264,45.67552 -5.19149,58.47472 L 433.12,530.54944 Z M 279.68,468.15482 c -3.85113,-0.36135 -8.90714,-1.2504 -9.12614,-1.60474 -0.0921,-0.14909 0.0619,-1.39581 0.34218,-2.77056 2.07776,-10.1895 9.11225,-22.73363 20.19908,-36.01965 4.75122,-5.69366 13.25002,-14.75145 13.53343,-14.42355 0.12534,0.14502 0.55403,1.19968 0.95264,2.34368 3.10625,8.91488 11.33593,28.24653 17.01657,39.97216 1.74051,3.5927 3.10403,6.5927 3.03002,6.66672 -0.33626,0.33626 -13.00799,3.2944 -17.31368,4.04179 -9.81663,1.70394 -21.67604,2.44701 -28.6341,1.79415 z m 44.23226,-13.04375 c -3.53085,-7.26723 -7.19801,-15.41766 -10.40114,-23.11693 -3.3059,-7.9463 -7.59328,-19.13817 -7.566,-19.75043 0.0301,-0.6752 4.1385,-4.38384 4.45173,-4.01853 0.12018,0.14013 0.91384,2.19882 1.76369,4.57482 4.19506,11.72848 10.18925,25.77459 16.51085,38.6897 2.27472,4.64732 4.08563,8.49996 4.02419,8.5614 -0.19273,0.19271 -4.7888,1.7089 -5.18028,1.7089 -0.20493,0 -1.82628,-2.99203 -3.60304,-6.64893 z M 359.11965,440.72 c -6.16407,-12.63853 -13.16634,-29.95626 -19.62474,-48.53494 l -2.32729,-6.69495 1.09619,-0.92016 c 3.95702,-3.32163 20.35766,-14.22477 30.8504,-20.50934 C 379.51475,357.83126 399.48774,347.2 400.7903,347.2 c 0.44032,0 5.52119,10.31242 9.54055,19.36403 5.05491,11.38365 9.37785,22.48595 13.70438,35.19597 l 2.50535,7.36 -1.01325,0.87587 c -1.62183,1.40189 -12.76192,9.44202 -18.16733,13.11184 -5.59453,3.79821 -14.41398,9.17655 -22.72,13.8552 C 378.51434,440.41341 363.67997,448 363.05872,448 c -0.21366,0 -1.98624,-3.276 -3.93907,-7.28 z m 30.1831,-27.40451 c 7.89309,-1.95418 15.28832,-5.88282 22.53725,-11.97261 1.672,-1.40464 3.44538,-2.98307 3.94083,-3.50765 l 0.90083,-0.95376 -1.86083,-2.01488 c -10.18614,-11.02957 -23.01926,-16.66281 -34.96499,-15.34832 -8.45478,0.93034 -16.50643,4.2704 -24.32973,10.09271 -3.49245,2.59913 -8.00611,6.73155 -8.00611,7.32979 0,0.4247 5.37014,5.73312 7.84,7.74989 5.77805,4.71811 12.8417,8.05216 19.59318,9.248 3.74548,0.66342 10.3033,0.37862 14.34957,-0.62317 z m -9.97261,-3.72531 c -4.68294,-0.92842 -8.60979,-4.65594 -9.89091,-9.38887 -1.61753,-5.97565 1.23402,-12.24339 6.8224,-14.99565 2.00864,-0.98924 2.31351,-1.04566 5.65079,-1.04566 3.20867,0 3.70729,0.083 5.51529,0.91818 2.46327,1.13785 5.21315,3.92473 6.42541,6.51184 0.77002,1.64323 0.86688,2.22547 0.86688,5.20998 0,3.11482 -0.0746,3.51741 -1.02179,5.51706 -2.59229,5.47232 -8.46269,8.44393 -14.36807,7.27312 z m 5.7922,-5.5426 c 1.74553,-0.81286 3.50483,-2.59574 4.19769,-4.25404 1.19587,-2.86215 0.12055,-7.00602 -2.34902,-9.05216 -5.11735,-4.23991 -12.91168,-0.53248 -12.88397,6.12835 0.0237,5.732 5.91354,9.56294 11.0353,7.17785 z M 327.07082,348.24 c -0.58064,-2.22006 -2.22388,-11.07699 -3.04269,-16.4 -2.00423,-13.02908 -2.56477,-21.13471 -2.33287,-33.73441 0.21642,-11.75795 0.89648,-17.37052 3.11428,-25.70261 0.88892,-3.3396 1.37798,-4.76718 2.68118,-7.82662 l 0.50419,-1.18364 1.79411,0.61727 c 4.82544,1.66019 11.73853,5.79473 17.92922,10.72301 4.18464,3.33129 14.48838,13.66053 18.82048,18.867 4.36317,5.24384 10.04432,12.80965 13.86659,18.46673 1.62509,2.40514 2.95469,4.44753 2.95469,4.53864 0,0.0911 -3.996,2.18575 -8.88,4.65476 -18.14992,9.17526 -29.33066,15.77053 -41.90429,24.7183 -2.67536,1.90387 -4.93779,3.46157 -5.02765,3.46157 -0.0899,0 -0.30464,-0.54 -0.47724,-1.2 z m 119.4519,201.85203 c 11.85539,-4.86483 15.75638,-6.60067 16.36035,-7.28 0.43619,-0.49062 1.63933,-2.11603 2.6737,-3.61203 6.14461,-8.88707 9.91069,-19.88019 11.78493,-34.4 0.8126,-6.29523 0.80912,-25.09792 -0.006,-32.96 -1.57549,-15.19363 -5.2306,-34.95491 -8.97978,-48.5489 -0.42304,-1.53388 -0.65312,-2.75788 -0.51126,-2.72 0.48396,0.12928 11.49593,-10.07491 17.67251,-16.37616 22.02925,-22.47392 34.24083,-42.44054 36.10864,-59.03968 0.62982,-5.59718 -0.53271,-11.58393 -3.01344,-15.51836 -0.94784,-1.5033 -1.08979,-1.60775 -1.63879,-1.20631 -0.58416,0.42714 -0.58124,0.46736 0.10349,1.42896 4.32074,6.06794 4.27987,17.19514 -0.10291,28.01645 -1.62864,4.02118 -5.22496,10.97072 -7.7697,15.01411 -8.40252,13.35091 -22.47657,29.31591 -38.04678,43.15863 l -3.83414,3.40876 -1.05703,-3.93372 -1.05702,-3.93373 7.11603,-6.99501 c 15.27088,-15.01117 25.05731,-27.57475 30.87382,-39.63504 3.46132,-7.17683 5.03348,-12.95034 5.05402,-18.56 0.0243,-6.62198 -2.06646,-11.35693 -6.72925,-15.24019 -1.53309,-1.2768 -6.80294,-4.11981 -7.63654,-4.11981 -0.24608,0 -0.41146,-0.16758 -0.36746,-0.37238 0.044,-0.20484 -0.74749,-0.63085 -1.75888,-0.94672 -7.05385,-2.20301 -20.20256,-2.10935 -33.20112,0.23651 -6.82221,1.23123 -19.83357,4.54944 -23.78531,6.06589 -0.38698,0.14851 -0.76304,-0.31428 -1.54662,-1.90327 -0.56941,-1.15472 -0.93802,-2.19673 -0.81914,-2.31561 0.46474,-0.46474 12.60934,-4.10653 19.59107,-5.87476 11.8225,-2.99424 21.13344,-4.42233 30.72,-4.71178 14.70787,-0.44407 24.23575,2.03187 31.5025,8.18634 1.89539,1.60528 3.03811,3.39114 -13.38864,-20.92422 l -3.24275,-4.8 -3.10804,-1.50489 c -5.51894,-2.67224 -11.97318,-4.38283 -19.21315,-5.09215 -4.72915,-0.46333 -15.49174,-0.19829 -20.86992,0.51393 -9.9711,1.32046 -23.40736,4.51874 -33.58198,7.99364 -1.31008,0.44743 -2.47408,0.7046 -2.58666,0.57149 -0.11257,-0.13311 -1.47904,-2.33002 -3.03657,-4.88202 -20.21709,-33.12519 -41.45386,-54.59564 -60.7314,-61.39961 -4.07155,-1.43705 -6.67804,-1.99021 -10.31699,-2.18952 l -3.21363,-0.17601 -16.06637,5.34623 c -8.83653,2.94043 -16.06643,5.37159 -16.06647,5.40257 -5e-5,0.031 1.7716,0.006 3.93699,-0.0548 6.46032,-0.18242 11.59844,1.11151 18.62308,4.68984 7.99187,4.07103 15.21091,9.64676 24.50464,18.92657 8.53786,8.52504 14.74346,15.88764 22.5336,26.73476 26.83975,37.37206 50.02279,89.03104 62.56304,139.40982 4.30925,17.31184 6.99955,32.94416 8.52759,49.55018 0.68089,7.39978 0.78329,25.44352 0.17795,31.36 -2.09325,20.45894 -7.76829,33.78307 -17.15987,40.28867 -1.04119,0.72122 -1.8162,1.31133 -1.72228,1.31133 0.0939,0 7.17604,-2.87459 15.73805,-6.38797 z M 454.39837,378.96 c -2.39795,-6.65891 -6.86285,-17.84077 -9.67898,-24.24 -2.33203,-5.29917 -8.03456,-17.6849 -9.23971,-20.06845 l -0.6009,-1.18845 3.4929,-1.10604 c 4.70563,-1.49005 13.97418,-3.82045 19.06832,-4.79434 7.91674,-1.51354 12.0583,-1.92246 19.68,-1.94317 7.12515,-0.0195 9.00006,0.15667 13.84,1.29939 2.51091,0.59287 2.4823,0.5121 1.51891,4.28535 -2.88937,11.31657 -10.05472,23.63958 -21.58128,37.11571 -3.71213,4.33997 -14.15328,15.36 -14.55318,15.36 -0.13549,0 -1.01123,-2.124 -1.94608,-4.72 z"
       id="path2474"
       sodipodi:nodetypes="csssssscsscsssssssssssssssscsscsscsssssssssssssscsssscccccsssscsscssssscsssssssssssssssssssscsssssscsssssscsssssssssssssssssssssssssscsssssssssssscsscssscsscssssssssssscssssscssscsssssssssssssssssssscssscsssssssssssssssssscssssscsssssssscsssssssssssssscsssscsssssscssssssssscssscsssssssssscccssssssssssssssscssssscsscsscssssssssccssscsscsssss" />
    <text
       xml:space="preserve"
       style="font-weight:bold;font-size:74.6667px;font-family:AmarilloUSAF;-inkscape-font-specification:'AmarilloUSAF Bold';text-align:center;letter-spacing:5px;text-anchor:middle;fill:#1c1c1c;fill-opacity:1;stroke:none;stroke-width:1.88976;stroke-linejoin:bevel;paint-order:markers fill stroke"
       id="text300"><textPath
         xlink:href="#path1218"
         startOffset="50%"
         id="textPath1224"><tspan
           id="tspan298"
           style="font-size:74.6667px;fill:#1c1c1c;fill-opacity:1">AZRAEL</tspan></textPath></text>
    <path
       id="path1218"
       style="fill:none;stroke:none;stroke-width:1.88976;stroke-linejoin:bevel;paint-order:markers fill stroke"
       d="M 388.86486,200.54144 A 283.67482,244.15629 0 0 0 105.19004,444.69772 283.67482,244.15629 0 0 0 388.86486,688.85402 283.67482,244.15629 0 0 0 672.53966,444.69772 283.67482,244.15629 0 0 0 388.86486,200.54144 Z" />
    <text
       xml:space="preserve"
       style="font-weight:bold;font-size:32px;font-family:AmarilloUSAF;-inkscape-font-specification:'AmarilloUSAF Bold';text-align:center;text-anchor:middle;fill:#c0c0c0;fill-opacity:1;stroke:none;stroke-width:1.88976;stroke-linejoin:bevel;stroke-opacity:1;paint-order:markers fill stroke"
       x="384"
       y="725.14752"
       id="text2057"><tspan
         sodipodi:role="line"
         id="tspan2055"
         x="384"
         y="725.14752">9th Stb</tspan></text>
  </g>
</svg>
