<?xml version="1.0" encoding="UTF-8" standalone="no"?>
<!-- Created with Inkscape (http://www.inkscape.org/) -->

<svg
   version="1.1"
   id="svg132"
   width="1024"
   height="1024"
   viewBox="0 0 1024 1024"
   sodipodi:docname="console screen tpl.svg"
   inkscape:version="1.2.1 (9c6d41e410, 2022-07-14)"
   xml:space="preserve"
   xmlns:inkscape="http://www.inkscape.org/namespaces/inkscape"
   xmlns:sodipodi="http://sodipodi.sourceforge.net/DTD/sodipodi-0.dtd"
   xmlns="http://www.w3.org/2000/svg"
   xmlns:svg="http://www.w3.org/2000/svg"><defs
     id="defs136" /><sodipodi:namedview
     id="namedview134"
     pagecolor="#505050"
     bordercolor="#eeeeee"
     borderopacity="1"
     inkscape:showpageshadow="0"
     inkscape:pageopacity="0"
     inkscape:pagecheckerboard="0"
     inkscape:deskcolor="#505050"
     showgrid="false"
     inkscape:zoom="0.81759222"
     inkscape:cx="248.90159"
     inkscape:cy="448.87903"
     inkscape:window-width="2560"
     inkscape:window-height="1387"
     inkscape:window-x="1912"
     inkscape:window-y="892"
     inkscape:window-maximized="1"
     inkscape:current-layer="layer1" /><g
     inkscape:groupmode="layer"
     inkscape:label="Background"
     id="g138"
     sodipodi:insensitive="true"><rect
       style="fill:#000000;stroke-width:1.88978;stroke-linejoin:bevel;paint-order:markers fill stroke"
       id="rect298"
       width="615.67517"
       height="996.06696"
       x="8.1795073"
       y="13.530586" /><path
       id="path354"
       style="fill:#000000;stroke-width:1.88976;stroke-linejoin:bevel;paint-order:markers fill stroke"
       d="M 638.00195,7.3652344 V 374.72852 h 40.20899 l 44.18554,-70.63477 v -2 V 80 78 L 678.21094,7.3652344 Z"
       sodipodi:nodetypes="ccccccccc" /><path
       id="path509"
       style="fill:#000000;stroke-width:1.88976;stroke-linejoin:bevel;paint-order:markers fill stroke"
       d="M 738.75391,54.708984 V 321.3457 l -62.10547,82.8711 v 259.92382 l 62.10547,82.86915 V 1013.6465 L 1015.4824,969.92188 V 685.21875 383.13672 98.435547 Z"
       sodipodi:nodetypes="ccccccccccc" /><text
       xml:space="preserve"
       style="font-size:16px;font-family:'Atkinson Hyperlegible';-inkscape-font-specification:'Atkinson Hyperlegible';fill:#000000;stroke-width:1.88976;stroke-linejoin:bevel;paint-order:markers fill stroke"
       x="-1003.7606"
       y="645.23969"
       id="text569"
       transform="rotate(-90)"><tspan
         sodipodi:role="line"
         id="tspan567"
         x="-1003.7606"
         y="645.23969">MAIN SCREEN</tspan></text><text
       xml:space="preserve"
       style="font-size:16px;font-family:'Atkinson Hyperlegible';-inkscape-font-specification:'Atkinson Hyperlegible';fill:#000000;stroke-width:1.88976;stroke-linejoin:bevel;paint-order:markers fill stroke"
       x="930.17358"
       y="-722.20483"
       id="text573"
       transform="rotate(90)"><tspan
         sodipodi:role="line"
         id="tspan571"
         x="930.17358"
         y="-722.20483">KEYBOARD</tspan></text><text
       xml:space="preserve"
       style="font-size:16px;font-family:'Atkinson Hyperlegible';-inkscape-font-specification:'Atkinson Hyperlegible';fill:#000000;stroke-width:1.88976;stroke-linejoin:bevel;paint-order:markers fill stroke"
       x="380.01077"
       y="-647.35632"
       id="text577"
       transform="rotate(90)"><tspan
         sodipodi:role="line"
         id="tspan575"
         x="380.01077"
         y="-647.35632">AUX SCREEN</tspan></text><g
       id="g662"
       transform="matrix(0,-0.72764061,0.72764061,0,14.191765,741.97679)"
       style="fill:#ffffff;fill-opacity:0.105085;stroke-width:1.3743"><path
         d="m 455.9,178.4 c 21.4,-21.9 53.9,-54.4 72.2,-72.7 1.5,-1.5 2.4,-3.6 2.4,-5.8 l 0.3,-29.4 c 0,-2.7 -2.2,-5 -5,-5 -1.3,0 -2.6,0.5 -3.5,1.5 L 410.5,180.6 c -28.3,28.6 -50,72.3 -51.8,109.9 -1.8,37.6 3.2,85.7 15.2,82.9 14.1,-3.4 32.3,-26 44.9,-8.4 5.3,7.5 4.2,16.1 -5.3,23 -7.4,5.4 -23,9.8 -31.1,12.1 l -14.2,2.5 c -7.1,0 -13.3,-4 -22.2,-13.5 -8.9,-9.5 -9.4,-19.4 -9.4,-32 0.1,-12.5 -2.2,-17.5 -2.2,-17.5 10.6,0 12.4,-8.8 12.4,-8.8 h -46.6 c -8.7,0 -16.9,6.3 -16.9,14.6 v 11.3 l 7.1,0.3 c 5.2,0.2 7.6,5.1 6.5,10.1 -2.1,10.4 -7.5,19.8 -15.5,26.7 -6.2,5.6 -13.3,11 -30,6.2 -8,-2.3 -23.7,-6.8 -31.1,-12.1 -9.5,-6.9 -10.6,-15.5 -5.3,-23 12.6,-17.6 30.8,5 44.9,8.4 12.1,2.9 17,-45.3 15.3,-82.9 -1.8,-37.6 -23.5,-81.3 -51.8,-109.8 L 111.6,67 c -1.9,-1.9 -5.1,-1.9 -7,0 -0.9,0.9 -1.5,2.2 -1.5,3.5 l 0.2,29.4 c 0,2.2 0.9,4.3 2.4,5.8 18.3,18.3 50.7,50.8 72.2,72.7 31.3,32 60,54 67.2,106.2 7.2,52.2 -11.2,52.8 -11.2,52.8 0,0 6.9,-19.1 4.1,-38.8 -2.8,-19.7 -10.1,-55.1 -36.7,-81.5 -20.2,-20 -68.3,-68.5 -91.8,-92.2 -1.4,-1.4 -3.6,-1.3 -5,0.1 -0.6,0.7 -1,1.5 -1,2.4 l 0.2,27.6 c 0,4.9 2,7.5 5.4,11 11.4,11.4 23.3,23.5 32.6,33 25.8,26.4 59.3,54.4 66.5,97.7 5,29.6 -8.4,33.6 -8.4,33.6 0,0 1,-20 -1.2,-36.2 -2.3,-16.3 -16.8,-40.1 -38.7,-61.8 -10.7,-10.7 -31.1,-31.1 -49.5,-49.5 -1.4,-1.5 -3.8,-1.6 -5.3,-0.2 -0.8,0.8 -1.3,1.8 -1.2,3 l 0.2,26.6 c 0,3.4 1.3,6.6 3.6,9.2 l 38.3,41.7 c 16.1,17.2 24.3,28.7 24.3,52 0,0 -2.6,28.4 -4,45.2 -2,26.1 17.4,41.4 31.5,48.5 l 72.4,34.6 c 3.5,1.7 5.9,5 6.4,8.8 1,6.9 1.5,13.8 1.5,20.8 v 17.6 H 270 c -7.7,0 -11.2,3.7 -12,12 l -1.5,17.5 c -34,18.5 -57.9,51.1 -65.4,89.1 5,2 10.1,3.9 15.5,5.7 9.5,3.2 19.5,6.3 29.9,8.9 v -0.7 c 0.7,-9 8.2,-16 17.3,-16 h 164.6 c 4,0 7.5,2.9 8.2,6.8 l 0.2,1 c 5.3,-1.8 10.5,-3.7 15.5,-5.7 -7.4,-37.7 -31.1,-70.3 -64.9,-88.8 l -1.6,-17.8 c -0.9,-8.3 -4.3,-12 -12,-12 h -8.1 V 473 c -0.1,-7 0.4,-13.9 1.5,-20.8 0.6,-3.8 3,-7.1 6.5,-8.8 L 436,408.8 c 14,-7.2 33.4,-22.5 31.4,-48.5 -1.3,-16.8 -3.9,-45.2 -3.9,-45.2 0,-23.3 8.2,-34.8 24.3,-52.1 L 526,221.3 c 2.3,-2.5 3.6,-5.8 3.6,-9.2 l 0.2,-26.6 c 0,-2.1 -1.7,-3.8 -3.7,-3.8 -1,0 -2,0.4 -2.7,1.1 -18.3,18.4 -38.7,38.9 -49.5,49.5 -21.9,21.8 -36.5,45.5 -38.7,61.8 -2.3,16.3 -1.3,36.3 -1.3,36.3 0,0 -13.4,-4 -8.4,-33.6 7.2,-43.4 40.7,-71.3 66.5,-97.7 9.3,-9.6 21.3,-21.6 32.6,-33 3.4,-3.4 5.3,-6.1 5.4,-11 l 0.2,-27.6 c 0,-1.9 -1.6,-3.5 -3.5,-3.5 -0.9,0 -1.8,0.3 -2.4,1 -23.5,23.7 -71.6,72.2 -91.8,92.1 -26.6,26.4 -33.9,61.8 -36.7,81.5 -2.8,19.7 4.1,38.8 4.1,38.8 0,0 -18.4,-0.6 -11.2,-52.8 7.3,-52.2 36,-74.2 67.2,-106.2 z m -130.3,213 c 0.1,-0.2 0.3,-0.4 0.6,-0.4 0.2,0 0.4,0.2 0.5,0.4 5.6,20.5 19.1,26.6 25,28.4 0.7,0.2 1.1,0.9 0.9,1.6 -0.1,0.3 -0.3,0.5 -0.5,0.7 -2.3,1.5 -10.4,7 -17.7,12 -3.7,2.5 -8.7,-0.1 -8.7,-4.6 v -38.1 z m 0,68.5 c 0,-1.1 0.9,-2 2,-2 h 4.5 c 5.3,0 9.7,4.7 9.7,10.4 0,5.8 -4.4,10.4 -9.7,10.4 h -4.5 c -1.1,0 -2,-0.9 -2,-1.9 z M 300,341.6 c 0.4,-2.9 2.8,-2 7.9,-2 2.6,0 5.1,0 7.9,0 -0.3,0.4 -4.9,6.4 -10.1,6.4 -5.4,0 -5.8,-3.7 -5.7,-4.4 z M 405.7,566 v 0 c 6.7,8.9 12.1,18.7 15.9,29.2 0.6,1.8 -0.3,3.7 -2,4.3 -0.4,0.1 -0.8,0.2 -1.1,0.2 H 251.8 c -5,0 -9.1,-4.1 -9.1,-9.1 0,-0.9 0.2,-1.8 0.4,-2.7 2,-6.6 4.6,-13 7.7,-19.3 1.8,-3.6 5.4,-5.9 9.4,-5.9 h 139.2 c 2.4,0.2 4.8,1.3 6.3,3.3 z m -16.5,-17.6 v 0 c 1.7,1.4 1.9,4 0.5,5.8 -0.8,0.9 -1.9,1.4 -3.1,1.4 H 270.7 c -3.3,0 -6,-2.7 -6,-6 0,-1.5 0.5,-2.9 1.5,-4 9.3,-10.6 20.4,-18.2 32.6,-21.8 4,-1.2 8.1,-2 12.2,-2.3 h 0.1 c 1.2,-0.1 2.4,-0.1 3.6,-0.1 h 2 c 26.6,-0.1 52.4,9.5 72.5,27 z"
         id="path606"
         style="fill:#ffffff;fill-opacity:0.105085;stroke-width:1.3743" /><path
         d="m 416.9,715.4 c -24.6,32.5 -62.4,48.7 -100.2,48.7 -37.8,0 -75.6,-16.3 -100.2,-48.7 32.2,10.5 66.2,15.8 100.2,15.8 34,0 68,-5.3 100.2,-15.8 z"
         id="path608"
         style="fill:#ffffff;fill-opacity:0.105085;stroke-width:1.3743" /><path
         d="m 122.6,261.3 h -0.9 c -11.1,-0.2 -20.3,8.6 -20.5,19.7 -0.3,11.1 8.6,20.3 19.6,20.5 0.3,0 0.6,0 0.9,0 11.1,0.3 20.3,-8.5 20.5,-19.6 0.3,-11.1 -8.5,-20.3 -19.6,-20.6 z m -0.9,27.9 c -4.3,-0.1 -7.7,-3.6 -7.7,-7.9 0.1,-4.3 3.6,-7.8 7.9,-7.7 4.3,0.1 7.7,3.6 7.7,7.8 0,4.4 -3.6,7.9 -7.9,7.8 z"
         id="path610"
         style="fill:#ffffff;fill-opacity:0.105085;stroke-width:1.3743" /><path
         d="m 153.4,328 c -0.1,5.1 -4.3,9.3 -9.4,9.2 0,0 0,0 0,0 h -29.6 c -25.2,0 -27,-23.8 -26.8,-32.7 0,-0.7 0.6,-1.3 1.4,-1.3 0.4,0 0.7,0.2 0.9,0.4 3.7,4 12.1,11.5 21.8,11.5 H 144 c 5.1,-0.1 9.3,4 9.4,9.2 0,0 0,0 0,0 z"
         id="path612"
         style="fill:#ffffff;fill-opacity:0.105085;stroke-width:1.3743" /><path
         d="m 166.7,394.8 c 1.9,4.5 -0.3,9.7 -4.8,11.5 -0.1,0 -0.1,0.1 -0.2,0.1 l -21.4,8.6 c -13,5.2 -41.8,5.4 -44,1 -1.6,-3.3 18,-15.8 23,-17.8 l 26.5,-12 c 8.1,-3.3 17.4,0.5 20.9,8.6 z"
         id="path614"
         style="fill:#ffffff;fill-opacity:0.105085;stroke-width:1.3743" /><path
         d="m 150.9,363.1 c 0,5.1 -4.2,9.2 -9.3,9.2 0,0 0,0 0,0 H 111 c -26.3,0 -28.8,-27.6 -28.4,-35.5 0,-0.4 0.3,-0.6 0.7,-0.6 0.2,0 0.4,0.1 0.5,0.3 2.6,4.1 9.7,13.9 20.1,13.9 h 37.7 c 5.1,-0.1 9.3,4 9.4,9.2 0,0 0,0 0,0 z"
         id="path616"
         style="fill:#ffffff;fill-opacity:0.105085;stroke-width:1.3743" /><path
         d="m 180,411.4 9.8,5.3 c 3.1,1.7 4.3,5.6 2.6,8.8 -0.5,1 -1.4,1.9 -2.3,2.4 l -30,18.4 c -4.6,2.8 -9.6,1.3 -6.1,-6.3 2.6,-5.7 13.9,-20.1 19.1,-27.2 1.5,-2.1 4.5,-2.7 6.9,-1.4 z"
         id="path618"
         style="fill:#ffffff;fill-opacity:0.105085;stroke-width:1.3743" /><path
         d="m 539.5,550.6 2.7,-1 c 9.7,-3.4 13.5,-12 9.7,-21.8 l -17.3,-41.7 c 0.2,0.7 2.6,8.4 -7.3,13.5 -9.3,4.8 -41.4,22.7 -48.1,26.4 -0.4,0.3 -0.6,0.8 -0.4,1.2 0.1,0.1 0.2,0.2 0.3,0.3 8.3,5.8 18.4,8.6 28.6,7.9 10.5,-0.8 16.1,-0.9 18.9,-0.9 1.5,0 2.7,1.2 2.7,2.8 0,0 0,0.1 0,0.1 -0.9,16.3 -27.6,18.2 -27.6,18.2 -49.4,0.8 -58.7,10.3 -58.7,10.3 l 7.6,18.7 c 0,0 14.4,-0.5 23,1.1 8.6,1.7 9.8,4.3 10.5,6.4 4.7,13.1 -85.1,50.5 -167.5,50.5 -82.4,0 -172.3,-37.4 -167.6,-50.5 0.8,-2.1 2,-4.7 10.6,-6.4 8.6,-1.7 23,-1.1 23,-1.1 l 7.6,-18.7 c 0,0 -9.3,-9.6 -58.7,-10.4 0,0 -26.7,-1.8 -27.6,-18.1 -0.1,-1.5 1.1,-2.8 2.6,-2.9 0.1,0 0.1,0 0.2,0 2.8,0 8.4,0.2 18.9,0.9 10.1,0.7 20.2,-2.1 28.6,-7.9 0.4,-0.3 0.5,-0.8 0.2,-1.2 -0.1,-0.1 -0.2,-0.2 -0.3,-0.3 -6.7,-3.7 -38.9,-21.7 -48.1,-26.4 -9.4,-4.9 -7.7,-12.1 -7.3,-13.4 l -17.3,41.6 c -3.8,9.8 0.1,18.4 9.7,21.8 l 2.7,1 -10.9,38 c -1.9,6.5 -0.5,10.8 5.4,14 l 14.8,7.8 c 9.3,4.9 20.2,5.5 30,1.8 l 1.4,-0.5 -6.3,44.3 c -0.7,4.4 1.4,8.8 5.2,11.3 21.3,13.2 95.3,53.4 183.3,53.4 88,0 162.1,-40.2 183.4,-53.4 3.8,-2.4 5.8,-6.8 5.2,-11.3 l -6.3,-44.3 1.3,0.5 c 9.8,3.7 20.7,3 30.1,-1.8 l 15.3,-7.9 c 5.9,-3.2 6.9,-6.8 5,-13.3 z m -306,135.6 c -0.1,2.4 -3.2,2.9 -9.3,1.2 -10.5,-2.9 -20.9,-6.3 -31.1,-10.3 -5.9,-2.2 -8.7,-4.7 -8.5,-7 0.9,-11.8 1.8,-23.6 2.7,-35.5 4,1.7 8.1,3.2 12.1,4.8 -0.7,10.1 -1.4,20.3 -2.1,30.4 7.8,2.9 15.7,5.5 23.7,7.8 0.6,-10.2 1.1,-20.4 1.7,-30.6 4.1,1.2 8.3,2.3 12.5,3.4 -0.5,11.9 -1.1,23.9 -1.7,35.8 z m 71.8,13.6 c -4.2,-0.1 -8.5,-0.4 -12.7,-0.7 -7.6,-8.8 -15.1,-17.9 -22.4,-27.3 0.6,1.3 0.9,2.3 0.8,3 -0.2,7.3 -0.4,14.7 -0.6,22 -4.7,-0.6 -9.3,-1.4 -14,-2.2 0.5,-13.2 0.9,-26.3 1.4,-39.5 4.1,0.7 8.2,1.4 12.3,1.9 7.3,9.2 14.7,18.1 22.2,26.8 -0.6,-1.3 -0.9,-2.3 -0.9,-2.9 0.1,-7.2 0.2,-14.4 0.3,-21.6 4.6,0.4 9.2,0.6 13.8,0.8 -0.1,13.3 -0.2,26.5 -0.2,39.7 z m 63.5,-3.7 c -9.8,1.5 -19.6,2.5 -29.4,3.2 -5.9,0.4 -8.9,-0.8 -8.9,-3.1 0,-3.1 -0.1,-6.3 -0.1,-9.4 4.9,-0.2 9.7,-0.5 14.6,-0.9 0,1.4 0,4.2 0,5.6 5.9,-0.5 11.9,-1.1 17.8,-1.9 0,-1.4 0,-4 0,-5.3 -9.8,-2.4 -19.6,-5.3 -29.3,-8.6 -2.1,-0.7 -3.2,-1.7 -3.2,-3 0,-2.9 0,-5.9 -0.1,-8.8 0,-2.4 2.9,-3.7 8.6,-4.1 9.6,-0.6 19.2,-1.7 28.8,-3.1 5.8,-0.9 8.7,-0.2 8.7,2.2 0.1,2.9 0.2,5.9 0.3,8.8 -4.8,0.9 -9.5,1.6 -14.3,2.2 0,-1.2 -0.1,-2.5 -0.1,-3.7 -5.9,0.8 -11.7,1.4 -17.6,1.9 0,1.1 0,2.3 0.1,3.4 9.7,3 19.4,5.5 29.2,7.6 2.1,0.5 3.2,1.3 3.2,2.7 0.1,3.1 0.2,6.3 0.3,9.4 0.2,2.3 -2.8,4 -8.6,4.9 z m 72,-19 c -10,3.8 -20.1,7.2 -30.3,10 -5.8,1.6 -8.8,1.1 -8.9,-1.3 -0.5,-10.7 -1,-21.4 -1.6,-32.2 -0.1,-2.4 2.7,-4.3 8.4,-5.9 10,-2.8 19.9,-6.1 29.6,-9.8 5.7,-2.2 8.6,-2.2 8.8,0.2 0.3,3.7 0.6,7.3 0.9,11 -4.7,1.9 -9.3,3.8 -14.1,5.5 -0.1,-2 -0.3,-3.9 -0.4,-5.9 -6.8,2.5 -13.6,4.7 -20.5,6.7 0.4,7.3 0.8,14.5 1.2,21.8 7,-2 13.9,-4.3 20.8,-6.8 -0.1,-2.1 -0.3,-4.3 -0.4,-6.4 4.7,-1.7 9.4,-3.6 14.1,-5.5 0.3,3.8 0.6,7.7 0.9,11.5 0.2,2.4 -2.6,4.9 -8.5,7.1 z"
         id="path620"
         style="fill:#ffffff;fill-opacity:0.105085;stroke-width:1.3743" /><path
         d="m 211.2,430.6 14.2,6.5 c 2.5,1.1 3.7,4.1 2.6,6.6 -0.2,0.6 -0.6,1.1 -1,1.5 l -14.8,15 c -1.6,1.6 -4.3,1.7 -5.9,0 -0.8,-0.8 -1.2,-1.8 -1.2,-2.9 L 205,434.4 c 0,-2.4 2.1,-4.4 4.5,-4.4 0.5,0.2 1.1,0.4 1.7,0.6 z"
         id="path622"
         style="fill:#ffffff;fill-opacity:0.105085;stroke-width:1.3743" /><path
         d="m 243.7,446.2 12.9,4.5 c 3.3,1.1 5.1,4.6 4,7.9 -0.5,1.5 -1.5,2.7 -2.8,3.5 l -11.9,7 c -2.1,1.3 -4.9,0.6 -6.1,-1.5 -0.4,-0.7 -0.6,-1.5 -0.6,-2.4 l 0.6,-16.3 c 0.1,-1.6 1.6,-2.9 3.2,-2.7 0.2,-0.1 0.4,-0.1 0.7,0 z"
         id="path624"
         style="fill:#ffffff;fill-opacity:0.105085;stroke-width:1.3743" /><path
         d="m 512.2,261.3 c 0,0 0,0 0,0 -11.1,0.3 -19.9,9.5 -19.7,20.5 0.3,11.1 9.4,19.9 20.5,19.6 10.9,-0.2 19.6,-9.2 19.7,-20.1 -0.1,-11.1 -9.3,-20.1 -20.5,-20 z m 0,27.9 c -4.3,-0.1 -7.7,-3.6 -7.7,-7.9 0.1,-4.3 3.6,-7.8 7.9,-7.7 4.3,0.1 7.7,3.6 7.7,7.8 0,4.4 -3.6,7.9 -7.9,7.8 z"
         id="path626"
         style="fill:#ffffff;fill-opacity:0.105085;stroke-width:1.3743" /><path
         d="m 480.5,328 c 0.1,5.1 4.3,9.3 9.4,9.2 h 29.6 c 25.2,0 27,-23.8 26.8,-32.7 0,-0.7 -0.6,-1.3 -1.4,-1.3 -0.3,0 -0.7,0.2 -0.9,0.4 -3.7,4 -12.1,11.5 -21.8,11.5 h -32.3 c -5.1,-0.1 -9.3,4.1 -9.4,9.2 0,0 0,0 0,0 z"
         id="path628"
         style="fill:#ffffff;fill-opacity:0.105085;stroke-width:1.3743" /><path
         d="m 469.1,394.8 c -1.9,4.5 0.3,9.7 4.8,11.5 0.1,0 0.1,0.1 0.2,0.1 l 21.4,8.6 c 13,5.2 41.8,5.4 44,1 1.6,-3.3 -18,-15.8 -23,-17.8 l -26.5,-12 c -8.1,-3.2 -17.4,0.6 -20.9,8.6 z"
         id="path630"
         style="fill:#ffffff;fill-opacity:0.105085;stroke-width:1.3743" /><path
         d="m 483,363.1 c 0,5.1 4.2,9.2 9.3,9.2 0,0 0,0 0,0 h 30.6 c 26.4,0 28.8,-27.6 28.5,-35.5 0,-0.4 -0.3,-0.6 -0.7,-0.6 -0.2,0 -0.4,0.1 -0.5,0.3 -2.6,4.1 -9.7,13.9 -20.1,13.9 h -37.7 c -5.1,-0.1 -9.3,4 -9.4,9.2 0,0 0,0 0,0 z"
         id="path632"
         style="fill:#ffffff;fill-opacity:0.105085;stroke-width:1.3743" /><path
         d="m 453.8,411.4 -9.8,5.3 c -3.1,1.7 -4.3,5.6 -2.6,8.7 0.5,1 1.4,1.9 2.3,2.5 l 30,18.4 c 4.6,2.8 9.6,1.3 6.2,-6.3 -2.6,-5.7 -13.9,-20.1 -19.1,-27.2 -1.6,-2.1 -4.6,-2.7 -7,-1.4 z"
         id="path634"
         style="fill:#ffffff;fill-opacity:0.105085;stroke-width:1.3743" /><path
         d="m 422.6,430.6 -14.2,6.5 c -2.5,1.1 -3.7,4.1 -2.5,6.7 0.2,0.5 0.6,1 1,1.5 l 14.8,15 c 1.6,1.6 4.3,1.7 5.9,0 0.8,-0.8 1.2,-1.8 1.2,-2.9 l 0.1,-22.9 c 0,-2.4 -2.1,-4.4 -4.5,-4.4 -0.6,0.1 -1.2,0.3 -1.8,0.5 z"
         id="path636"
         style="fill:#ffffff;fill-opacity:0.105085;stroke-width:1.3743" /><path
         d="m 390.1,446.2 -12.9,4.5 c -3.3,1.1 -5.1,4.6 -4,7.9 0.5,1.5 1.5,2.7 2.8,3.5 l 11.9,7 c 2.1,1.3 4.8,0.6 6.1,-1.5 0.4,-0.7 0.7,-1.6 0.6,-2.4 L 394,448.9 c -0.1,-1.6 -1.6,-2.9 -3.2,-2.7 -0.2,-0.1 -0.4,-0.1 -0.7,0 z"
         id="path638"
         style="fill:#ffffff;fill-opacity:0.105085;stroke-width:1.3743" /></g><g
       id="g1252"
       transform="matrix(0,0.42223848,-0.42223848,0,1021.2099,400.47283)"
       style="fill:#ffffff;fill-opacity:0.105085;stroke-width:2.36833"><path
         d="m 455.9,178.4 c 21.4,-21.9 53.9,-54.4 72.2,-72.7 1.5,-1.5 2.4,-3.6 2.4,-5.8 l 0.3,-29.4 c 0,-2.7 -2.2,-5 -5,-5 -1.3,0 -2.6,0.5 -3.5,1.5 L 410.5,180.6 c -28.3,28.6 -50,72.3 -51.8,109.9 -1.8,37.6 3.2,85.7 15.2,82.9 14.1,-3.4 32.3,-26 44.9,-8.4 5.3,7.5 4.2,16.1 -5.3,23 -7.4,5.4 -23,9.8 -31.1,12.1 l -14.2,2.5 c -7.1,0 -13.3,-4 -22.2,-13.5 -8.9,-9.5 -9.4,-19.4 -9.4,-32 0.1,-12.5 -2.2,-17.5 -2.2,-17.5 10.6,0 12.4,-8.8 12.4,-8.8 h -46.6 c -8.7,0 -16.9,6.3 -16.9,14.6 v 11.3 l 7.1,0.3 c 5.2,0.2 7.6,5.1 6.5,10.1 -2.1,10.4 -7.5,19.8 -15.5,26.7 -6.2,5.6 -13.3,11 -30,6.2 -8,-2.3 -23.7,-6.8 -31.1,-12.1 -9.5,-6.9 -10.6,-15.5 -5.3,-23 12.6,-17.6 30.8,5 44.9,8.4 12.1,2.9 17,-45.3 15.3,-82.9 -1.8,-37.6 -23.5,-81.3 -51.8,-109.8 L 111.6,67 c -1.9,-1.9 -5.1,-1.9 -7,0 -0.9,0.9 -1.5,2.2 -1.5,3.5 l 0.2,29.4 c 0,2.2 0.9,4.3 2.4,5.8 18.3,18.3 50.7,50.8 72.2,72.7 31.3,32 60,54 67.2,106.2 7.2,52.2 -11.2,52.8 -11.2,52.8 0,0 6.9,-19.1 4.1,-38.8 -2.8,-19.7 -10.1,-55.1 -36.7,-81.5 -20.2,-20 -68.3,-68.5 -91.8,-92.2 -1.4,-1.4 -3.6,-1.3 -5,0.1 -0.6,0.7 -1,1.5 -1,2.4 l 0.2,27.6 c 0,4.9 2,7.5 5.4,11 11.4,11.4 23.3,23.5 32.6,33 25.8,26.4 59.3,54.4 66.5,97.7 5,29.6 -8.4,33.6 -8.4,33.6 0,0 1,-20 -1.2,-36.2 -2.3,-16.3 -16.8,-40.1 -38.7,-61.8 -10.7,-10.7 -31.1,-31.1 -49.5,-49.5 -1.4,-1.5 -3.8,-1.6 -5.3,-0.2 -0.8,0.8 -1.3,1.8 -1.2,3 l 0.2,26.6 c 0,3.4 1.3,6.6 3.6,9.2 l 38.3,41.7 c 16.1,17.2 24.3,28.7 24.3,52 0,0 -2.6,28.4 -4,45.2 -2,26.1 17.4,41.4 31.5,48.5 l 72.4,34.6 c 3.5,1.7 5.9,5 6.4,8.8 1,6.9 1.5,13.8 1.5,20.8 v 17.6 H 270 c -7.7,0 -11.2,3.7 -12,12 l -1.5,17.5 c -34,18.5 -57.9,51.1 -65.4,89.1 5,2 10.1,3.9 15.5,5.7 9.5,3.2 19.5,6.3 29.9,8.9 v -0.7 c 0.7,-9 8.2,-16 17.3,-16 h 164.6 c 4,0 7.5,2.9 8.2,6.8 l 0.2,1 c 5.3,-1.8 10.5,-3.7 15.5,-5.7 -7.4,-37.7 -31.1,-70.3 -64.9,-88.8 l -1.6,-17.8 c -0.9,-8.3 -4.3,-12 -12,-12 h -8.1 V 473 c -0.1,-7 0.4,-13.9 1.5,-20.8 0.6,-3.8 3,-7.1 6.5,-8.8 L 436,408.8 c 14,-7.2 33.4,-22.5 31.4,-48.5 -1.3,-16.8 -3.9,-45.2 -3.9,-45.2 0,-23.3 8.2,-34.8 24.3,-52.1 L 526,221.3 c 2.3,-2.5 3.6,-5.8 3.6,-9.2 l 0.2,-26.6 c 0,-2.1 -1.7,-3.8 -3.7,-3.8 -1,0 -2,0.4 -2.7,1.1 -18.3,18.4 -38.7,38.9 -49.5,49.5 -21.9,21.8 -36.5,45.5 -38.7,61.8 -2.3,16.3 -1.3,36.3 -1.3,36.3 0,0 -13.4,-4 -8.4,-33.6 7.2,-43.4 40.7,-71.3 66.5,-97.7 9.3,-9.6 21.3,-21.6 32.6,-33 3.4,-3.4 5.3,-6.1 5.4,-11 l 0.2,-27.6 c 0,-1.9 -1.6,-3.5 -3.5,-3.5 -0.9,0 -1.8,0.3 -2.4,1 -23.5,23.7 -71.6,72.2 -91.8,92.1 -26.6,26.4 -33.9,61.8 -36.7,81.5 -2.8,19.7 4.1,38.8 4.1,38.8 0,0 -18.4,-0.6 -11.2,-52.8 7.3,-52.2 36,-74.2 67.2,-106.2 z m -130.3,213 c 0.1,-0.2 0.3,-0.4 0.6,-0.4 0.2,0 0.4,0.2 0.5,0.4 5.6,20.5 19.1,26.6 25,28.4 0.7,0.2 1.1,0.9 0.9,1.6 -0.1,0.3 -0.3,0.5 -0.5,0.7 -2.3,1.5 -10.4,7 -17.7,12 -3.7,2.5 -8.7,-0.1 -8.7,-4.6 v -38.1 z m 0,68.5 c 0,-1.1 0.9,-2 2,-2 h 4.5 c 5.3,0 9.7,4.7 9.7,10.4 0,5.8 -4.4,10.4 -9.7,10.4 h -4.5 c -1.1,0 -2,-0.9 -2,-1.9 z M 300,341.6 c 0.4,-2.9 2.8,-2 7.9,-2 2.6,0 5.1,0 7.9,0 -0.3,0.4 -4.9,6.4 -10.1,6.4 -5.4,0 -5.8,-3.7 -5.7,-4.4 z M 405.7,566 v 0 c 6.7,8.9 12.1,18.7 15.9,29.2 0.6,1.8 -0.3,3.7 -2,4.3 -0.4,0.1 -0.8,0.2 -1.1,0.2 H 251.8 c -5,0 -9.1,-4.1 -9.1,-9.1 0,-0.9 0.2,-1.8 0.4,-2.7 2,-6.6 4.6,-13 7.7,-19.3 1.8,-3.6 5.4,-5.9 9.4,-5.9 h 139.2 c 2.4,0.2 4.8,1.3 6.3,3.3 z m -16.5,-17.6 v 0 c 1.7,1.4 1.9,4 0.5,5.8 -0.8,0.9 -1.9,1.4 -3.1,1.4 H 270.7 c -3.3,0 -6,-2.7 -6,-6 0,-1.5 0.5,-2.9 1.5,-4 9.3,-10.6 20.4,-18.2 32.6,-21.8 4,-1.2 8.1,-2 12.2,-2.3 h 0.1 c 1.2,-0.1 2.4,-0.1 3.6,-0.1 h 2 c 26.6,-0.1 52.4,9.5 72.5,27 z"
         id="path1218"
         style="fill:#ffffff;fill-opacity:0.105085;stroke-width:2.36833" /><path
         d="m 416.9,715.4 c -24.6,32.5 -62.4,48.7 -100.2,48.7 -37.8,0 -75.6,-16.3 -100.2,-48.7 32.2,10.5 66.2,15.8 100.2,15.8 34,0 68,-5.3 100.2,-15.8 z"
         id="path1220"
         style="fill:#ffffff;fill-opacity:0.105085;stroke-width:2.36833" /><path
         d="m 122.6,261.3 h -0.9 c -11.1,-0.2 -20.3,8.6 -20.5,19.7 -0.3,11.1 8.6,20.3 19.6,20.5 0.3,0 0.6,0 0.9,0 11.1,0.3 20.3,-8.5 20.5,-19.6 0.3,-11.1 -8.5,-20.3 -19.6,-20.6 z m -0.9,27.9 c -4.3,-0.1 -7.7,-3.6 -7.7,-7.9 0.1,-4.3 3.6,-7.8 7.9,-7.7 4.3,0.1 7.7,3.6 7.7,7.8 0,4.4 -3.6,7.9 -7.9,7.8 z"
         id="path1222"
         style="fill:#ffffff;fill-opacity:0.105085;stroke-width:2.36833" /><path
         d="m 153.4,328 c -0.1,5.1 -4.3,9.3 -9.4,9.2 0,0 0,0 0,0 h -29.6 c -25.2,0 -27,-23.8 -26.8,-32.7 0,-0.7 0.6,-1.3 1.4,-1.3 0.4,0 0.7,0.2 0.9,0.4 3.7,4 12.1,11.5 21.8,11.5 H 144 c 5.1,-0.1 9.3,4 9.4,9.2 0,0 0,0 0,0 z"
         id="path1224"
         style="fill:#ffffff;fill-opacity:0.105085;stroke-width:2.36833" /><path
         d="m 166.7,394.8 c 1.9,4.5 -0.3,9.7 -4.8,11.5 -0.1,0 -0.1,0.1 -0.2,0.1 l -21.4,8.6 c -13,5.2 -41.8,5.4 -44,1 -1.6,-3.3 18,-15.8 23,-17.8 l 26.5,-12 c 8.1,-3.3 17.4,0.5 20.9,8.6 z"
         id="path1226"
         style="fill:#ffffff;fill-opacity:0.105085;stroke-width:2.36833" /><path
         d="m 150.9,363.1 c 0,5.1 -4.2,9.2 -9.3,9.2 0,0 0,0 0,0 H 111 c -26.3,0 -28.8,-27.6 -28.4,-35.5 0,-0.4 0.3,-0.6 0.7,-0.6 0.2,0 0.4,0.1 0.5,0.3 2.6,4.1 9.7,13.9 20.1,13.9 h 37.7 c 5.1,-0.1 9.3,4 9.4,9.2 0,0 0,0 0,0 z"
         id="path1228"
         style="fill:#ffffff;fill-opacity:0.105085;stroke-width:2.36833" /><path
         d="m 180,411.4 9.8,5.3 c 3.1,1.7 4.3,5.6 2.6,8.8 -0.5,1 -1.4,1.9 -2.3,2.4 l -30,18.4 c -4.6,2.8 -9.6,1.3 -6.1,-6.3 2.6,-5.7 13.9,-20.1 19.1,-27.2 1.5,-2.1 4.5,-2.7 6.9,-1.4 z"
         id="path1230"
         style="fill:#ffffff;fill-opacity:0.105085;stroke-width:2.36833" /><path
         d="m 539.5,550.6 2.7,-1 c 9.7,-3.4 13.5,-12 9.7,-21.8 l -17.3,-41.7 c 0.2,0.7 2.6,8.4 -7.3,13.5 -9.3,4.8 -41.4,22.7 -48.1,26.4 -0.4,0.3 -0.6,0.8 -0.4,1.2 0.1,0.1 0.2,0.2 0.3,0.3 8.3,5.8 18.4,8.6 28.6,7.9 10.5,-0.8 16.1,-0.9 18.9,-0.9 1.5,0 2.7,1.2 2.7,2.8 0,0 0,0.1 0,0.1 -0.9,16.3 -27.6,18.2 -27.6,18.2 -49.4,0.8 -58.7,10.3 -58.7,10.3 l 7.6,18.7 c 0,0 14.4,-0.5 23,1.1 8.6,1.7 9.8,4.3 10.5,6.4 4.7,13.1 -85.1,50.5 -167.5,50.5 -82.4,0 -172.3,-37.4 -167.6,-50.5 0.8,-2.1 2,-4.7 10.6,-6.4 8.6,-1.7 23,-1.1 23,-1.1 l 7.6,-18.7 c 0,0 -9.3,-9.6 -58.7,-10.4 0,0 -26.7,-1.8 -27.6,-18.1 -0.1,-1.5 1.1,-2.8 2.6,-2.9 0.1,0 0.1,0 0.2,0 2.8,0 8.4,0.2 18.9,0.9 10.1,0.7 20.2,-2.1 28.6,-7.9 0.4,-0.3 0.5,-0.8 0.2,-1.2 -0.1,-0.1 -0.2,-0.2 -0.3,-0.3 -6.7,-3.7 -38.9,-21.7 -48.1,-26.4 -9.4,-4.9 -7.7,-12.1 -7.3,-13.4 l -17.3,41.6 c -3.8,9.8 0.1,18.4 9.7,21.8 l 2.7,1 -10.9,38 c -1.9,6.5 -0.5,10.8 5.4,14 l 14.8,7.8 c 9.3,4.9 20.2,5.5 30,1.8 l 1.4,-0.5 -6.3,44.3 c -0.7,4.4 1.4,8.8 5.2,11.3 21.3,13.2 95.3,53.4 183.3,53.4 88,0 162.1,-40.2 183.4,-53.4 3.8,-2.4 5.8,-6.8 5.2,-11.3 l -6.3,-44.3 1.3,0.5 c 9.8,3.7 20.7,3 30.1,-1.8 l 15.3,-7.9 c 5.9,-3.2 6.9,-6.8 5,-13.3 z m -306,135.6 c -0.1,2.4 -3.2,2.9 -9.3,1.2 -10.5,-2.9 -20.9,-6.3 -31.1,-10.3 -5.9,-2.2 -8.7,-4.7 -8.5,-7 0.9,-11.8 1.8,-23.6 2.7,-35.5 4,1.7 8.1,3.2 12.1,4.8 -0.7,10.1 -1.4,20.3 -2.1,30.4 7.8,2.9 15.7,5.5 23.7,7.8 0.6,-10.2 1.1,-20.4 1.7,-30.6 4.1,1.2 8.3,2.3 12.5,3.4 -0.5,11.9 -1.1,23.9 -1.7,35.8 z m 71.8,13.6 c -4.2,-0.1 -8.5,-0.4 -12.7,-0.7 -7.6,-8.8 -15.1,-17.9 -22.4,-27.3 0.6,1.3 0.9,2.3 0.8,3 -0.2,7.3 -0.4,14.7 -0.6,22 -4.7,-0.6 -9.3,-1.4 -14,-2.2 0.5,-13.2 0.9,-26.3 1.4,-39.5 4.1,0.7 8.2,1.4 12.3,1.9 7.3,9.2 14.7,18.1 22.2,26.8 -0.6,-1.3 -0.9,-2.3 -0.9,-2.9 0.1,-7.2 0.2,-14.4 0.3,-21.6 4.6,0.4 9.2,0.6 13.8,0.8 -0.1,13.3 -0.2,26.5 -0.2,39.7 z m 63.5,-3.7 c -9.8,1.5 -19.6,2.5 -29.4,3.2 -5.9,0.4 -8.9,-0.8 -8.9,-3.1 0,-3.1 -0.1,-6.3 -0.1,-9.4 4.9,-0.2 9.7,-0.5 14.6,-0.9 0,1.4 0,4.2 0,5.6 5.9,-0.5 11.9,-1.1 17.8,-1.9 0,-1.4 0,-4 0,-5.3 -9.8,-2.4 -19.6,-5.3 -29.3,-8.6 -2.1,-0.7 -3.2,-1.7 -3.2,-3 0,-2.9 0,-5.9 -0.1,-8.8 0,-2.4 2.9,-3.7 8.6,-4.1 9.6,-0.6 19.2,-1.7 28.8,-3.1 5.8,-0.9 8.7,-0.2 8.7,2.2 0.1,2.9 0.2,5.9 0.3,8.8 -4.8,0.9 -9.5,1.6 -14.3,2.2 0,-1.2 -0.1,-2.5 -0.1,-3.7 -5.9,0.8 -11.7,1.4 -17.6,1.9 0,1.1 0,2.3 0.1,3.4 9.7,3 19.4,5.5 29.2,7.6 2.1,0.5 3.2,1.3 3.2,2.7 0.1,3.1 0.2,6.3 0.3,9.4 0.2,2.3 -2.8,4 -8.6,4.9 z m 72,-19 c -10,3.8 -20.1,7.2 -30.3,10 -5.8,1.6 -8.8,1.1 -8.9,-1.3 -0.5,-10.7 -1,-21.4 -1.6,-32.2 -0.1,-2.4 2.7,-4.3 8.4,-5.9 10,-2.8 19.9,-6.1 29.6,-9.8 5.7,-2.2 8.6,-2.2 8.8,0.2 0.3,3.7 0.6,7.3 0.9,11 -4.7,1.9 -9.3,3.8 -14.1,5.5 -0.1,-2 -0.3,-3.9 -0.4,-5.9 -6.8,2.5 -13.6,4.7 -20.5,6.7 0.4,7.3 0.8,14.5 1.2,21.8 7,-2 13.9,-4.3 20.8,-6.8 -0.1,-2.1 -0.3,-4.3 -0.4,-6.4 4.7,-1.7 9.4,-3.6 14.1,-5.5 0.3,3.8 0.6,7.7 0.9,11.5 0.2,2.4 -2.6,4.9 -8.5,7.1 z"
         id="path1232"
         style="fill:#ffffff;fill-opacity:0.105085;stroke-width:2.36833" /><path
         d="m 211.2,430.6 14.2,6.5 c 2.5,1.1 3.7,4.1 2.6,6.6 -0.2,0.6 -0.6,1.1 -1,1.5 l -14.8,15 c -1.6,1.6 -4.3,1.7 -5.9,0 -0.8,-0.8 -1.2,-1.8 -1.2,-2.9 L 205,434.4 c 0,-2.4 2.1,-4.4 4.5,-4.4 0.5,0.2 1.1,0.4 1.7,0.6 z"
         id="path1234"
         style="fill:#ffffff;fill-opacity:0.105085;stroke-width:2.36833" /><path
         d="m 243.7,446.2 12.9,4.5 c 3.3,1.1 5.1,4.6 4,7.9 -0.5,1.5 -1.5,2.7 -2.8,3.5 l -11.9,7 c -2.1,1.3 -4.9,0.6 -6.1,-1.5 -0.4,-0.7 -0.6,-1.5 -0.6,-2.4 l 0.6,-16.3 c 0.1,-1.6 1.6,-2.9 3.2,-2.7 0.2,-0.1 0.4,-0.1 0.7,0 z"
         id="path1236"
         style="fill:#ffffff;fill-opacity:0.105085;stroke-width:2.36833" /><path
         d="m 512.2,261.3 c 0,0 0,0 0,0 -11.1,0.3 -19.9,9.5 -19.7,20.5 0.3,11.1 9.4,19.9 20.5,19.6 10.9,-0.2 19.6,-9.2 19.7,-20.1 -0.1,-11.1 -9.3,-20.1 -20.5,-20 z m 0,27.9 c -4.3,-0.1 -7.7,-3.6 -7.7,-7.9 0.1,-4.3 3.6,-7.8 7.9,-7.7 4.3,0.1 7.7,3.6 7.7,7.8 0,4.4 -3.6,7.9 -7.9,7.8 z"
         id="path1238"
         style="fill:#ffffff;fill-opacity:0.105085;stroke-width:2.36833" /><path
         d="m 480.5,328 c 0.1,5.1 4.3,9.3 9.4,9.2 h 29.6 c 25.2,0 27,-23.8 26.8,-32.7 0,-0.7 -0.6,-1.3 -1.4,-1.3 -0.3,0 -0.7,0.2 -0.9,0.4 -3.7,4 -12.1,11.5 -21.8,11.5 h -32.3 c -5.1,-0.1 -9.3,4.1 -9.4,9.2 0,0 0,0 0,0 z"
         id="path1240"
         style="fill:#ffffff;fill-opacity:0.105085;stroke-width:2.36833" /><path
         d="m 469.1,394.8 c -1.9,4.5 0.3,9.7 4.8,11.5 0.1,0 0.1,0.1 0.2,0.1 l 21.4,8.6 c 13,5.2 41.8,5.4 44,1 1.6,-3.3 -18,-15.8 -23,-17.8 l -26.5,-12 c -8.1,-3.2 -17.4,0.6 -20.9,8.6 z"
         id="path1242"
         style="fill:#ffffff;fill-opacity:0.105085;stroke-width:2.36833" /><path
         d="m 483,363.1 c 0,5.1 4.2,9.2 9.3,9.2 0,0 0,0 0,0 h 30.6 c 26.4,0 28.8,-27.6 28.5,-35.5 0,-0.4 -0.3,-0.6 -0.7,-0.6 -0.2,0 -0.4,0.1 -0.5,0.3 -2.6,4.1 -9.7,13.9 -20.1,13.9 h -37.7 c -5.1,-0.1 -9.3,4 -9.4,9.2 0,0 0,0 0,0 z"
         id="path1244"
         style="fill:#ffffff;fill-opacity:0.105085;stroke-width:2.36833" /><path
         d="m 453.8,411.4 -9.8,5.3 c -3.1,1.7 -4.3,5.6 -2.6,8.7 0.5,1 1.4,1.9 2.3,2.5 l 30,18.4 c 4.6,2.8 9.6,1.3 6.2,-6.3 -2.6,-5.7 -13.9,-20.1 -19.1,-27.2 -1.6,-2.1 -4.6,-2.7 -7,-1.4 z"
         id="path1246"
         style="fill:#ffffff;fill-opacity:0.105085;stroke-width:2.36833" /><path
         d="m 422.6,430.6 -14.2,6.5 c -2.5,1.1 -3.7,4.1 -2.5,6.7 0.2,0.5 0.6,1 1,1.5 l 14.8,15 c 1.6,1.6 4.3,1.7 5.9,0 0.8,-0.8 1.2,-1.8 1.2,-2.9 l 0.1,-22.9 c 0,-2.4 -2.1,-4.4 -4.5,-4.4 -0.6,0.1 -1.2,0.3 -1.8,0.5 z"
         id="path1248"
         style="fill:#ffffff;fill-opacity:0.105085;stroke-width:2.36833" /><path
         d="m 390.1,446.2 -12.9,4.5 c -3.3,1.1 -5.1,4.6 -4,7.9 0.5,1.5 1.5,2.7 2.8,3.5 l 11.9,7 c 2.1,1.3 4.8,0.6 6.1,-1.5 0.4,-0.7 0.7,-1.6 0.6,-2.4 L 394,448.9 c -0.1,-1.6 -1.6,-2.9 -3.2,-2.7 -0.2,-0.1 -0.4,-0.1 -0.7,0 z"
         id="path1250"
         style="fill:#ffffff;fill-opacity:0.105085;stroke-width:2.36833" /></g><g
       id="g1288"
       transform="matrix(0,0.08204914,-0.08204914,0,714.2332,245.06541)"
       style="fill:#ffffff;fill-opacity:0.105085;stroke-width:12.1878"><path
         d="m 455.9,178.4 c 21.4,-21.9 53.9,-54.4 72.2,-72.7 1.5,-1.5 2.4,-3.6 2.4,-5.8 l 0.3,-29.4 c 0,-2.7 -2.2,-5 -5,-5 -1.3,0 -2.6,0.5 -3.5,1.5 L 410.5,180.6 c -28.3,28.6 -50,72.3 -51.8,109.9 -1.8,37.6 3.2,85.7 15.2,82.9 14.1,-3.4 32.3,-26 44.9,-8.4 5.3,7.5 4.2,16.1 -5.3,23 -7.4,5.4 -23,9.8 -31.1,12.1 l -14.2,2.5 c -7.1,0 -13.3,-4 -22.2,-13.5 -8.9,-9.5 -9.4,-19.4 -9.4,-32 0.1,-12.5 -2.2,-17.5 -2.2,-17.5 10.6,0 12.4,-8.8 12.4,-8.8 h -46.6 c -8.7,0 -16.9,6.3 -16.9,14.6 v 11.3 l 7.1,0.3 c 5.2,0.2 7.6,5.1 6.5,10.1 -2.1,10.4 -7.5,19.8 -15.5,26.7 -6.2,5.6 -13.3,11 -30,6.2 -8,-2.3 -23.7,-6.8 -31.1,-12.1 -9.5,-6.9 -10.6,-15.5 -5.3,-23 12.6,-17.6 30.8,5 44.9,8.4 12.1,2.9 17,-45.3 15.3,-82.9 -1.8,-37.6 -23.5,-81.3 -51.8,-109.8 L 111.6,67 c -1.9,-1.9 -5.1,-1.9 -7,0 -0.9,0.9 -1.5,2.2 -1.5,3.5 l 0.2,29.4 c 0,2.2 0.9,4.3 2.4,5.8 18.3,18.3 50.7,50.8 72.2,72.7 31.3,32 60,54 67.2,106.2 7.2,52.2 -11.2,52.8 -11.2,52.8 0,0 6.9,-19.1 4.1,-38.8 -2.8,-19.7 -10.1,-55.1 -36.7,-81.5 -20.2,-20 -68.3,-68.5 -91.8,-92.2 -1.4,-1.4 -3.6,-1.3 -5,0.1 -0.6,0.7 -1,1.5 -1,2.4 l 0.2,27.6 c 0,4.9 2,7.5 5.4,11 11.4,11.4 23.3,23.5 32.6,33 25.8,26.4 59.3,54.4 66.5,97.7 5,29.6 -8.4,33.6 -8.4,33.6 0,0 1,-20 -1.2,-36.2 -2.3,-16.3 -16.8,-40.1 -38.7,-61.8 -10.7,-10.7 -31.1,-31.1 -49.5,-49.5 -1.4,-1.5 -3.8,-1.6 -5.3,-0.2 -0.8,0.8 -1.3,1.8 -1.2,3 l 0.2,26.6 c 0,3.4 1.3,6.6 3.6,9.2 l 38.3,41.7 c 16.1,17.2 24.3,28.7 24.3,52 0,0 -2.6,28.4 -4,45.2 -2,26.1 17.4,41.4 31.5,48.5 l 72.4,34.6 c 3.5,1.7 5.9,5 6.4,8.8 1,6.9 1.5,13.8 1.5,20.8 v 17.6 H 270 c -7.7,0 -11.2,3.7 -12,12 l -1.5,17.5 c -34,18.5 -57.9,51.1 -65.4,89.1 5,2 10.1,3.9 15.5,5.7 9.5,3.2 19.5,6.3 29.9,8.9 v -0.7 c 0.7,-9 8.2,-16 17.3,-16 h 164.6 c 4,0 7.5,2.9 8.2,6.8 l 0.2,1 c 5.3,-1.8 10.5,-3.7 15.5,-5.7 -7.4,-37.7 -31.1,-70.3 -64.9,-88.8 l -1.6,-17.8 c -0.9,-8.3 -4.3,-12 -12,-12 h -8.1 V 473 c -0.1,-7 0.4,-13.9 1.5,-20.8 0.6,-3.8 3,-7.1 6.5,-8.8 L 436,408.8 c 14,-7.2 33.4,-22.5 31.4,-48.5 -1.3,-16.8 -3.9,-45.2 -3.9,-45.2 0,-23.3 8.2,-34.8 24.3,-52.1 L 526,221.3 c 2.3,-2.5 3.6,-5.8 3.6,-9.2 l 0.2,-26.6 c 0,-2.1 -1.7,-3.8 -3.7,-3.8 -1,0 -2,0.4 -2.7,1.1 -18.3,18.4 -38.7,38.9 -49.5,49.5 -21.9,21.8 -36.5,45.5 -38.7,61.8 -2.3,16.3 -1.3,36.3 -1.3,36.3 0,0 -13.4,-4 -8.4,-33.6 7.2,-43.4 40.7,-71.3 66.5,-97.7 9.3,-9.6 21.3,-21.6 32.6,-33 3.4,-3.4 5.3,-6.1 5.4,-11 l 0.2,-27.6 c 0,-1.9 -1.6,-3.5 -3.5,-3.5 -0.9,0 -1.8,0.3 -2.4,1 -23.5,23.7 -71.6,72.2 -91.8,92.1 -26.6,26.4 -33.9,61.8 -36.7,81.5 -2.8,19.7 4.1,38.8 4.1,38.8 0,0 -18.4,-0.6 -11.2,-52.8 7.3,-52.2 36,-74.2 67.2,-106.2 z m -130.3,213 c 0.1,-0.2 0.3,-0.4 0.6,-0.4 0.2,0 0.4,0.2 0.5,0.4 5.6,20.5 19.1,26.6 25,28.4 0.7,0.2 1.1,0.9 0.9,1.6 -0.1,0.3 -0.3,0.5 -0.5,0.7 -2.3,1.5 -10.4,7 -17.7,12 -3.7,2.5 -8.7,-0.1 -8.7,-4.6 v -38.1 z m 0,68.5 c 0,-1.1 0.9,-2 2,-2 h 4.5 c 5.3,0 9.7,4.7 9.7,10.4 0,5.8 -4.4,10.4 -9.7,10.4 h -4.5 c -1.1,0 -2,-0.9 -2,-1.9 z M 300,341.6 c 0.4,-2.9 2.8,-2 7.9,-2 2.6,0 5.1,0 7.9,0 -0.3,0.4 -4.9,6.4 -10.1,6.4 -5.4,0 -5.8,-3.7 -5.7,-4.4 z M 405.7,566 v 0 c 6.7,8.9 12.1,18.7 15.9,29.2 0.6,1.8 -0.3,3.7 -2,4.3 -0.4,0.1 -0.8,0.2 -1.1,0.2 H 251.8 c -5,0 -9.1,-4.1 -9.1,-9.1 0,-0.9 0.2,-1.8 0.4,-2.7 2,-6.6 4.6,-13 7.7,-19.3 1.8,-3.6 5.4,-5.9 9.4,-5.9 h 139.2 c 2.4,0.2 4.8,1.3 6.3,3.3 z m -16.5,-17.6 v 0 c 1.7,1.4 1.9,4 0.5,5.8 -0.8,0.9 -1.9,1.4 -3.1,1.4 H 270.7 c -3.3,0 -6,-2.7 -6,-6 0,-1.5 0.5,-2.9 1.5,-4 9.3,-10.6 20.4,-18.2 32.6,-21.8 4,-1.2 8.1,-2 12.2,-2.3 h 0.1 c 1.2,-0.1 2.4,-0.1 3.6,-0.1 h 2 c 26.6,-0.1 52.4,9.5 72.5,27 z"
         id="path1254"
         style="fill:#ffffff;fill-opacity:0.105085;stroke-width:12.1878" /><path
         d="m 416.9,715.4 c -24.6,32.5 -62.4,48.7 -100.2,48.7 -37.8,0 -75.6,-16.3 -100.2,-48.7 32.2,10.5 66.2,15.8 100.2,15.8 34,0 68,-5.3 100.2,-15.8 z"
         id="path1256"
         style="fill:#ffffff;fill-opacity:0.105085;stroke-width:12.1878" /><path
         d="m 122.6,261.3 h -0.9 c -11.1,-0.2 -20.3,8.6 -20.5,19.7 -0.3,11.1 8.6,20.3 19.6,20.5 0.3,0 0.6,0 0.9,0 11.1,0.3 20.3,-8.5 20.5,-19.6 0.3,-11.1 -8.5,-20.3 -19.6,-20.6 z m -0.9,27.9 c -4.3,-0.1 -7.7,-3.6 -7.7,-7.9 0.1,-4.3 3.6,-7.8 7.9,-7.7 4.3,0.1 7.7,3.6 7.7,7.8 0,4.4 -3.6,7.9 -7.9,7.8 z"
         id="path1258"
         style="fill:#ffffff;fill-opacity:0.105085;stroke-width:12.1878" /><path
         d="m 153.4,328 c -0.1,5.1 -4.3,9.3 -9.4,9.2 0,0 0,0 0,0 h -29.6 c -25.2,0 -27,-23.8 -26.8,-32.7 0,-0.7 0.6,-1.3 1.4,-1.3 0.4,0 0.7,0.2 0.9,0.4 3.7,4 12.1,11.5 21.8,11.5 H 144 c 5.1,-0.1 9.3,4 9.4,9.2 0,0 0,0 0,0 z"
         id="path1260"
         style="fill:#ffffff;fill-opacity:0.105085;stroke-width:12.1878" /><path
         d="m 166.7,394.8 c 1.9,4.5 -0.3,9.7 -4.8,11.5 -0.1,0 -0.1,0.1 -0.2,0.1 l -21.4,8.6 c -13,5.2 -41.8,5.4 -44,1 -1.6,-3.3 18,-15.8 23,-17.8 l 26.5,-12 c 8.1,-3.3 17.4,0.5 20.9,8.6 z"
         id="path1262"
         style="fill:#ffffff;fill-opacity:0.105085;stroke-width:12.1878" /><path
         d="m 150.9,363.1 c 0,5.1 -4.2,9.2 -9.3,9.2 0,0 0,0 0,0 H 111 c -26.3,0 -28.8,-27.6 -28.4,-35.5 0,-0.4 0.3,-0.6 0.7,-0.6 0.2,0 0.4,0.1 0.5,0.3 2.6,4.1 9.7,13.9 20.1,13.9 h 37.7 c 5.1,-0.1 9.3,4 9.4,9.2 0,0 0,0 0,0 z"
         id="path1264"
         style="fill:#ffffff;fill-opacity:0.105085;stroke-width:12.1878" /><path
         d="m 180,411.4 9.8,5.3 c 3.1,1.7 4.3,5.6 2.6,8.8 -0.5,1 -1.4,1.9 -2.3,2.4 l -30,18.4 c -4.6,2.8 -9.6,1.3 -6.1,-6.3 2.6,-5.7 13.9,-20.1 19.1,-27.2 1.5,-2.1 4.5,-2.7 6.9,-1.4 z"
         id="path1266"
         style="fill:#ffffff;fill-opacity:0.105085;stroke-width:12.1878" /><path
         d="m 539.5,550.6 2.7,-1 c 9.7,-3.4 13.5,-12 9.7,-21.8 l -17.3,-41.7 c 0.2,0.7 2.6,8.4 -7.3,13.5 -9.3,4.8 -41.4,22.7 -48.1,26.4 -0.4,0.3 -0.6,0.8 -0.4,1.2 0.1,0.1 0.2,0.2 0.3,0.3 8.3,5.8 18.4,8.6 28.6,7.9 10.5,-0.8 16.1,-0.9 18.9,-0.9 1.5,0 2.7,1.2 2.7,2.8 0,0 0,0.1 0,0.1 -0.9,16.3 -27.6,18.2 -27.6,18.2 -49.4,0.8 -58.7,10.3 -58.7,10.3 l 7.6,18.7 c 0,0 14.4,-0.5 23,1.1 8.6,1.7 9.8,4.3 10.5,6.4 4.7,13.1 -85.1,50.5 -167.5,50.5 -82.4,0 -172.3,-37.4 -167.6,-50.5 0.8,-2.1 2,-4.7 10.6,-6.4 8.6,-1.7 23,-1.1 23,-1.1 l 7.6,-18.7 c 0,0 -9.3,-9.6 -58.7,-10.4 0,0 -26.7,-1.8 -27.6,-18.1 -0.1,-1.5 1.1,-2.8 2.6,-2.9 0.1,0 0.1,0 0.2,0 2.8,0 8.4,0.2 18.9,0.9 10.1,0.7 20.2,-2.1 28.6,-7.9 0.4,-0.3 0.5,-0.8 0.2,-1.2 -0.1,-0.1 -0.2,-0.2 -0.3,-0.3 -6.7,-3.7 -38.9,-21.7 -48.1,-26.4 -9.4,-4.9 -7.7,-12.1 -7.3,-13.4 l -17.3,41.6 c -3.8,9.8 0.1,18.4 9.7,21.8 l 2.7,1 -10.9,38 c -1.9,6.5 -0.5,10.8 5.4,14 l 14.8,7.8 c 9.3,4.9 20.2,5.5 30,1.8 l 1.4,-0.5 -6.3,44.3 c -0.7,4.4 1.4,8.8 5.2,11.3 21.3,13.2 95.3,53.4 183.3,53.4 88,0 162.1,-40.2 183.4,-53.4 3.8,-2.4 5.8,-6.8 5.2,-11.3 l -6.3,-44.3 1.3,0.5 c 9.8,3.7 20.7,3 30.1,-1.8 l 15.3,-7.9 c 5.9,-3.2 6.9,-6.8 5,-13.3 z m -306,135.6 c -0.1,2.4 -3.2,2.9 -9.3,1.2 -10.5,-2.9 -20.9,-6.3 -31.1,-10.3 -5.9,-2.2 -8.7,-4.7 -8.5,-7 0.9,-11.8 1.8,-23.6 2.7,-35.5 4,1.7 8.1,3.2 12.1,4.8 -0.7,10.1 -1.4,20.3 -2.1,30.4 7.8,2.9 15.7,5.5 23.7,7.8 0.6,-10.2 1.1,-20.4 1.7,-30.6 4.1,1.2 8.3,2.3 12.5,3.4 -0.5,11.9 -1.1,23.9 -1.7,35.8 z m 71.8,13.6 c -4.2,-0.1 -8.5,-0.4 -12.7,-0.7 -7.6,-8.8 -15.1,-17.9 -22.4,-27.3 0.6,1.3 0.9,2.3 0.8,3 -0.2,7.3 -0.4,14.7 -0.6,22 -4.7,-0.6 -9.3,-1.4 -14,-2.2 0.5,-13.2 0.9,-26.3 1.4,-39.5 4.1,0.7 8.2,1.4 12.3,1.9 7.3,9.2 14.7,18.1 22.2,26.8 -0.6,-1.3 -0.9,-2.3 -0.9,-2.9 0.1,-7.2 0.2,-14.4 0.3,-21.6 4.6,0.4 9.2,0.6 13.8,0.8 -0.1,13.3 -0.2,26.5 -0.2,39.7 z m 63.5,-3.7 c -9.8,1.5 -19.6,2.5 -29.4,3.2 -5.9,0.4 -8.9,-0.8 -8.9,-3.1 0,-3.1 -0.1,-6.3 -0.1,-9.4 4.9,-0.2 9.7,-0.5 14.6,-0.9 0,1.4 0,4.2 0,5.6 5.9,-0.5 11.9,-1.1 17.8,-1.9 0,-1.4 0,-4 0,-5.3 -9.8,-2.4 -19.6,-5.3 -29.3,-8.6 -2.1,-0.7 -3.2,-1.7 -3.2,-3 0,-2.9 0,-5.9 -0.1,-8.8 0,-2.4 2.9,-3.7 8.6,-4.1 9.6,-0.6 19.2,-1.7 28.8,-3.1 5.8,-0.9 8.7,-0.2 8.7,2.2 0.1,2.9 0.2,5.9 0.3,8.8 -4.8,0.9 -9.5,1.6 -14.3,2.2 0,-1.2 -0.1,-2.5 -0.1,-3.7 -5.9,0.8 -11.7,1.4 -17.6,1.9 0,1.1 0,2.3 0.1,3.4 9.7,3 19.4,5.5 29.2,7.6 2.1,0.5 3.2,1.3 3.2,2.7 0.1,3.1 0.2,6.3 0.3,9.4 0.2,2.3 -2.8,4 -8.6,4.9 z m 72,-19 c -10,3.8 -20.1,7.2 -30.3,10 -5.8,1.6 -8.8,1.1 -8.9,-1.3 -0.5,-10.7 -1,-21.4 -1.6,-32.2 -0.1,-2.4 2.7,-4.3 8.4,-5.9 10,-2.8 19.9,-6.1 29.6,-9.8 5.7,-2.2 8.6,-2.2 8.8,0.2 0.3,3.7 0.6,7.3 0.9,11 -4.7,1.9 -9.3,3.8 -14.1,5.5 -0.1,-2 -0.3,-3.9 -0.4,-5.9 -6.8,2.5 -13.6,4.7 -20.5,6.7 0.4,7.3 0.8,14.5 1.2,21.8 7,-2 13.9,-4.3 20.8,-6.8 -0.1,-2.1 -0.3,-4.3 -0.4,-6.4 4.7,-1.7 9.4,-3.6 14.1,-5.5 0.3,3.8 0.6,7.7 0.9,11.5 0.2,2.4 -2.6,4.9 -8.5,7.1 z"
         id="path1268"
         style="fill:#ffffff;fill-opacity:0.105085;stroke-width:12.1878" /><path
         d="m 211.2,430.6 14.2,6.5 c 2.5,1.1 3.7,4.1 2.6,6.6 -0.2,0.6 -0.6,1.1 -1,1.5 l -14.8,15 c -1.6,1.6 -4.3,1.7 -5.9,0 -0.8,-0.8 -1.2,-1.8 -1.2,-2.9 L 205,434.4 c 0,-2.4 2.1,-4.4 4.5,-4.4 0.5,0.2 1.1,0.4 1.7,0.6 z"
         id="path1270"
         style="fill:#ffffff;fill-opacity:0.105085;stroke-width:12.1878" /><path
         d="m 243.7,446.2 12.9,4.5 c 3.3,1.1 5.1,4.6 4,7.9 -0.5,1.5 -1.5,2.7 -2.8,3.5 l -11.9,7 c -2.1,1.3 -4.9,0.6 -6.1,-1.5 -0.4,-0.7 -0.6,-1.5 -0.6,-2.4 l 0.6,-16.3 c 0.1,-1.6 1.6,-2.9 3.2,-2.7 0.2,-0.1 0.4,-0.1 0.7,0 z"
         id="path1272"
         style="fill:#ffffff;fill-opacity:0.105085;stroke-width:12.1878" /><path
         d="m 512.2,261.3 c 0,0 0,0 0,0 -11.1,0.3 -19.9,9.5 -19.7,20.5 0.3,11.1 9.4,19.9 20.5,19.6 10.9,-0.2 19.6,-9.2 19.7,-20.1 -0.1,-11.1 -9.3,-20.1 -20.5,-20 z m 0,27.9 c -4.3,-0.1 -7.7,-3.6 -7.7,-7.9 0.1,-4.3 3.6,-7.8 7.9,-7.7 4.3,0.1 7.7,3.6 7.7,7.8 0,4.4 -3.6,7.9 -7.9,7.8 z"
         id="path1274"
         style="fill:#ffffff;fill-opacity:0.105085;stroke-width:12.1878" /><path
         d="m 480.5,328 c 0.1,5.1 4.3,9.3 9.4,9.2 h 29.6 c 25.2,0 27,-23.8 26.8,-32.7 0,-0.7 -0.6,-1.3 -1.4,-1.3 -0.3,0 -0.7,0.2 -0.9,0.4 -3.7,4 -12.1,11.5 -21.8,11.5 h -32.3 c -5.1,-0.1 -9.3,4.1 -9.4,9.2 0,0 0,0 0,0 z"
         id="path1276"
         style="fill:#ffffff;fill-opacity:0.105085;stroke-width:12.1878" /><path
         d="m 469.1,394.8 c -1.9,4.5 0.3,9.7 4.8,11.5 0.1,0 0.1,0.1 0.2,0.1 l 21.4,8.6 c 13,5.2 41.8,5.4 44,1 1.6,-3.3 -18,-15.8 -23,-17.8 l -26.5,-12 c -8.1,-3.2 -17.4,0.6 -20.9,8.6 z"
         id="path1278"
         style="fill:#ffffff;fill-opacity:0.105085;stroke-width:12.1878" /><path
         d="m 483,363.1 c 0,5.1 4.2,9.2 9.3,9.2 0,0 0,0 0,0 h 30.6 c 26.4,0 28.8,-27.6 28.5,-35.5 0,-0.4 -0.3,-0.6 -0.7,-0.6 -0.2,0 -0.4,0.1 -0.5,0.3 -2.6,4.1 -9.7,13.9 -20.1,13.9 h -37.7 c -5.1,-0.1 -9.3,4 -9.4,9.2 0,0 0,0 0,0 z"
         id="path1280"
         style="fill:#ffffff;fill-opacity:0.105085;stroke-width:12.1878" /><path
         d="m 453.8,411.4 -9.8,5.3 c -3.1,1.7 -4.3,5.6 -2.6,8.7 0.5,1 1.4,1.9 2.3,2.5 l 30,18.4 c 4.6,2.8 9.6,1.3 6.2,-6.3 -2.6,-5.7 -13.9,-20.1 -19.1,-27.2 -1.6,-2.1 -4.6,-2.7 -7,-1.4 z"
         id="path1282"
         style="fill:#ffffff;fill-opacity:0.105085;stroke-width:12.1878" /><path
         d="m 422.6,430.6 -14.2,6.5 c -2.5,1.1 -3.7,4.1 -2.5,6.7 0.2,0.5 0.6,1 1,1.5 l 14.8,15 c 1.6,1.6 4.3,1.7 5.9,0 0.8,-0.8 1.2,-1.8 1.2,-2.9 l 0.1,-22.9 c 0,-2.4 -2.1,-4.4 -4.5,-4.4 -0.6,0.1 -1.2,0.3 -1.8,0.5 z"
         id="path1284"
         style="fill:#ffffff;fill-opacity:0.105085;stroke-width:12.1878" /><path
         d="m 390.1,446.2 -12.9,4.5 c -3.3,1.1 -5.1,4.6 -4,7.9 0.5,1.5 1.5,2.7 2.8,3.5 l 11.9,7 c 2.1,1.3 4.8,0.6 6.1,-1.5 0.4,-0.7 0.7,-1.6 0.6,-2.4 L 394,448.9 c -0.1,-1.6 -1.6,-2.9 -3.2,-2.7 -0.2,-0.1 -0.4,-0.1 -0.7,0 z"
         id="path1286"
         style="fill:#ffffff;fill-opacity:0.105085;stroke-width:12.1878" /></g><g
       id="g1324"
       transform="matrix(0,0.08204914,-0.08204914,0,714.2332,85.06541)"
       style="fill:#ffffff;fill-opacity:0.105085;stroke-width:12.1878"><path
         d="m 455.9,178.4 c 21.4,-21.9 53.9,-54.4 72.2,-72.7 1.5,-1.5 2.4,-3.6 2.4,-5.8 l 0.3,-29.4 c 0,-2.7 -2.2,-5 -5,-5 -1.3,0 -2.6,0.5 -3.5,1.5 L 410.5,180.6 c -28.3,28.6 -50,72.3 -51.8,109.9 -1.8,37.6 3.2,85.7 15.2,82.9 14.1,-3.4 32.3,-26 44.9,-8.4 5.3,7.5 4.2,16.1 -5.3,23 -7.4,5.4 -23,9.8 -31.1,12.1 l -14.2,2.5 c -7.1,0 -13.3,-4 -22.2,-13.5 -8.9,-9.5 -9.4,-19.4 -9.4,-32 0.1,-12.5 -2.2,-17.5 -2.2,-17.5 10.6,0 12.4,-8.8 12.4,-8.8 h -46.6 c -8.7,0 -16.9,6.3 -16.9,14.6 v 11.3 l 7.1,0.3 c 5.2,0.2 7.6,5.1 6.5,10.1 -2.1,10.4 -7.5,19.8 -15.5,26.7 -6.2,5.6 -13.3,11 -30,6.2 -8,-2.3 -23.7,-6.8 -31.1,-12.1 -9.5,-6.9 -10.6,-15.5 -5.3,-23 12.6,-17.6 30.8,5 44.9,8.4 12.1,2.9 17,-45.3 15.3,-82.9 -1.8,-37.6 -23.5,-81.3 -51.8,-109.8 L 111.6,67 c -1.9,-1.9 -5.1,-1.9 -7,0 -0.9,0.9 -1.5,2.2 -1.5,3.5 l 0.2,29.4 c 0,2.2 0.9,4.3 2.4,5.8 18.3,18.3 50.7,50.8 72.2,72.7 31.3,32 60,54 67.2,106.2 7.2,52.2 -11.2,52.8 -11.2,52.8 0,0 6.9,-19.1 4.1,-38.8 -2.8,-19.7 -10.1,-55.1 -36.7,-81.5 -20.2,-20 -68.3,-68.5 -91.8,-92.2 -1.4,-1.4 -3.6,-1.3 -5,0.1 -0.6,0.7 -1,1.5 -1,2.4 l 0.2,27.6 c 0,4.9 2,7.5 5.4,11 11.4,11.4 23.3,23.5 32.6,33 25.8,26.4 59.3,54.4 66.5,97.7 5,29.6 -8.4,33.6 -8.4,33.6 0,0 1,-20 -1.2,-36.2 -2.3,-16.3 -16.8,-40.1 -38.7,-61.8 -10.7,-10.7 -31.1,-31.1 -49.5,-49.5 -1.4,-1.5 -3.8,-1.6 -5.3,-0.2 -0.8,0.8 -1.3,1.8 -1.2,3 l 0.2,26.6 c 0,3.4 1.3,6.6 3.6,9.2 l 38.3,41.7 c 16.1,17.2 24.3,28.7 24.3,52 0,0 -2.6,28.4 -4,45.2 -2,26.1 17.4,41.4 31.5,48.5 l 72.4,34.6 c 3.5,1.7 5.9,5 6.4,8.8 1,6.9 1.5,13.8 1.5,20.8 v 17.6 H 270 c -7.7,0 -11.2,3.7 -12,12 l -1.5,17.5 c -34,18.5 -57.9,51.1 -65.4,89.1 5,2 10.1,3.9 15.5,5.7 9.5,3.2 19.5,6.3 29.9,8.9 v -0.7 c 0.7,-9 8.2,-16 17.3,-16 h 164.6 c 4,0 7.5,2.9 8.2,6.8 l 0.2,1 c 5.3,-1.8 10.5,-3.7 15.5,-5.7 -7.4,-37.7 -31.1,-70.3 -64.9,-88.8 l -1.6,-17.8 c -0.9,-8.3 -4.3,-12 -12,-12 h -8.1 V 473 c -0.1,-7 0.4,-13.9 1.5,-20.8 0.6,-3.8 3,-7.1 6.5,-8.8 L 436,408.8 c 14,-7.2 33.4,-22.5 31.4,-48.5 -1.3,-16.8 -3.9,-45.2 -3.9,-45.2 0,-23.3 8.2,-34.8 24.3,-52.1 L 526,221.3 c 2.3,-2.5 3.6,-5.8 3.6,-9.2 l 0.2,-26.6 c 0,-2.1 -1.7,-3.8 -3.7,-3.8 -1,0 -2,0.4 -2.7,1.1 -18.3,18.4 -38.7,38.9 -49.5,49.5 -21.9,21.8 -36.5,45.5 -38.7,61.8 -2.3,16.3 -1.3,36.3 -1.3,36.3 0,0 -13.4,-4 -8.4,-33.6 7.2,-43.4 40.7,-71.3 66.5,-97.7 9.3,-9.6 21.3,-21.6 32.6,-33 3.4,-3.4 5.3,-6.1 5.4,-11 l 0.2,-27.6 c 0,-1.9 -1.6,-3.5 -3.5,-3.5 -0.9,0 -1.8,0.3 -2.4,1 -23.5,23.7 -71.6,72.2 -91.8,92.1 -26.6,26.4 -33.9,61.8 -36.7,81.5 -2.8,19.7 4.1,38.8 4.1,38.8 0,0 -18.4,-0.6 -11.2,-52.8 7.3,-52.2 36,-74.2 67.2,-106.2 z m -130.3,213 c 0.1,-0.2 0.3,-0.4 0.6,-0.4 0.2,0 0.4,0.2 0.5,0.4 5.6,20.5 19.1,26.6 25,28.4 0.7,0.2 1.1,0.9 0.9,1.6 -0.1,0.3 -0.3,0.5 -0.5,0.7 -2.3,1.5 -10.4,7 -17.7,12 -3.7,2.5 -8.7,-0.1 -8.7,-4.6 v -38.1 z m 0,68.5 c 0,-1.1 0.9,-2 2,-2 h 4.5 c 5.3,0 9.7,4.7 9.7,10.4 0,5.8 -4.4,10.4 -9.7,10.4 h -4.5 c -1.1,0 -2,-0.9 -2,-1.9 z M 300,341.6 c 0.4,-2.9 2.8,-2 7.9,-2 2.6,0 5.1,0 7.9,0 -0.3,0.4 -4.9,6.4 -10.1,6.4 -5.4,0 -5.8,-3.7 -5.7,-4.4 z M 405.7,566 v 0 c 6.7,8.9 12.1,18.7 15.9,29.2 0.6,1.8 -0.3,3.7 -2,4.3 -0.4,0.1 -0.8,0.2 -1.1,0.2 H 251.8 c -5,0 -9.1,-4.1 -9.1,-9.1 0,-0.9 0.2,-1.8 0.4,-2.7 2,-6.6 4.6,-13 7.7,-19.3 1.8,-3.6 5.4,-5.9 9.4,-5.9 h 139.2 c 2.4,0.2 4.8,1.3 6.3,3.3 z m -16.5,-17.6 v 0 c 1.7,1.4 1.9,4 0.5,5.8 -0.8,0.9 -1.9,1.4 -3.1,1.4 H 270.7 c -3.3,0 -6,-2.7 -6,-6 0,-1.5 0.5,-2.9 1.5,-4 9.3,-10.6 20.4,-18.2 32.6,-21.8 4,-1.2 8.1,-2 12.2,-2.3 h 0.1 c 1.2,-0.1 2.4,-0.1 3.6,-0.1 h 2 c 26.6,-0.1 52.4,9.5 72.5,27 z"
         id="path1290"
         style="fill:#ffffff;fill-opacity:0.105085;stroke-width:12.1878" /><path
         d="m 416.9,715.4 c -24.6,32.5 -62.4,48.7 -100.2,48.7 -37.8,0 -75.6,-16.3 -100.2,-48.7 32.2,10.5 66.2,15.8 100.2,15.8 34,0 68,-5.3 100.2,-15.8 z"
         id="path1292"
         style="fill:#ffffff;fill-opacity:0.105085;stroke-width:12.1878" /><path
         d="m 122.6,261.3 h -0.9 c -11.1,-0.2 -20.3,8.6 -20.5,19.7 -0.3,11.1 8.6,20.3 19.6,20.5 0.3,0 0.6,0 0.9,0 11.1,0.3 20.3,-8.5 20.5,-19.6 0.3,-11.1 -8.5,-20.3 -19.6,-20.6 z m -0.9,27.9 c -4.3,-0.1 -7.7,-3.6 -7.7,-7.9 0.1,-4.3 3.6,-7.8 7.9,-7.7 4.3,0.1 7.7,3.6 7.7,7.8 0,4.4 -3.6,7.9 -7.9,7.8 z"
         id="path1294"
         style="fill:#ffffff;fill-opacity:0.105085;stroke-width:12.1878" /><path
         d="m 153.4,328 c -0.1,5.1 -4.3,9.3 -9.4,9.2 0,0 0,0 0,0 h -29.6 c -25.2,0 -27,-23.8 -26.8,-32.7 0,-0.7 0.6,-1.3 1.4,-1.3 0.4,0 0.7,0.2 0.9,0.4 3.7,4 12.1,11.5 21.8,11.5 H 144 c 5.1,-0.1 9.3,4 9.4,9.2 0,0 0,0 0,0 z"
         id="path1296"
         style="fill:#ffffff;fill-opacity:0.105085;stroke-width:12.1878" /><path
         d="m 166.7,394.8 c 1.9,4.5 -0.3,9.7 -4.8,11.5 -0.1,0 -0.1,0.1 -0.2,0.1 l -21.4,8.6 c -13,5.2 -41.8,5.4 -44,1 -1.6,-3.3 18,-15.8 23,-17.8 l 26.5,-12 c 8.1,-3.3 17.4,0.5 20.9,8.6 z"
         id="path1298"
         style="fill:#ffffff;fill-opacity:0.105085;stroke-width:12.1878" /><path
         d="m 150.9,363.1 c 0,5.1 -4.2,9.2 -9.3,9.2 0,0 0,0 0,0 H 111 c -26.3,0 -28.8,-27.6 -28.4,-35.5 0,-0.4 0.3,-0.6 0.7,-0.6 0.2,0 0.4,0.1 0.5,0.3 2.6,4.1 9.7,13.9 20.1,13.9 h 37.7 c 5.1,-0.1 9.3,4 9.4,9.2 0,0 0,0 0,0 z"
         id="path1300"
         style="fill:#ffffff;fill-opacity:0.105085;stroke-width:12.1878" /><path
         d="m 180,411.4 9.8,5.3 c 3.1,1.7 4.3,5.6 2.6,8.8 -0.5,1 -1.4,1.9 -2.3,2.4 l -30,18.4 c -4.6,2.8 -9.6,1.3 -6.1,-6.3 2.6,-5.7 13.9,-20.1 19.1,-27.2 1.5,-2.1 4.5,-2.7 6.9,-1.4 z"
         id="path1302"
         style="fill:#ffffff;fill-opacity:0.105085;stroke-width:12.1878" /><path
         d="m 539.5,550.6 2.7,-1 c 9.7,-3.4 13.5,-12 9.7,-21.8 l -17.3,-41.7 c 0.2,0.7 2.6,8.4 -7.3,13.5 -9.3,4.8 -41.4,22.7 -48.1,26.4 -0.4,0.3 -0.6,0.8 -0.4,1.2 0.1,0.1 0.2,0.2 0.3,0.3 8.3,5.8 18.4,8.6 28.6,7.9 10.5,-0.8 16.1,-0.9 18.9,-0.9 1.5,0 2.7,1.2 2.7,2.8 0,0 0,0.1 0,0.1 -0.9,16.3 -27.6,18.2 -27.6,18.2 -49.4,0.8 -58.7,10.3 -58.7,10.3 l 7.6,18.7 c 0,0 14.4,-0.5 23,1.1 8.6,1.7 9.8,4.3 10.5,6.4 4.7,13.1 -85.1,50.5 -167.5,50.5 -82.4,0 -172.3,-37.4 -167.6,-50.5 0.8,-2.1 2,-4.7 10.6,-6.4 8.6,-1.7 23,-1.1 23,-1.1 l 7.6,-18.7 c 0,0 -9.3,-9.6 -58.7,-10.4 0,0 -26.7,-1.8 -27.6,-18.1 -0.1,-1.5 1.1,-2.8 2.6,-2.9 0.1,0 0.1,0 0.2,0 2.8,0 8.4,0.2 18.9,0.9 10.1,0.7 20.2,-2.1 28.6,-7.9 0.4,-0.3 0.5,-0.8 0.2,-1.2 -0.1,-0.1 -0.2,-0.2 -0.3,-0.3 -6.7,-3.7 -38.9,-21.7 -48.1,-26.4 -9.4,-4.9 -7.7,-12.1 -7.3,-13.4 l -17.3,41.6 c -3.8,9.8 0.1,18.4 9.7,21.8 l 2.7,1 -10.9,38 c -1.9,6.5 -0.5,10.8 5.4,14 l 14.8,7.8 c 9.3,4.9 20.2,5.5 30,1.8 l 1.4,-0.5 -6.3,44.3 c -0.7,4.4 1.4,8.8 5.2,11.3 21.3,13.2 95.3,53.4 183.3,53.4 88,0 162.1,-40.2 183.4,-53.4 3.8,-2.4 5.8,-6.8 5.2,-11.3 l -6.3,-44.3 1.3,0.5 c 9.8,3.7 20.7,3 30.1,-1.8 l 15.3,-7.9 c 5.9,-3.2 6.9,-6.8 5,-13.3 z m -306,135.6 c -0.1,2.4 -3.2,2.9 -9.3,1.2 -10.5,-2.9 -20.9,-6.3 -31.1,-10.3 -5.9,-2.2 -8.7,-4.7 -8.5,-7 0.9,-11.8 1.8,-23.6 2.7,-35.5 4,1.7 8.1,3.2 12.1,4.8 -0.7,10.1 -1.4,20.3 -2.1,30.4 7.8,2.9 15.7,5.5 23.7,7.8 0.6,-10.2 1.1,-20.4 1.7,-30.6 4.1,1.2 8.3,2.3 12.5,3.4 -0.5,11.9 -1.1,23.9 -1.7,35.8 z m 71.8,13.6 c -4.2,-0.1 -8.5,-0.4 -12.7,-0.7 -7.6,-8.8 -15.1,-17.9 -22.4,-27.3 0.6,1.3 0.9,2.3 0.8,3 -0.2,7.3 -0.4,14.7 -0.6,22 -4.7,-0.6 -9.3,-1.4 -14,-2.2 0.5,-13.2 0.9,-26.3 1.4,-39.5 4.1,0.7 8.2,1.4 12.3,1.9 7.3,9.2 14.7,18.1 22.2,26.8 -0.6,-1.3 -0.9,-2.3 -0.9,-2.9 0.1,-7.2 0.2,-14.4 0.3,-21.6 4.6,0.4 9.2,0.6 13.8,0.8 -0.1,13.3 -0.2,26.5 -0.2,39.7 z m 63.5,-3.7 c -9.8,1.5 -19.6,2.5 -29.4,3.2 -5.9,0.4 -8.9,-0.8 -8.9,-3.1 0,-3.1 -0.1,-6.3 -0.1,-9.4 4.9,-0.2 9.7,-0.5 14.6,-0.9 0,1.4 0,4.2 0,5.6 5.9,-0.5 11.9,-1.1 17.8,-1.9 0,-1.4 0,-4 0,-5.3 -9.8,-2.4 -19.6,-5.3 -29.3,-8.6 -2.1,-0.7 -3.2,-1.7 -3.2,-3 0,-2.9 0,-5.9 -0.1,-8.8 0,-2.4 2.9,-3.7 8.6,-4.1 9.6,-0.6 19.2,-1.7 28.8,-3.1 5.8,-0.9 8.7,-0.2 8.7,2.2 0.1,2.9 0.2,5.9 0.3,8.8 -4.8,0.9 -9.5,1.6 -14.3,2.2 0,-1.2 -0.1,-2.5 -0.1,-3.7 -5.9,0.8 -11.7,1.4 -17.6,1.9 0,1.1 0,2.3 0.1,3.4 9.7,3 19.4,5.5 29.2,7.6 2.1,0.5 3.2,1.3 3.2,2.7 0.1,3.1 0.2,6.3 0.3,9.4 0.2,2.3 -2.8,4 -8.6,4.9 z m 72,-19 c -10,3.8 -20.1,7.2 -30.3,10 -5.8,1.6 -8.8,1.1 -8.9,-1.3 -0.5,-10.7 -1,-21.4 -1.6,-32.2 -0.1,-2.4 2.7,-4.3 8.4,-5.9 10,-2.8 19.9,-6.1 29.6,-9.8 5.7,-2.2 8.6,-2.2 8.8,0.2 0.3,3.7 0.6,7.3 0.9,11 -4.7,1.9 -9.3,3.8 -14.1,5.5 -0.1,-2 -0.3,-3.9 -0.4,-5.9 -6.8,2.5 -13.6,4.7 -20.5,6.7 0.4,7.3 0.8,14.5 1.2,21.8 7,-2 13.9,-4.3 20.8,-6.8 -0.1,-2.1 -0.3,-4.3 -0.4,-6.4 4.7,-1.7 9.4,-3.6 14.1,-5.5 0.3,3.8 0.6,7.7 0.9,11.5 0.2,2.4 -2.6,4.9 -8.5,7.1 z"
         id="path1304"
         style="fill:#ffffff;fill-opacity:0.105085;stroke-width:12.1878" /><path
         d="m 211.2,430.6 14.2,6.5 c 2.5,1.1 3.7,4.1 2.6,6.6 -0.2,0.6 -0.6,1.1 -1,1.5 l -14.8,15 c -1.6,1.6 -4.3,1.7 -5.9,0 -0.8,-0.8 -1.2,-1.8 -1.2,-2.9 L 205,434.4 c 0,-2.4 2.1,-4.4 4.5,-4.4 0.5,0.2 1.1,0.4 1.7,0.6 z"
         id="path1306"
         style="fill:#ffffff;fill-opacity:0.105085;stroke-width:12.1878" /><path
         d="m 243.7,446.2 12.9,4.5 c 3.3,1.1 5.1,4.6 4,7.9 -0.5,1.5 -1.5,2.7 -2.8,3.5 l -11.9,7 c -2.1,1.3 -4.9,0.6 -6.1,-1.5 -0.4,-0.7 -0.6,-1.5 -0.6,-2.4 l 0.6,-16.3 c 0.1,-1.6 1.6,-2.9 3.2,-2.7 0.2,-0.1 0.4,-0.1 0.7,0 z"
         id="path1308"
         style="fill:#ffffff;fill-opacity:0.105085;stroke-width:12.1878" /><path
         d="m 512.2,261.3 c 0,0 0,0 0,0 -11.1,0.3 -19.9,9.5 -19.7,20.5 0.3,11.1 9.4,19.9 20.5,19.6 10.9,-0.2 19.6,-9.2 19.7,-20.1 -0.1,-11.1 -9.3,-20.1 -20.5,-20 z m 0,27.9 c -4.3,-0.1 -7.7,-3.6 -7.7,-7.9 0.1,-4.3 3.6,-7.8 7.9,-7.7 4.3,0.1 7.7,3.6 7.7,7.8 0,4.4 -3.6,7.9 -7.9,7.8 z"
         id="path1310"
         style="fill:#ffffff;fill-opacity:0.105085;stroke-width:12.1878" /><path
         d="m 480.5,328 c 0.1,5.1 4.3,9.3 9.4,9.2 h 29.6 c 25.2,0 27,-23.8 26.8,-32.7 0,-0.7 -0.6,-1.3 -1.4,-1.3 -0.3,0 -0.7,0.2 -0.9,0.4 -3.7,4 -12.1,11.5 -21.8,11.5 h -32.3 c -5.1,-0.1 -9.3,4.1 -9.4,9.2 0,0 0,0 0,0 z"
         id="path1312"
         style="fill:#ffffff;fill-opacity:0.105085;stroke-width:12.1878" /><path
         d="m 469.1,394.8 c -1.9,4.5 0.3,9.7 4.8,11.5 0.1,0 0.1,0.1 0.2,0.1 l 21.4,8.6 c 13,5.2 41.8,5.4 44,1 1.6,-3.3 -18,-15.8 -23,-17.8 l -26.5,-12 c -8.1,-3.2 -17.4,0.6 -20.9,8.6 z"
         id="path1314"
         style="fill:#ffffff;fill-opacity:0.105085;stroke-width:12.1878" /><path
         d="m 483,363.1 c 0,5.1 4.2,9.2 9.3,9.2 0,0 0,0 0,0 h 30.6 c 26.4,0 28.8,-27.6 28.5,-35.5 0,-0.4 -0.3,-0.6 -0.7,-0.6 -0.2,0 -0.4,0.1 -0.5,0.3 -2.6,4.1 -9.7,13.9 -20.1,13.9 h -37.7 c -5.1,-0.1 -9.3,4 -9.4,9.2 0,0 0,0 0,0 z"
         id="path1316"
         style="fill:#ffffff;fill-opacity:0.105085;stroke-width:12.1878" /><path
         d="m 453.8,411.4 -9.8,5.3 c -3.1,1.7 -4.3,5.6 -2.6,8.7 0.5,1 1.4,1.9 2.3,2.5 l 30,18.4 c 4.6,2.8 9.6,1.3 6.2,-6.3 -2.6,-5.7 -13.9,-20.1 -19.1,-27.2 -1.6,-2.1 -4.6,-2.7 -7,-1.4 z"
         id="path1318"
         style="fill:#ffffff;fill-opacity:0.105085;stroke-width:12.1878" /><path
         d="m 422.6,430.6 -14.2,6.5 c -2.5,1.1 -3.7,4.1 -2.5,6.7 0.2,0.5 0.6,1 1,1.5 l 14.8,15 c 1.6,1.6 4.3,1.7 5.9,0 0.8,-0.8 1.2,-1.8 1.2,-2.9 l 0.1,-22.9 c 0,-2.4 -2.1,-4.4 -4.5,-4.4 -0.6,0.1 -1.2,0.3 -1.8,0.5 z"
         id="path1320"
         style="fill:#ffffff;fill-opacity:0.105085;stroke-width:12.1878" /><path
         d="m 390.1,446.2 -12.9,4.5 c -3.3,1.1 -5.1,4.6 -4,7.9 0.5,1.5 1.5,2.7 2.8,3.5 l 11.9,7 c 2.1,1.3 4.8,0.6 6.1,-1.5 0.4,-0.7 0.7,-1.6 0.6,-2.4 L 394,448.9 c -0.1,-1.6 -1.6,-2.9 -3.2,-2.7 -0.2,-0.1 -0.4,-0.1 -0.7,0 z"
         id="path1322"
         style="fill:#ffffff;fill-opacity:0.105085;stroke-width:12.1878" /></g></g><g
     inkscape:groupmode="layer"
     id="layer1"
     inkscape:label="Content" /></svg>
