<?xml version="1.0" encoding="UTF-8" standalone="no"?>
<!-- Created with Inkscape (http://www.inkscape.org/) -->

<svg
   width="92.550781mm"
   height="134.57158mm"
   viewBox="0 0 92.550781 134.57158"
   version="1.1"
   id="svg5"
   xml:space="preserve"
   inkscape:version="1.2.1 (9c6d41e410, 2022-07-14)"
   sodipodi:docname="outlaw.svg"
   inkscape:export-filename="valkyrie.png"
   inkscape:export-xdpi="283.12"
   inkscape:export-ydpi="283.12"
   xmlns:inkscape="http://www.inkscape.org/namespaces/inkscape"
   xmlns:sodipodi="http://sodipodi.sourceforge.net/DTD/sodipodi-0.dtd"
   xmlns="http://www.w3.org/2000/svg"
   xmlns:svg="http://www.w3.org/2000/svg"><sodipodi:namedview
     id="namedview7"
     pagecolor="#505050"
     bordercolor="#eeeeee"
     borderopacity="1"
     inkscape:showpageshadow="0"
     inkscape:pageopacity="0"
     inkscape:pagecheckerboard="0"
     inkscape:deskcolor="#505050"
     inkscape:document-units="mm"
     showgrid="false"
     inkscape:zoom="1.7852694"
     inkscape:cx="10.362582"
     inkscape:cy="239.17959"
     inkscape:window-width="2560"
     inkscape:window-height="1387"
     inkscape:window-x="1912"
     inkscape:window-y="892"
     inkscape:window-maximized="1"
     inkscape:current-layer="layer1" /><defs
     id="defs2" /><g
     inkscape:label="Layer 1"
     inkscape:groupmode="layer"
     id="layer1"
     transform="translate(-250.7819,-154.9774)"><path
       id="path416"
       style="fill:#112b00;fill-opacity:1;stroke:none;stroke-width:1"
       d="m 311.09036,154.97792 c -0.67118,-0.009 -1.32304,0.0589 -1.7141,0.36638 -1.12816,0.88667 -1.02911,4.96413 -1.21802,6.34277 -0.70167,5.11848 -1.40552,10.24494 -2.22467,15.34583 -0.22331,1.38959 -0.0602,4.36787 -1.10897,5.39709 -0.80854,0.79375 -2.77453,0.42374 -3.81011,0.42374 -3.4848,0 -7.11179,0.29246 -10.58178,-0.0155 -2.38495,-0.2114 -2.10316,-4.76869 -2.40347,-6.59908 -0.77867,-4.7445 -1.3978,-9.5254 -2.06137,-14.2875 -0.25294,-1.8157 -0.13013,-4.63906 -0.98392,-6.26577 -0.50958,-0.97111 -2.38102,-0.6134 -3.28404,-0.6134 h -9.78958 c -0.42067,5.28546 -2.03616,10.65995 -3.01326,15.875 -1.76264,9.40777 -3.34474,18.8524 -4.81159,28.31042 -1.34832,8.69443 -2.4061,17.44349 -3.24218,26.19375 -0.39635,4.1476 0.047,8.61151 -0.6134,12.69535 -0.26432,1.63512 -2.41525,1.95851 -3.66541,2.62155 -2.22593,1.18029 -4.5312,2.85918 -5.41104,5.3206 -2.19865,6.14997 6.02424,7.04824 7.17941,11.64167 0.23019,0.91546 0.50933,2.81412 0.21963,3.70416 -0.49636,1.5253 -2.1843,2.71093 -1.52601,4.49792 0.55562,1.50813 2.33836,2.8795 3.50676,3.92276 3.12817,2.7932 6.55322,5.32921 9.78959,8.00468 4.8183,3.98328 10.57118,9.11136 16.66875,10.94042 3.55121,1.06521 7.95712,0.68032 11.64166,0.68006 2.89322,-2.6e-4 6.53389,0.12917 9.26042,-0.91726 6.3952,-2.45454 12.26264,-7.65021 17.4625,-11.9817 3.57847,-2.98102 9.41246,-6.21774 11.66905,-10.38438 0.89799,-1.65839 -0.72002,-3.08953 -1.341,-4.49791 -0.4363,-0.98928 -0.22751,-3.52747 0.26303,-4.49689 1.69016,-3.34034 6.61585,-4.29445 7.31274,-8.4677 0.62256,-3.72902 -2.88951,-6.41052 -5.73299,-7.97315 -1.23746,-0.67998 -3.40216,-0.99055 -3.66489,-2.61483 -0.67389,-4.16743 -0.20885,-8.72663 -0.6134,-12.95993 -0.87921,-9.20243 -2.11842,-18.36716 -3.46645,-27.51667 -1.32898,-9.02252 -2.91128,-18.03351 -4.63848,-26.9875 -0.98663,-5.11422 -2.5496,-10.42233 -2.96261,-15.61042 h -9.26042 c -0.46884,0 -1.1592,-0.0857 -1.83038,-0.0946 z m -13.85032,35.61774 1.3932,0.18707 c 1.62288,0.21818 1.94087,0.4224 2.18126,1.3994 0.26353,1.07111 1.40805,2.92123 2.6355,4.2602 1.1553,1.26029 2.9792,2.69493 3.42615,2.69493 0.14781,0 -0.38634,-0.46949 -1.18701,-1.04283 -2.05575,-1.47209 -4.73408,-5.15693 -4.73408,-6.5133 0,-0.37257 0.0961,-0.37242 0.99529,0.001 2.56041,1.06339 3.67538,2.28572 5.0338,5.51956 0.37819,0.90032 1.02707,2.37093 1.44229,3.2675 0.41521,0.89655 0.75499,1.75287 0.75499,1.90324 0,0.15039 0.30436,0.63524 0.67645,1.07745 l 0.67696,0.80409 -1.00872,0.66714 c -1.39127,0.92069 -3.75052,1.69219 -6.58048,2.15181 v 5.1e-4 c -1.31354,0.21334 -3.1346,0.38802 -4.04678,0.38861 l -1.65882,0.001 v -8.38346 z m -0.98753,0.15762 c 0.1079,0.007 0.18866,0.023 0.23254,0.0501 0.12351,0.0763 0.22428,3.83355 0.22428,8.34936 v 8.21035 l -2.18902,-0.0238 c -3.7722,-0.041 -8.26212,-1.11286 -10.20661,-2.43654 -0.94218,-0.64138 -1.07294,-1.02309 -0.51056,-1.48983 0.19887,-0.16505 1.18381,-2.16715 2.18901,-4.44883 1.16888,-2.6532 2.18734,-4.55694 2.82567,-5.28236 1.31005,-1.35872 5.41416,-3.00268 7.43469,-2.9285 z m -20.6189,1.02319 c 0.3006,-0.0281 0.30797,0.37826 -0.17622,1.16169 -0.35973,0.58205 -0.62118,1.54192 -0.70538,2.59208 -0.19295,2.40363 0.73386,4.37395 3.11454,6.61976 2.20306,2.07824 3.87186,3.04093 7.37268,4.25452 3.02967,1.05027 4.55671,1.35769 9.18807,1.8495 2.76866,0.29401 3.65363,0.27746 7.18715,-0.1354 6.68149,-0.78069 11.55796,-2.69074 14.84768,-5.81566 2.54463,-2.41714 3.46268,-4.32184 3.26595,-6.77272 -0.0843,-1.05016 -0.34515,-2.01003 -0.70487,-2.59208 -0.40906,-0.66187 -0.4833,-0.97841 -0.262,-1.11518 0.68419,-0.42284 4.53628,4.99993 5.97483,8.41085 2.02734,4.80702 1.25008,9.71117 -0.42478,14.60297 -1.23276,3.60055 -2.04515,7.24447 -4.82658,10.15366 l -2.30167,2.40761 -1.21439,-1.18339 c -0.66789,-0.65067 -1.2144,-1.31592 -1.2144,-1.47847 0,-0.16254 0.96417,-1.82273 2.14251,-3.68918 1.17834,-1.86643 2.21276,-3.57649 2.29856,-3.80028 0.0997,-0.25968 -0.16452,-0.66841 -0.72967,-1.12965 l -0.88522,-0.72243 3.25665,-5.2555 3.25665,-5.25549 -0.62322,-0.47956 c -0.71761,-0.55196 -1.02061,-0.61173 -1.02061,-0.20205 0,0.24976 -2.27345,3.89323 -10.04331,16.09721 -0.95243,1.49598 -1.87411,2.72024 -2.04794,2.72024 -0.17383,0 -0.45542,-0.16833 -0.6258,-0.37362 -0.24857,-0.2995 0.89099,-2.25304 5.76606,-9.88467 3.34174,-5.23131 6.0148,-9.62026 5.9402,-9.75341 -0.21049,-0.37577 -0.80286,0.47406 -5.55986,7.97213 -2.44177,3.84873 -4.57901,6.9975 -4.74958,6.9975 -0.17058,0 -0.66458,-0.57577 -1.09761,-1.2795 -0.43301,-0.70374 -1.27225,-1.66373 -1.865,-2.13321 -1.53151,-1.21297 -4.65876,-2.57708 -6.70295,-2.92437 -2.41007,-0.40937 -6.91551,-0.36364 -9.0656,0.092 -3.52839,0.74772 -6.64229,2.70955 -8.01347,5.0493 -0.38547,0.65777 -0.84483,1.19421 -1.02112,1.19321 -0.17629,-0.001 -2.46977,-3.40148 -5.09685,-7.55561 -4.19068,-6.62659 -5.31127,-8.17533 -5.18159,-7.16287 0.0182,0.1423 2.73284,4.48614 6.03219,9.65264 5.62471,8.80778 5.96773,9.41605 5.50354,9.75548 -0.2723,0.19908 -0.58727,0.33037 -0.70022,0.29197 -0.11295,-0.0385 -2.84848,-4.24327 -6.0787,-9.34413 -5.02539,-7.93564 -5.82925,-9.34418 -5.56917,-9.76065 0.2316,-0.37086 0.0494,-0.31852 -0.76533,0.22066 -0.5881,0.38919 -1.06918,0.75162 -1.06918,0.80512 0,0.0535 1.38072,2.31571 3.06803,5.02708 1.6873,2.71137 3.12754,5.08605 3.20084,5.2772 0.0733,0.19115 -0.23243,0.60818 -0.67955,0.92656 -0.44711,0.31837 -0.81287,0.70382 -0.81287,0.85679 0,0.15297 1.01511,1.87968 2.25568,3.83698 1.24056,1.95728 2.25567,3.70974 2.25567,3.89433 0,0.1846 -0.5121,0.83793 -1.13791,1.45211 -0.62581,0.6142 -1.20916,1.11673 -1.29656,1.11673 -0.0873,0 -1.15748,-1.054 -2.37815,-2.34249 -8.99272,-9.49236 -9.15755,-22.13291 -0.42065,-32.2647 0.49559,-0.57472 0.9067,-0.85976 1.1405,-0.8816 z m 1.93632,24.60883 c 0.30736,0 4.33264,6.51937 4.37854,7.09156 0.0934,1.16415 -0.74661,0.28079 -2.72438,-2.86443 -1.96927,-3.13168 -2.39807,-4.22713 -1.65416,-4.22713 z m 39.34643,0 c 0.76713,0 0.33707,1.11348 -1.63814,4.24057 -1.20029,1.90026 -2.27968,3.45509 -2.39882,3.45509 -0.64461,0 -0.43628,-0.77997 0.69711,-2.60605 0.69573,-1.12092 1.67745,-2.72438 2.18127,-3.5636 0.50381,-0.8392 1.02511,-1.52601 1.15858,-1.52601 z m -24.54992,1.55236 c 0.46973,0.007 0.90675,0.0526 1.27176,0.14418 0.97835,0.24555 0.84229,0.91761 -0.28112,1.387 -1.88367,0.78704 -5.66994,0.687 -5.66994,-0.14987 0,-0.72584 2.64379,-1.41173 4.6793,-1.38131 z m 10.94197,0.0315 c 0.84951,0.009 1.72726,0.11754 2.42362,0.35501 1.13328,0.38646 1.28291,1.25581 0.2651,1.53893 -1.55766,0.43328 -4.90399,-0.0432 -5.65495,-0.80512 -0.63526,-0.64452 1.09729,-1.1085 2.96623,-1.08882 z m -6.04511,1.96525 c 0.32036,0.0281 0.67984,0.18714 1.35909,0.50126 0.77224,0.35713 2.12257,1.19293 3.00085,1.85777 1.54738,1.17137 3.84318,3.62714 3.84318,4.11086 0,0.13082 -0.30867,0.52725 -0.68575,0.88108 l -0.68523,0.64337 -2.22312,-2.38848 c -1.22254,-1.31354 -2.22746,-2.28836 -2.23346,-2.16628 -0.006,0.12209 0.82486,1.43846 1.84589,2.92489 1.75452,2.55425 1.84248,2.75163 1.59835,3.60288 -0.35118,1.22447 -0.11262,2.03527 1.05833,3.59926 1.47931,1.97588 1.71762,2.51533 1.28468,2.90525 -0.25384,0.22861 -4.75357,3.15003 -5.71335,3.70934 -0.0266,0.0155 0.0537,0.84971 0.17828,1.85415 0.27121,2.18687 -0.34193,5.01995 -1.54822,7.15512 -0.41364,0.73217 -0.87269,1.37128 -1.02061,1.42058 -0.48815,0.16272 -2.13094,-1.95522 -2.70371,-3.48609 -0.6726,-1.79767 -0.72432,-3.90825 -0.13849,-5.63377 0.49923,-1.47041 0.65087,-1.29677 -3.14296,-3.59771 -1.27654,-0.77421 -2.32181,-1.57051 -2.32234,-1.7694 -5e-4,-0.1989 0.53775,-1.07745 1.19579,-1.95285 1.41904,-1.88774 1.63843,-2.5984 1.24695,-4.038 -0.27632,-1.01615 -0.23981,-1.15833 0.64079,-2.49494 0.51357,-0.77949 1.35261,-2.09274 1.86448,-2.91868 l 0.9307,-1.50172 -1.01596,1.07746 c -0.55867,0.5927 -1.55386,1.71416 -2.21175,2.49183 l -1.19631,1.41387 -0.86041,-0.72399 c -0.47322,-0.39819 -0.86042,-0.82837 -0.86042,-0.95601 0,-0.12763 0.74293,-1.026 1.65055,-1.99626 1.77528,-1.89777 4.01008,-3.54892 5.74125,-4.2416 0.52164,-0.20872 0.80256,-0.31131 1.12293,-0.28319 z m -11.73417,3.6158 c 0.14014,0 0.73087,0.82619 1.3131,1.83606 1.73723,3.01302 1.73554,4.4237 -0.003,2.75797 -0.80371,-0.76999 -0.87673,-0.67509 -0.49816,0.64493 0.35521,1.23852 -0.11913,1.35244 -1.23765,0.29714 -0.69738,-0.65802 -0.89544,-0.75313 -0.75448,-0.36174 0.10513,0.2919 0.25748,0.85954 0.33848,1.26091 0.32151,1.59311 -1.27992,0.41857 -3.0794,-2.25826 -0.46686,-0.69448 -0.7816,-1.3712 -0.6997,-1.50379 0.18952,-0.30664 4.28042,-2.67322 4.62091,-2.67322 z m 23.35516,0.009 c 0.0906,0.005 0.76164,0.3572 1.49139,0.78341 0.72975,0.42622 1.71697,0.97451 2.19366,1.21801 0.47669,0.24349 0.92869,0.54283 1.00459,0.6656 0.20011,0.32379 -1.09522,2.31821 -2.35541,3.62665 -0.59742,0.62029 -1.19601,1.12758 -1.33067,1.12758 -0.24993,0 -0.11191,-1.29919 0.23978,-2.25568 0.1411,-0.38379 -0.0733,-0.27719 -0.77411,0.38447 -1.1667,1.10143 -1.61568,0.86567 -1.11156,-0.58342 0.1904,-0.54731 0.29577,-0.99477 0.23357,-0.99477 -0.0621,0 -0.43538,0.29813 -0.82889,0.663 -0.99816,0.92555 -1.47274,0.87484 -1.25108,-0.13435 0.18714,-0.85204 2.21284,-4.5151 2.48873,-4.5005 z m 4.18166,9.4573 c 0.16635,0.007 0.3224,0.0485 0.52452,0.094 1.52862,0.34476 2.22518,0.95282 2.22518,1.94303 0,0.7573 -0.23205,1.06475 -1.70945,2.26343 -1.86908,1.51647 -3.33262,3.06689 -3.33262,3.53105 0,0.16277 0.35038,-0.1876 0.77825,-0.77824 0.98099,-1.35421 2.48102,-2.51184 2.99775,-2.31356 0.86853,0.33329 1.09169,1.30568 0.62322,2.71611 -0.57032,1.71706 -2.05508,4.1779 -3.28766,5.44877 -0.91538,0.94384 -5.15395,3.9583 -11.77654,8.37623 -1.56032,1.04088 -2.8741,1.89026 -2.9192,1.88826 -0.28787,-0.0147 -2.33326,-1.49967 -2.33526,-1.69499 -10e-4,-0.13196 0.72543,-0.89885 1.61489,-1.70377 2.99237,-2.70794 4.21997,-5.4822 4.22197,-9.53947 l 0.001,-2.58124 5.04517,-3.31711 c 5.69397,-3.74358 6.60792,-4.36241 7.32875,-4.33255 z m -32.3665,0.0884 c 1.10463,-0.004 2.66398,0.96827 6.94583,3.80131 l 5.74745,3.80236 0.0134,2.5001 c 0.0171,3.0731 0.56979,4.76757 2.1394,6.56187 0.61692,0.70523 1.0379,1.39288 0.93586,1.52859 -0.10204,0.13572 -0.78235,0.81341 -1.51205,1.50586 l -1.32653,1.25935 -3.44217,-2.32957 c -7.1962,-4.8699 -8.03717,-5.57202 -9.69605,-8.09977 -1.82345,-2.77851 -2.253,-5.10788 -1.05988,-5.74642 0.40233,-0.21533 0.69236,-0.12862 1.39009,0.41548 0.48492,0.37813 0.13445,-0.0105 -0.77876,-0.86351 -1.38322,-1.29201 -1.6603,-1.6952 -1.6583,-2.41691 10e-4,-0.69163 0.17551,-0.97237 0.86403,-1.39216 0.52727,-0.32148 0.93554,-0.52493 1.43764,-0.52658 z m -20.69537,7.95737 c 0.14922,7.01063 7.49758,7.63769 11.61737,11.21327 0.88397,0.7673 3.17619,4.17931 1.52704,5.17229 -1.48696,0.89535 -5.34476,-1.72896 -7.059,-1.91099 -2.34286,-0.24898 -3.58247,1.78408 -5.29166,2.98793 -1.99944,-4.5458 -12.76608,-8.56172 -6.86832,-14.2627 0.70935,-0.68554 1.52559,-1.21557 2.3704,-1.71669 1.16523,-0.69109 2.36566,-1.25266 3.70417,-1.48311 z m 74.34791,0 c 1.39356,0.74216 2.88399,1.2283 4.23334,2.06809 0.73502,0.45746 1.43362,0.95637 1.96938,1.64693 4.54925,5.86498 -6.61281,9.03023 -7.52563,13.74748 -1.88169,-1.51685 -3.0906,-3.5333 -5.82084,-3.13935 -1.54543,0.22302 -5.39288,2.75639 -6.71948,1.76527 -1.52795,-1.14221 0.80817,-4.379 1.70325,-5.15317 2.90248,-2.50931 6.98663,-2.71255 9.73274,-5.65392 1.58618,-1.69889 1.59962,-3.32738 2.42724,-5.28133 z m -6.68744,15.62747 c 0.66191,-3.9e-4 1.3064,0.14158 1.92494,0.51211 l -7.67291,4.7625 -1.5875,-3.70417 c 2.38847,0.25237 4.97152,-1.56904 7.33547,-1.57044 z m -63.42714,0.51211 8.99583,1.32292 -1.32291,3.70416 c -2.49342,-0.57201 -6.11823,-3.01281 -7.67292,-5.02708 z m 66.41042,0.52917 c 1.31047,1.51474 5.06445,5.52954 4.72684,7.67291 -0.23468,1.49064 -2.33157,2.79136 -3.40393,3.68298 -3.77186,3.13611 -7.93143,5.55083 -12.43541,7.46932 -14.34089,6.10814 -31.78023,5.68475 -46.0375,-0.41703 -4.22697,-1.80922 -8.47992,-4.25692 -11.90625,-7.34064 -0.92073,-0.82841 -3.01679,-2.32597 -3.10834,-3.65921 -0.14128,-2.05925 3.06177,-5.25465 4.16667,-6.87917 2.08677,0.80272 3.87324,2.47683 5.82083,3.59152 3.17818,1.81899 6.57516,3.29905 10.05417,4.43332 12.65736,4.1264 26.49065,3.96149 38.89375,-0.99994 4.81829,-1.92749 8.92892,-4.72143 13.22917,-7.55406 z"
       sodipodi:nodetypes="cccccsccccsccccccccccccccccccccccccccsccsccscscssscccccccccsssccssscccssssscsssssscccssccccccsssssccscccsscsscccssssscsssssssssscsssssssssssssssscssscsccccssssssscsssccsscccccsscssscsccssscsssscssscsscssscssssssssccscccsscccsccccsssscsssssssccccscccccccscccsccccccccccccscccccsccc" /><path
       style="fill:none;stroke:none;stroke-width:1.32292;stroke-linecap:round;stroke-opacity:1;paint-order:fill markers stroke"
       d="m 257.70563,265.08152 c 12.9885,10.50351 23.33456,14.19858 39.29317,14.19858 15.95861,0 26.60184,-3.68468 39.24943,-14.23563"
       id="path636"
       sodipodi:nodetypes="czc" /><g
       aria-label="OUTLAW"
       id="text439"
       style="font-weight:bold;font-size:14.1111px;font-family:AmarilloUSAF;-inkscape-font-specification:'AmarilloUSAF Bold';text-align:center;letter-spacing:1.32292px;text-anchor:middle;fill:#112b00;stroke-width:0.499999;stroke-linejoin:bevel;paint-order:markers fill stroke"><path
         d="m 277.64635,274.75883 -1.87685,0.78891 -2.58073,-0.99467 -0.80921,-1.82418 2.02995,-5.26679 1.82418,-0.80921 2.63339,1.01497 0.80921,1.82419 z m -1.10863,-1.04733 1.61381,-4.18709 -0.33178,-0.74792 -1.5537,-0.59883 -0.74792,0.33177 -1.6138,4.1871 0.33177,0.74791 1.55371,0.59884 z"
         style="stroke-width:0.5"
         id="path6433" /><path
         d="m 285.57146,276.84505 -1.70226,1.04152 -2.74378,-0.66075 -1.04152,-1.70227 1.65188,-6.85945 1.37189,0.33038 -1.51643,6.29697 0.42703,0.69793 1.61883,0.38985 0.69793,-0.42703 1.51642,-6.29697 1.37189,0.33037 z"
         style="stroke-width:0.5"
         id="path6435" /><path
         d="m 294.27059,272.22967 -2.10584,-0.21383 -0.71277,7.01946 -1.40389,-0.14256 0.71277,-7.01945 -2.10584,-0.21383 0.14255,-1.40389 5.61557,0.57021 z"
         style="stroke-width:0.5"
         id="path6437" /><path
         d="m 301.93847,279.14769 -5.64115,0.19269 -0.28904,-8.46172 1.41029,-0.0482 0.24086,7.05143 4.23087,-0.14452 z"
         style="stroke-width:0.5"
         id="path6439" /><path
         d="m 310.2004,277.92045 -1.43256,0.24547 -0.58603,-1.33127 -1.97499,0.33841 -0.1094,1.45042 -1.43256,0.24546 0.58683,-8.6906 1.50211,-0.25738 z m -2.60461,-2.41706 -1.08067,-2.46343 -0.19891,2.68268 z"
         style="stroke-width:0.5"
         id="path6441" /><path
         d="m 318.1778,266.63246 1.43624,8.45095 -1.35044,0.45559 -3.14589,-4.91058 0.47175,5.81273 -1.35044,0.45559 -3.97669,-7.5939 1.35044,-0.45559 2.30063,4.39154 -0.40198,-5.03207 1.41729,-0.47814 2.72849,4.2472 -0.82985,-4.88773 z"
         style="stroke-width:0.5"
         id="path6443" /></g><path
       id="path543"
       style="fill:none;stroke:none;stroke-width:0.499999;stroke-linejoin:bevel;paint-order:markers fill stroke"
       d="m 297.00145,86.582985 a 76.620619,96.348549 0 0 0 -76.62061,96.348555 76.620619,96.348549 0 0 0 76.62061,96.34855 76.620619,96.348549 0 0 0 76.62062,-96.34855 76.620619,96.348549 0 0 0 -76.62062,-96.348555 z" /></g></svg>
