<?xml version="1.0" encoding="UTF-8" standalone="no"?>
<!-- Created with Inkscape (http://www.inkscape.org/) -->

<svg
   width="92.550781mm"
   height="134.57158mm"
   viewBox="0 0 92.550781 134.57158"
   version="1.1"
   id="svg5"
   xml:space="preserve"
   inkscape:version="1.2.1 (9c6d41e410, 2022-07-14)"
   sodipodi:docname="quicksilver.svg"
   inkscape:export-filename="valkyrie.png"
   inkscape:export-xdpi="283.12"
   inkscape:export-ydpi="283.12"
   xmlns:inkscape="http://www.inkscape.org/namespaces/inkscape"
   xmlns:sodipodi="http://sodipodi.sourceforge.net/DTD/sodipodi-0.dtd"
   xmlns:xlink="http://www.w3.org/1999/xlink"
   xmlns="http://www.w3.org/2000/svg"
   xmlns:svg="http://www.w3.org/2000/svg"><sodipodi:namedview
     id="namedview7"
     pagecolor="#505050"
     bordercolor="#eeeeee"
     borderopacity="1"
     inkscape:showpageshadow="0"
     inkscape:pageopacity="0"
     inkscape:pagecheckerboard="0"
     inkscape:deskcolor="#505050"
     inkscape:document-units="mm"
     showgrid="false"
     inkscape:zoom="1.2623761"
     inkscape:cx="83.572558"
     inkscape:cy="230.51767"
     inkscape:window-width="2560"
     inkscape:window-height="1387"
     inkscape:window-x="1912"
     inkscape:window-y="892"
     inkscape:window-maximized="1"
     inkscape:current-layer="layer1" /><defs
     id="defs2" /><g
     inkscape:label="Layer 1"
     inkscape:groupmode="layer"
     id="layer1"
     transform="translate(-250.7819,-154.9774)"><path
       id="path416"
       style="fill:#7e7d83;fill-opacity:1;stroke:none;stroke-width:1"
       d="M 311.09036 154.97792 C 310.41918 154.96892 309.76732 155.03682 309.37626 155.3443 C 308.2481 156.23097 308.34715 160.30843 308.15824 161.68707 C 307.45657 166.80555 306.75272 171.93201 305.93357 177.0329 C 305.71026 178.42249 305.87338 181.40077 304.8246 182.42999 C 304.01606 183.22374 302.05007 182.85373 301.01449 182.85373 C 297.52969 182.85373 293.9027 183.14619 290.43271 182.83823 C 288.04776 182.62683 288.32955 178.06954 288.02924 176.23915 C 287.25057 171.49465 286.63144 166.71375 285.96787 161.95165 C 285.71493 160.13595 285.83774 157.31259 284.98395 155.68588 C 284.47437 154.71477 282.60293 155.07248 281.69991 155.07248 L 271.91033 155.07248 C 271.48966 160.35794 269.87417 165.73243 268.89707 170.94748 C 267.13443 180.35525 265.55233 189.79988 264.08548 199.2579 C 262.73716 207.95233 261.67938 216.70139 260.8433 225.45165 C 260.44695 229.59925 260.8903 234.06316 260.2299 238.147 C 259.96558 239.78212 257.81465 240.10551 256.56449 240.76855 C 254.33856 241.94884 252.03329 243.62773 251.15345 246.08915 C 248.9548 252.23912 257.17769 253.13739 258.33286 257.73082 C 258.56305 258.64628 258.84219 260.54494 258.55249 261.43498 C 258.05613 262.96028 256.36819 264.14591 257.02648 265.9329 C 257.5821 267.44103 259.36484 268.8124 260.53324 269.85566 C 263.66141 272.64886 267.08646 275.18487 270.32283 277.86034 C 275.14113 281.84362 280.89401 286.9717 286.99158 288.80076 C 290.54279 289.86597 294.9487 289.48108 298.63324 289.48082 C 301.52646 289.48056 305.16713 289.60999 307.89366 288.56356 C 314.28886 286.10902 320.1563 280.91335 325.35616 276.58186 C 328.93463 273.60084 334.76862 270.36412 337.02521 266.19748 C 337.9232 264.53909 336.30519 263.10795 335.68421 261.69957 C 335.24791 260.71029 335.4567 258.1721 335.94724 257.20268 C 337.6374 253.86234 342.56309 252.90823 343.25998 248.73498 C 343.88254 245.00596 340.37047 242.32446 337.52699 240.76183 C 336.28953 240.08185 334.12483 239.77128 333.8621 238.147 C 333.18821 233.97957 333.65325 229.42037 333.2487 225.18707 C 332.36949 215.98464 331.13028 206.81991 329.78225 197.6704 C 328.45327 188.64788 326.87097 179.63689 325.14377 170.6829 C 324.15714 165.56868 322.59417 160.26057 322.18116 155.07248 L 312.92074 155.07248 C 312.4519 155.07248 311.76154 154.98682 311.09036 154.97792 z M 283.09982 184.75388 A 2.0812449 2.0812449 0 0 1 285.17773 186.83799 C 285.16989 193.39036 290.40997 198.6471 296.94704 198.7091 C 296.98441 198.7089 297.01909 198.69721 297.05659 198.69721 C 297.09407 198.69721 297.12875 198.70885 297.16615 198.7091 C 303.70323 198.64715 308.94552 193.39038 308.93752 186.83799 A 2.0812449 2.0812449 0 0 1 311.01543 184.75388 A 2.0812449 2.0812449 0 0 1 313.09954 186.8323 C 313.10674 192.84496 309.735 198.04317 304.82201 200.79528 C 309.73392 203.54678 313.10554 208.74519 313.09954 214.75618 C 313.10828 222.88501 306.99235 229.56727 299.13864 230.60379 L 299.13864 240.59801 L 311.0175 240.59801 A 2.0812449 2.0812449 0 0 1 313.09954 242.67799 A 2.0812449 2.0812449 0 0 1 311.0175 244.76003 L 299.13864 244.76003 L 299.13864 256.63889 A 2.0812449 2.0812449 0 0 1 297.05659 258.72094 A 2.0812449 2.0812449 0 0 1 294.97662 256.63889 L 294.97662 244.76003 L 283.09569 244.76003 A 2.0812449 2.0812449 0 0 1 281.01571 242.67799 A 2.0812449 2.0812449 0 0 1 283.09569 240.59801 L 294.97662 240.59801 L 294.97662 230.60379 C 287.12327 229.56828 281.00871 222.88752 281.01571 214.7598 C 281.01571 214.7588 281.01572 214.75666 281.01571 214.75566 C 281.01572 214.75466 281.01571 214.75477 281.01571 214.75411 C 281.01072 208.74428 284.38026 203.54609 289.29118 200.79476 C 284.37864 198.04252 281.00871 192.84409 281.01571 186.83179 A 2.0812449 2.0812449 0 0 1 283.09982 184.75388 z M 296.94136 202.883 C 290.40726 202.94836 285.16973 208.20387 285.17773 214.75411 L 285.17773 214.7598 C 285.16986 221.34193 290.4527 226.63233 297.03127 226.64693 A 2.0812449 2.0812449 0 0 1 297.05659 226.63659 A 2.0812449 2.0812449 0 0 1 297.09587 226.64486 C 303.66775 226.6226 308.94552 221.33713 308.93752 214.7598 L 308.93752 214.75411 C 308.94536 208.20452 303.70708 202.9494 297.1739 202.883 C 297.13381 202.8833 297.09669 202.89437 297.05659 202.89437 C 297.01716 202.89437 296.98076 202.88329 296.94136 202.883 z M 260.00408 241.06207 C 260.1533 248.0727 267.50166 248.69976 271.62145 252.27534 C 272.50542 253.04264 274.79764 256.45465 273.14849 257.44763 C 271.66153 258.34298 267.80373 255.71867 266.08949 255.53664 C 263.74663 255.28766 262.50702 257.32072 260.79783 258.52457 C 258.79839 253.97877 248.03175 249.96285 253.92951 244.26187 C 254.63886 243.57633 255.4551 243.0463 256.29991 242.54518 C 257.46514 241.85409 258.66557 241.29252 260.00408 241.06207 z M 334.35199 241.06207 C 335.74555 241.80423 337.23598 242.29037 338.58533 243.13016 C 339.32035 243.58762 340.01895 244.08653 340.55471 244.77709 C 345.10396 250.64207 333.9419 253.80732 333.02908 258.52457 C 331.14739 257.00772 329.93848 254.99127 327.20824 255.38522 C 325.66281 255.60824 321.81536 258.14161 320.48876 257.15049 C 318.96081 256.00828 321.29693 252.77149 322.19201 251.99732 C 325.09449 249.48801 329.17864 249.28477 331.92475 246.3434 C 333.51093 244.64451 333.52437 243.01602 334.35199 241.06207 z M 327.66455 256.68954 C 328.32646 256.68915 328.97095 256.83112 329.58949 257.20165 L 321.91658 261.96415 L 320.32908 258.25998 C 322.71755 258.51235 325.3006 256.69094 327.66455 256.68954 z M 264.23741 257.20165 L 273.23324 258.52457 L 271.91033 262.22873 C 269.41691 261.65672 265.7921 259.21592 264.23741 257.20165 z M 330.64783 257.73082 C 331.9583 259.24556 335.71228 263.26036 335.37467 265.40373 C 335.13999 266.89437 333.0431 268.19509 331.97074 269.08671 C 328.19888 272.22282 324.03931 274.63754 319.53533 276.55603 C 305.19444 282.66417 287.7551 282.24078 273.49783 276.139 C 269.27086 274.32978 265.01791 271.88208 261.59158 268.79836 C 260.67085 267.96995 258.57479 266.47239 258.48324 265.13915 C 258.34196 263.0799 261.54501 259.8845 262.64991 258.25998 C 264.73668 259.0627 266.52315 260.73681 268.47074 261.8515 C 271.64892 263.67049 275.0459 265.15055 278.52491 266.28482 C 291.18227 270.41122 305.01556 270.24631 317.41866 265.28488 C 322.23695 263.35739 326.34758 260.56345 330.64783 257.73082 z M 268.25267 263.83535 L 266.70548 264.22913 L 264.39967 268.1121 L 264.79396 269.65877 L 265.85178 270.28716 L 266.33289 272.1749 L 267.42533 271.90463 L 267.11785 270.69799 L 268.28212 270.41738 L 270.58793 266.53493 L 270.19364 264.98826 L 268.25267 263.83535 z M 324.63372 264.57588 L 321.68352 266.23934 L 325.00993 272.13976 L 325.99333 271.58527 L 324.60737 269.1265 L 325.44298 268.65522 L 327.87125 270.52642 L 328.94354 269.92181 L 326.5349 268.04027 L 327.00309 266.48015 L 326.17161 265.00531 L 324.63372 264.57588 z M 268.07387 265.042 L 269.21953 265.72258 L 269.38076 266.35665 L 267.5478 269.44328 L 266.91373 269.60503 L 266.8264 269.55284 L 266.62899 268.77924 L 265.8554 268.97664 L 265.76807 268.92445 L 265.60683 268.29038 L 267.4398 265.20375 L 268.07387 265.042 z M 324.78462 265.78666 L 325.41507 265.96287 L 325.79231 266.63157 L 325.61661 267.26202 L 324.05288 268.1431 L 323.22141 266.66826 L 324.78462 265.78666 z M 272.93249 266.49927 L 270.58121 271.63074 L 271.13725 273.12729 L 273.18983 274.06781 L 274.68638 273.51177 L 277.03766 268.3803 L 276.01137 267.91004 L 273.85284 272.62087 L 273.23944 272.84876 L 272.02815 272.29375 L 271.80026 271.67984 L 273.95878 266.96953 L 272.93249 266.49927 z M 319.90481 267.12663 L 315.75468 268.90688 L 318.42532 275.13131 L 322.57493 273.35105 L 322.13 272.31391 L 319.01753 273.64923 L 318.34987 272.09273 L 319.90636 271.42507 L 319.46143 270.38793 L 317.90493 271.05559 L 317.23728 269.49909 L 320.34975 268.16377 L 319.90481 267.12663 z M 279.03651 269.1172 L 276.75964 275.49614 L 277.82314 275.87545 L 280.10001 269.49651 L 279.03651 269.1172 z M 313.91706 269.57661 L 312.8024 269.90785 L 313.00291 274.38251 L 310.72501 270.5259 L 309.61035 270.85715 L 313.1104 276.88314 L 314.2788 276.53535 L 313.91706 269.57661 z M 283.17682 270.46802 L 281.80223 271.28038 L 280.67878 275.65375 L 281.49114 277.02835 L 283.63416 277.5787 L 285.05216 276.77772 L 285.19272 276.23098 L 284.09925 275.94986 L 284.07392 276.04856 L 283.51065 276.38136 L 282.22029 276.05011 L 281.88749 275.48684 L 282.78046 272.00953 L 283.34425 271.67674 L 284.6341 272.00798 L 284.96741 272.57126 L 284.94209 272.66996 L 286.03556 272.95056 L 286.17612 272.40434 L 285.36377 271.02975 L 283.17682 270.46802 z M 288.30726 271.66899 L 287.44219 278.38692 L 288.56202 278.5311 L 288.85348 276.26922 L 289.40435 275.70285 L 290.64458 278.7993 L 291.92099 278.96363 L 290.26993 274.81298 L 292.78605 272.24569 L 291.38614 272.06534 L 289.09274 274.41094 L 289.42709 271.81316 L 288.30726 271.66899 z M 305.52791 271.6788 L 304.41894 271.89016 L 305.68811 278.5435 L 310.12401 277.69704 L 309.91214 276.58858 L 306.58573 277.22317 L 305.52791 271.6788 z M 302.35705 272.10152 L 301.23308 272.20642 L 301.8625 278.95071 L 302.98647 278.84581 L 302.35705 272.10152 z M 295.78432 272.37178 L 294.65209 273.4973 L 294.64692 275.19073 L 295.77295 276.32296 L 297.56767 276.32813 L 298.02915 276.7927 L 298.02708 277.5601 L 297.56302 278.02157 L 296.23081 278.01743 L 295.76933 277.55338 L 295.76985 277.45209 L 294.64072 277.44899 L 294.63917 278.0133 L 295.7652 279.14553 L 298.02294 279.15173 L 299.15517 278.02622 L 299.15983 276.33278 L 298.03431 275.20107 L 296.23907 275.1959 L 295.7776 274.73185 L 295.77967 273.96394 L 296.24372 273.50247 L 297.57594 273.5066 L 298.03741 273.97065 L 298.03741 274.07246 L 299.16603 274.07556 L 299.16809 273.51125 L 298.04258 272.37902 L 295.78432 272.37178 z " /><circle
       style="opacity:1;fill:none;stroke:none;stroke-width:0.499999;stroke-linejoin:bevel;stroke-miterlimit:12.5;paint-order:fill markers stroke"
       id="path2790"
       cx="440.63071"
       cy="208.03429"
       r="45.05378" /><image
       width="44.146969"
       height="66.536842"
       preserveAspectRatio="none"
       xlink:href="berserker.png"
       id="image8789"
       x="196.85051"
       y="224.82802" /><image
       width="44.146957"
       height="64.167091"
       preserveAspectRatio="none"
       xlink:href="outlaw.png"
       id="image8801"
       x="196.85052"
       y="156.51607" /><image
       width="43.597084"
       height="63.367867"
       preserveAspectRatio="none"
       xlink:href="valkyrie.png"
       id="image8813"
       x="353.44199"
       y="224.82802" /><image
       width="63.192856"
       height="63.192856"
       preserveAspectRatio="none"
       xlink:href="azrael.png"
       id="image8825"
       x="343.33267"
       y="154.9774" /></g></svg>
