<?xml version="1.0" encoding="UTF-8" standalone="no"?>
<!-- Created with Inkscape (http://www.inkscape.org/) -->

<svg
   width="377.35693mm"
   height="256.10461mm"
   viewBox="0 0 377.35693 256.10461"
   version="1.1"
   id="svg448"
   inkscape:version="1.2.1 (9c6d41e410, 2022-07-14)"
   sodipodi:docname="unsc ranks.svg"
   xml:space="preserve"
   xmlns:inkscape="http://www.inkscape.org/namespaces/inkscape"
   xmlns:sodipodi="http://sodipodi.sourceforge.net/DTD/sodipodi-0.dtd"
   xmlns="http://www.w3.org/2000/svg"
   xmlns:svg="http://www.w3.org/2000/svg"><sodipodi:namedview
     id="namedview450"
     pagecolor="#505050"
     bordercolor="#eeeeee"
     borderopacity="1"
     inkscape:showpageshadow="0"
     inkscape:pageopacity="0"
     inkscape:pagecheckerboard="0"
     inkscape:deskcolor="#505050"
     inkscape:document-units="mm"
     showgrid="false"
     inkscape:zoom="0.89263468"
     inkscape:cx="766.27092"
     inkscape:cy="442.51026"
     inkscape:window-width="2560"
     inkscape:window-height="1387"
     inkscape:window-x="1912"
     inkscape:window-y="892"
     inkscape:window-maximized="1"
     inkscape:current-layer="layer1" /><defs
     id="defs445" /><g
     inkscape:label="Layer 1"
     inkscape:groupmode="layer"
     id="layer1"
     transform="translate(-217.45357,57.022107)"><path
       style="fill:none;stroke:#69d028;stroke-width:3;stroke-linecap:round;stroke-dasharray:none;stroke-opacity:0.396341;paint-order:fill markers stroke"
       d="m 568.78236,158.20732 11.95342,-11.95341 11.95341,11.95341 -11.95341,11.95341 z"
       id="path679" /><path
       style="fill:none;stroke:#000000;stroke-width:3;stroke-linecap:round;stroke-dasharray:none;stroke-opacity:1;paint-order:fill markers stroke"
       d="M 250.56668,43.186442 262.5201,31.233026 274.47351,43.186442"
       id="path2021"
       inkscape:export-filename="path2021.png"
       inkscape:export-xdpi="943.9986"
       inkscape:export-ydpi="943.9986" /><path
       style="fill:none;stroke:#000000;stroke-width:3;stroke-linecap:round;stroke-dasharray:none;stroke-opacity:1;paint-order:fill markers stroke"
       d="M 299.93496,22.220589 287.98154,34.174006 299.93496,46.127418 311.88838,34.174006 299.93496,22.22059 Z"
       id="path2509" /><path
       style="fill:none;stroke:#69d028;stroke-width:3;stroke-linecap:round;stroke-dasharray:none;stroke-opacity:0.396341;paint-order:fill markers stroke"
       d="m 568.78236,163.49899 11.95342,-11.95342 11.95341,11.95342 -11.95341,11.95341 z"
       id="path2511" /><path
       style="fill:#68cf26;fill-opacity:0.396078;stroke:#68cf26;stroke-width:3;stroke-linecap:round;stroke-dasharray:none;stroke-opacity:0.396078;paint-order:fill markers stroke"
       d="M 571.42819,178.77686 V 142.92945"
       id="path2545" /><path
       style="fill:#68cf26;fill-opacity:0.396078;stroke:#68cf26;stroke-width:3;stroke-linecap:round;stroke-dasharray:none;stroke-opacity:0.396078;paint-order:fill markers stroke"
       d="M 590.04336,178.77686 V 142.92945"
       id="path2892" /><path
       style="fill:none;fill-opacity:0.396078;stroke:#000000;stroke-width:3;stroke-linecap:round;stroke-dasharray:none;stroke-opacity:1;paint-order:fill markers stroke"
       d="M 511.83053,25.8443 523.78395,13.890885 535.73737,25.8443"
       id="path3382" /><path
       style="fill:none;fill-opacity:0.396078;stroke:#000000;stroke-width:3;stroke-linecap:round;stroke-dasharray:none;stroke-opacity:1;paint-order:fill markers stroke"
       d="M 327.23464,47.010968 339.18806,35.057552 351.14148,47.01097"
       id="path3384" /><path
       style="fill:none;fill-opacity:0.396078;stroke:#000000;stroke-width:3;stroke-linecap:round;stroke-dasharray:none;stroke-opacity:1;paint-order:fill markers stroke"
       d="m 327.23464,41.719301 11.95342,-11.953416 11.95342,11.953416"
       id="path3386" /><path
       style="fill:none;fill-opacity:0.396078;stroke:#000000;stroke-width:3;stroke-linecap:round;stroke-dasharray:none;stroke-opacity:1;paint-order:fill markers stroke"
       d="m 361.76476,41.719301 11.95342,-11.953416 11.95341,11.953418"
       id="path3390" /><path
       style="fill:none;fill-opacity:0.396078;stroke:#000000;stroke-width:3;stroke-linecap:round;stroke-dasharray:none;stroke-opacity:1;paint-order:fill markers stroke"
       d="m 361.76476,36.427634 11.95342,-11.953416 11.95341,11.953416"
       id="path3392" /><path
       style="fill:none;fill-opacity:0.396078;stroke:#000000;stroke-width:3;stroke-linecap:round;stroke-dasharray:none;stroke-opacity:1;paint-order:fill markers stroke"
       d="M 361.76476,47.010968 373.71818,35.057552 385.67159,47.01097"
       id="path3394" /><path
       style="fill:none;fill-opacity:0.396078;stroke:#000000;stroke-width:3;stroke-linecap:round;stroke-dasharray:none;stroke-opacity:1;paint-order:fill markers stroke"
       d="m 396.91619,31.135967 11.95342,-11.953415 11.95341,11.953417"
       id="path3398" /><path
       style="fill:none;fill-opacity:0.396078;stroke:#000000;stroke-width:3;stroke-linecap:round;stroke-dasharray:none;stroke-opacity:1;paint-order:fill markers stroke"
       d="M 396.91619,25.8443 408.86961,13.890885 420.82302,25.8443"
       id="path3400" /><path
       style="fill:none;fill-opacity:0.396078;stroke:#000000;stroke-width:3;stroke-linecap:round;stroke-dasharray:none;stroke-opacity:1;paint-order:fill markers stroke"
       d="m 408.86961,24.474217 -11.95342,11.953417 11.95342,11.953411 11.95341,-11.953411 z"
       id="path3402" /><path
       style="fill:none;fill-opacity:0.396078;stroke:#000000;stroke-width:3;stroke-linecap:round;stroke-dasharray:none;stroke-opacity:1;paint-order:fill markers stroke"
       d="m 511.83053,41.719301 11.95342,11.953412 11.95342,-11.953412"
       id="path3469" /><path
       style="fill:none;fill-opacity:0.396078;stroke:#000000;stroke-width:3;stroke-linecap:round;stroke-dasharray:none;stroke-opacity:1;paint-order:fill markers stroke"
       d="m 432.68894,31.135967 11.95342,-11.953415 11.95341,11.953417"
       id="path3471" /><path
       style="fill:none;fill-opacity:0.396078;stroke:#000000;stroke-width:3;stroke-linecap:round;stroke-dasharray:none;stroke-opacity:1;paint-order:fill markers stroke"
       d="M 432.68894,25.8443 444.64236,13.890885 456.59577,25.8443"
       id="path3473" /><path
       style="fill:none;fill-opacity:0.396078;stroke:#000000;stroke-width:3;stroke-linecap:round;stroke-dasharray:none;stroke-opacity:1;paint-order:fill markers stroke"
       d="m 444.64236,24.474217 -11.95342,11.953417 11.95342,11.953411 11.95341,-11.953411 z"
       id="path3475" /><path
       style="fill:none;fill-opacity:0.396078;stroke:#000000;stroke-width:3;stroke-linecap:round;stroke-dasharray:none;stroke-opacity:1;paint-order:fill markers stroke"
       d="m 432.68894,41.719301 11.95342,11.953412 11.95341,-11.953412"
       id="path3477" /><path
       style="fill:none;fill-opacity:0.396078;stroke:#000000;stroke-width:3;stroke-linecap:round;stroke-dasharray:none;stroke-opacity:1;paint-order:fill markers stroke"
       d="m 511.83053,47.010968 11.95342,11.953411 11.95342,-11.953411"
       id="path3479" /><path
       style="fill:none;fill-opacity:0.396078;stroke:#000000;stroke-width:3;stroke-linecap:round;stroke-dasharray:none;stroke-opacity:1;paint-order:fill markers stroke"
       d="m 468.46169,31.135967 11.95342,-11.953415 11.95341,11.953417"
       id="path3481" /><path
       style="fill:none;fill-opacity:0.396078;stroke:#000000;stroke-width:3;stroke-linecap:round;stroke-dasharray:none;stroke-opacity:1;paint-order:fill markers stroke"
       d="M 468.46169,25.8443 480.41511,13.890885 492.36852,25.8443"
       id="path3483" /><path
       style="fill:none;fill-opacity:0.396078;stroke:#000000;stroke-width:3;stroke-linecap:round;stroke-dasharray:none;stroke-opacity:1;paint-order:fill markers stroke"
       d="m 480.41511,24.474217 -11.95342,11.953417 11.95342,11.953411 11.95341,-11.953411 z"
       id="path3485" /><path
       style="fill:none;fill-opacity:0.396078;stroke:#000000;stroke-width:3;stroke-linecap:round;stroke-dasharray:none;stroke-opacity:1;paint-order:fill markers stroke"
       d="m 468.46169,41.719301 11.95342,11.953412 11.95341,-11.953412"
       id="path3487" /><path
       style="fill:none;fill-opacity:0.396078;stroke:#000000;stroke-width:3;stroke-linecap:round;stroke-dasharray:none;stroke-opacity:1;paint-order:fill markers stroke"
       d="m 468.46169,47.010968 11.95342,11.953411 11.95341,-11.953411"
       id="path3489" /><text
       xml:space="preserve"
       style="font-size:4.23333px;font-family:'Cascadia Code';-inkscape-font-specification:'Cascadia Code';text-align:center;text-anchor:middle;fill:#000000;fill-opacity:1;stroke:none;stroke-width:3;stroke-linecap:round;stroke-dasharray:none;stroke-opacity:1;paint-order:fill markers stroke"
       x="231.60251"
       y="57.981316"
       id="text3545"><tspan
         sodipodi:role="line"
         id="tspan3543"
         style="font-size:4.23333px;fill:#000000;fill-opacity:1;stroke:none;stroke-width:3"
         x="231.60251"
         y="57.981316">PVT/RCT</tspan></text><text
       xml:space="preserve"
       style="font-size:4.23333px;font-family:'Cascadia Code';-inkscape-font-specification:'Cascadia Code';text-align:center;text-anchor:middle;fill:#000000;fill-opacity:1;stroke:none;stroke-width:3;stroke-linecap:round;stroke-dasharray:none;stroke-opacity:1;paint-order:fill markers stroke"
       x="261.5741"
       y="61.753967"
       id="text4015"><tspan
         sodipodi:role="line"
         id="tspan4013"
         style="stroke-width:3"
         x="261.5741"
         y="61.753967">PFC</tspan></text><text
       xml:space="preserve"
       style="font-size:4.23333px;font-family:'Cascadia Code';-inkscape-font-specification:'Cascadia Code';text-align:center;text-anchor:middle;fill:#000000;fill-opacity:1;stroke:none;stroke-width:3;stroke-linecap:round;stroke-dasharray:none;stroke-opacity:1;paint-order:fill markers stroke"
       x="298.46219"
       y="55.675812"
       id="text4019"><tspan
         sodipodi:role="line"
         id="tspan4017"
         style="stroke-width:3"
         x="298.46219"
         y="55.675812">LCPL</tspan></text><text
       xml:space="preserve"
       style="font-size:4.23333px;font-family:'Cascadia Code';-inkscape-font-specification:'Cascadia Code';text-align:center;text-anchor:middle;fill:#000000;fill-opacity:1;stroke:none;stroke-width:3;stroke-linecap:round;stroke-dasharray:none;stroke-opacity:1;paint-order:fill markers stroke"
       x="332.20645"
       y="53.160713"
       id="text4023"><tspan
         sodipodi:role="line"
         id="tspan4021"
         style="stroke-width:3"
         x="332.20645"
         y="53.160713">CPL</tspan></text><text
       xml:space="preserve"
       style="font-size:4.23333px;font-family:'Cascadia Code';-inkscape-font-specification:'Cascadia Code';text-align:center;text-anchor:middle;fill:#000000;fill-opacity:1;stroke:none;stroke-width:3;stroke-linecap:round;stroke-dasharray:none;stroke-opacity:1;paint-order:fill markers stroke"
       x="362.38763"
       y="57.142952"
       id="text4027"><tspan
         sodipodi:role="line"
         id="tspan4025"
         style="stroke-width:3"
         x="362.38763"
         y="57.142952">SGT</tspan></text><text
       xml:space="preserve"
       style="font-size:4.23333px;font-family:'Cascadia Code';-inkscape-font-specification:'Cascadia Code';text-align:center;text-anchor:middle;fill:#000000;fill-opacity:1;stroke:none;stroke-width:3;stroke-linecap:round;stroke-dasharray:none;stroke-opacity:1;paint-order:fill markers stroke"
       x="399.27573"
       y="65.945801"
       id="text4031"><tspan
         sodipodi:role="line"
         id="tspan4029"
         style="stroke-width:3"
         x="399.27573"
         y="65.945801">SSGT</tspan></text><text
       xml:space="preserve"
       style="font-size:4.23333px;font-family:'Cascadia Code';-inkscape-font-specification:'Cascadia Code';text-align:center;text-anchor:middle;fill:#000000;fill-opacity:1;stroke:none;stroke-width:3;stroke-linecap:round;stroke-dasharray:none;stroke-opacity:1;paint-order:fill markers stroke"
       x="437.84055"
       y="68.670486"
       id="text4035"><tspan
         sodipodi:role="line"
         id="tspan4033"
         style="stroke-width:3"
         x="437.84055"
         y="68.670486">GYSGT</tspan></text><text
       xml:space="preserve"
       style="font-size:4.23333px;font-family:'Cascadia Code';-inkscape-font-specification:'Cascadia Code';text-align:center;text-anchor:middle;fill:#000000;fill-opacity:1;stroke:none;stroke-width:3;stroke-linecap:round;stroke-dasharray:none;stroke-opacity:1;paint-order:fill markers stroke"
       x="477.03418"
       y="73.281502"
       id="text4039"><tspan
         sodipodi:role="line"
         id="tspan4037"
         style="stroke-width:3"
         x="477.03418"
         y="73.281502">MSGT</tspan></text><path
       style="fill:none;fill-opacity:0.396078;stroke:#000000;stroke-width:3;stroke-linecap:round;stroke-dasharray:none;stroke-opacity:1;paint-order:fill markers stroke"
       d="m 511.83053,31.135967 11.95342,-11.953415 11.95342,11.953417"
       id="path4041" /><path
       style="fill:none;fill-opacity:0.396078;stroke:#000000;stroke-width:3;stroke-linecap:round;stroke-dasharray:none;stroke-opacity:1;paint-order:fill markers stroke"
       d="m 523.78395,24.474217 -11.95342,11.953417 11.95342,11.953411 11.95342,-11.953411 z"
       id="path4043" /><path
       style="fill:none;fill-opacity:0.396078;stroke:#000000;stroke-width:3;stroke-linecap:round;stroke-dasharray:none;stroke-opacity:1;paint-order:fill markers stroke"
       d="m 468.46169,-37.655702 11.95342,-11.953417 11.95341,11.953419"
       id="path4045" /><path
       style="fill:none;fill-opacity:0.396078;stroke:#000000;stroke-width:3;stroke-linecap:round;stroke-dasharray:none;stroke-opacity:1;paint-order:fill markers stroke"
       d="m 468.46169,-42.947369 11.95342,-11.953417 11.95341,11.953417"
       id="path4047" /><path
       style="fill:none;fill-opacity:0.396078;stroke:#000000;stroke-width:3;stroke-linecap:round;stroke-dasharray:none;stroke-opacity:1;paint-order:fill markers stroke"
       d="m 480.41511,-44.317453 -11.95342,11.953418 11.95342,11.953411 11.95341,-11.953411 z"
       id="path4049" /><path
       style="fill:none;fill-opacity:0.396078;stroke:#000000;stroke-width:3;stroke-linecap:round;stroke-dasharray:none;stroke-opacity:1;paint-order:fill markers stroke"
       d="m 468.46169,-27.072368 11.95342,11.953412 11.95341,-11.953412"
       id="path4051" /><path
       style="fill:none;fill-opacity:0.396078;stroke:#000000;stroke-width:3;stroke-linecap:round;stroke-dasharray:none;stroke-opacity:1;paint-order:fill markers stroke"
       d="m 468.46169,-21.780701 11.95342,11.9534114 11.95341,-11.9534114"
       id="path4053" /><text
       xml:space="preserve"
       style="font-size:4.23333px;font-family:'Cascadia Code';-inkscape-font-specification:'Cascadia Code';text-align:center;text-anchor:middle;fill:#000000;fill-opacity:1;stroke:none;stroke-width:3;stroke-linecap:round;stroke-dasharray:none;stroke-opacity:1;paint-order:fill markers stroke"
       x="477.03418"
       y="4.4898295"
       id="text4057"><tspan
         sodipodi:role="line"
         id="tspan4055"
         style="stroke-width:3"
         x="477.03418"
         y="4.4898295">1SGT</tspan></text><path
       style="fill:none;fill-opacity:0.396078;stroke:#000000;stroke-width:3;stroke-linecap:round;stroke-dasharray:none;stroke-opacity:1;paint-order:fill markers stroke"
       d="m 511.83053,52.302635 11.95342,11.953411 11.95342,-11.953411"
       id="path4059" /><path
       style="fill:none;fill-opacity:0.396078;stroke:#000000;stroke-width:3;stroke-linecap:round;stroke-dasharray:none;stroke-opacity:1;paint-order:fill markers stroke"
       d="m 511.83053,-42.947369 11.95342,-11.953417 11.95342,11.953417"
       id="path4061" /><path
       style="fill:none;fill-opacity:0.396078;stroke:#000000;stroke-width:3;stroke-linecap:round;stroke-dasharray:none;stroke-opacity:1;paint-order:fill markers stroke"
       d="m 511.83053,-27.072368 11.95342,11.953412 11.95342,-11.953412"
       id="path4063" /><path
       style="fill:none;fill-opacity:0.396078;stroke:#000000;stroke-width:3;stroke-linecap:round;stroke-dasharray:none;stroke-opacity:1;paint-order:fill markers stroke"
       d="m 511.83053,-21.780701 11.95342,11.9534114 11.95342,-11.9534114"
       id="path4065" /><path
       style="fill:none;fill-opacity:0.396078;stroke:#000000;stroke-width:3;stroke-linecap:round;stroke-dasharray:none;stroke-opacity:1;paint-order:fill markers stroke"
       d="m 511.83053,-37.655702 11.95342,-11.953417 11.95342,11.953419"
       id="path4067" /><path
       style="fill:none;fill-opacity:0.396078;stroke:#000000;stroke-width:3;stroke-linecap:round;stroke-dasharray:none;stroke-opacity:1;paint-order:fill markers stroke"
       d="m 523.78395,-44.317453 -11.95342,11.953418 11.95342,11.953411 11.95342,-11.953411 z"
       id="path4069" /><path
       style="fill:none;fill-opacity:0.396078;stroke:#000000;stroke-width:3;stroke-linecap:round;stroke-dasharray:none;stroke-opacity:1;paint-order:fill markers stroke"
       d="m 511.83053,-16.489034 11.95342,11.9534114 11.95342,-11.9534114"
       id="path4071" /><text
       xml:space="preserve"
       style="font-size:4.23333px;font-family:'Cascadia Code';-inkscape-font-specification:'Cascadia Code';text-align:center;text-anchor:middle;fill:#000000;fill-opacity:1;stroke:none;stroke-width:3;stroke-linecap:round;stroke-dasharray:none;stroke-opacity:1;paint-order:fill markers stroke"
       x="515.59906"
       y="74.539047"
       id="text4075"><tspan
         sodipodi:role="line"
         id="tspan4073"
         style="stroke-width:3"
         x="515.59906"
         y="74.539047">MGSGT</tspan></text><text
       xml:space="preserve"
       style="font-size:4.23333px;font-family:'Cascadia Code';-inkscape-font-specification:'Cascadia Code';text-align:center;text-anchor:middle;fill:#000000;fill-opacity:1;stroke:none;stroke-width:3;stroke-linecap:round;stroke-dasharray:none;stroke-opacity:1;paint-order:fill markers stroke"
       x="516.64697"
       y="4.3258872"
       id="text4079"><tspan
         sodipodi:role="line"
         id="tspan4077"
         style="stroke-width:3"
         x="516.64697"
         y="4.3258872">SGTMAJ</tspan></text><path
       style="fill:none;fill-opacity:1;stroke:#000000;stroke-width:3;stroke-linecap:round;stroke-dasharray:none;stroke-opacity:1;paint-order:fill markers stroke"
       d="m 249.84822,101.29715 11.95342,11.95341 11.95341,-11.95341"
       id="path4807" /><path
       style="fill:none;fill-opacity:1;stroke:#000000;stroke-width:3;stroke-linecap:round;stroke-dasharray:none;stroke-opacity:1;paint-order:fill markers stroke"
       d="m 289.26482,96.005478 11.95342,11.953412 11.95341,-11.953412"
       id="path4809" /><path
       style="fill:none;fill-opacity:1;stroke:#000000;stroke-width:3;stroke-linecap:round;stroke-dasharray:none;stroke-opacity:1;paint-order:fill markers stroke"
       d="m 289.26482,101.29715 11.95342,11.95341 11.95341,-11.95341"
       id="path4811" /><text
       xml:space="preserve"
       style="font-size:4.23333px;font-family:'Cascadia Code';-inkscape-font-specification:'Cascadia Code';text-align:center;text-anchor:middle;fill:#000000;fill-opacity:1;stroke:none;stroke-width:3;stroke-linecap:round;stroke-dasharray:none;stroke-opacity:1;paint-order:fill markers stroke"
       x="264.0892"
       y="127.98489"
       id="text4815"><tspan
         sodipodi:role="line"
         id="tspan4813"
         style="stroke-width:3"
         x="264.0892"
         y="127.98489">WO</tspan></text><text
       xml:space="preserve"
       style="font-size:4.23333px;font-family:'Cascadia Code';-inkscape-font-specification:'Cascadia Code';text-align:center;text-anchor:middle;fill:#000000;fill-opacity:1;stroke:none;stroke-width:3;stroke-linecap:round;stroke-dasharray:none;stroke-opacity:1;paint-order:fill markers stroke"
       x="299.51016"
       y="126.93694"
       id="text4819"><tspan
         sodipodi:role="line"
         id="tspan4817"
         style="stroke-width:3"
         x="299.51016"
         y="126.93694">WO2</tspan></text><text
       xml:space="preserve"
       style="font-size:4.23333px;font-family:'Cascadia Code';-inkscape-font-specification:'Cascadia Code';text-align:center;text-anchor:middle;fill:#000000;fill-opacity:1;stroke:none;stroke-width:3;stroke-linecap:round;stroke-dasharray:none;stroke-opacity:1;paint-order:fill markers stroke"
       x="227.62027"
       y="125.67938"
       id="text4827"><tspan
         sodipodi:role="line"
         id="tspan4825"
         style="stroke-width:3"
         x="227.62027"
         y="125.67938">CDT</tspan></text><path
       style="fill:none;fill-opacity:1;stroke:#000000;stroke-width:3;stroke-linecap:round;stroke-dasharray:none;stroke-opacity:1;paint-order:fill markers stroke"
       d="m 221.07489,159.96393 9.30759,9.30758 9.30758,-9.30758 z"
       id="path5559" /><path
       style="fill:none;fill-opacity:1;stroke:#000000;stroke-width:3;stroke-linecap:round;stroke-dasharray:none;stroke-opacity:1;paint-order:fill markers stroke"
       d="m 259.71778,159.96393 9.30759,9.30758 9.30758,-9.30758 z"
       id="path5563" /><path
       style="fill:none;fill-opacity:1;stroke:#000000;stroke-width:3;stroke-linecap:round;stroke-dasharray:none;stroke-opacity:1;paint-order:fill markers stroke"
       d="m 257.07195,162.60976 11.95342,11.95342 11.95341,-11.95342"
       id="path5565" /><path
       style="fill:none;fill-opacity:1;stroke:#000000;stroke-width:3;stroke-linecap:round;stroke-dasharray:none;stroke-opacity:1;paint-order:fill markers stroke"
       d="m 293.8812,159.96393 9.30759,9.30758 9.30758,-9.30758 z"
       id="path5567" /><path
       style="fill:none;fill-opacity:1;stroke:#000000;stroke-width:3;stroke-linecap:round;stroke-dasharray:none;stroke-opacity:1;paint-order:fill markers stroke"
       d="m 291.23537,162.60976 11.95342,11.95342 11.95341,-11.95342"
       id="path5569" /><path
       style="fill:none;fill-opacity:1;stroke:#000000;stroke-width:3;stroke-linecap:round;stroke-dasharray:none;stroke-opacity:1;paint-order:fill markers stroke"
       d="m 291.23537,167.90143 11.95342,11.95342 11.95341,-11.95342"
       id="path5571" /><text
       xml:space="preserve"
       style="font-size:4.23333px;font-family:'Cascadia Code';-inkscape-font-specification:'Cascadia Code';text-align:center;text-anchor:middle;fill:#000000;fill-opacity:1;stroke:none;stroke-width:3;stroke-linecap:round;stroke-dasharray:none;stroke-opacity:1;paint-order:fill markers stroke"
       x="268.94577"
       y="194.4254"
       id="text6301"><tspan
         sodipodi:role="line"
         id="tspan6299"
         style="stroke-width:3"
         x="268.94577"
         y="194.4254">1LT</tspan></text><text
       xml:space="preserve"
       style="font-size:4.23333px;font-family:'Cascadia Code';-inkscape-font-specification:'Cascadia Code';text-align:center;text-anchor:middle;fill:#000000;fill-opacity:1;stroke:none;stroke-width:3;stroke-linecap:round;stroke-dasharray:none;stroke-opacity:1;paint-order:fill markers stroke"
       x="304.36676"
       y="193.37744"
       id="text6305"><tspan
         sodipodi:role="line"
         id="tspan6303"
         style="stroke-width:3"
         x="304.36676"
         y="193.37744">CPT</tspan></text><text
       xml:space="preserve"
       style="font-size:4.23333px;font-family:'Cascadia Code';-inkscape-font-specification:'Cascadia Code';text-align:center;text-anchor:middle;fill:#000000;fill-opacity:1;stroke:none;stroke-width:3;stroke-linecap:round;stroke-dasharray:none;stroke-opacity:1;paint-order:fill markers stroke"
       x="232.47685"
       y="192.11989"
       id="text6309"><tspan
         sodipodi:role="line"
         id="tspan6307"
         style="stroke-width:3"
         x="232.47685"
         y="192.11989">2LT</tspan></text><path
       style="fill:none;fill-opacity:1;stroke:#000000;stroke-width:3;stroke-linecap:round;stroke-dasharray:none;stroke-opacity:1;paint-order:fill markers stroke"
       d="m 480.41509,-39.025785 -6.66173,6.661748 6.66173,6.661746 6.66176,-6.661746 z"
       id="path7041" /><path
       style="fill:none;fill-opacity:1;stroke:#000000;stroke-width:3;stroke-linecap:round;stroke-dasharray:none;stroke-opacity:1;paint-order:fill markers stroke"
       d="m 523.78395,-39.025786 -6.66173,6.661749 6.66173,6.661746 6.66176,-6.661746 z"
       id="path7043" /><path
       id="path9379"
       style="fill:#000000;fill-opacity:1;stroke:none;stroke-width:3.00001;stroke-linecap:round;stroke-dasharray:none;stroke-opacity:1;paint-order:fill markers stroke"
       d="m 520.92856,29.928188 -1.32296,9.389896 1.36308,1.744301 0.0201,1.394444 2.79515,0.470246 2.79514,-0.470246 0.0201,-1.394444 1.36309,-1.744301 -1.32296,-9.389896 h -1.50354 l -0.79628,3.12119 h -1.11104 l -0.79629,-3.12119 z"
       sodipodi:nodetypes="cccccccccccccc" /><path
       id="path9384"
       style="fill:#000000;fill-opacity:1;stroke:none;stroke-width:3.00001;stroke-linecap:round;stroke-dasharray:none;stroke-opacity:1;paint-order:fill markers stroke"
       d="m 477.55973,29.928188 -1.32296,9.389896 1.36308,1.744301 0.0201,1.394444 2.79515,0.470246 2.79514,-0.470246 0.0201,-1.394444 1.36309,-1.744301 -1.32296,-9.389896 h -1.50354 l -0.79628,3.12119 h -1.11104 l -0.79629,-3.12119 z"
       sodipodi:nodetypes="cccccccccccccc" /><text
       xml:space="preserve"
       style="font-size:4.23333px;font-family:'Cascadia Code';-inkscape-font-specification:'Cascadia Code';text-align:center;text-anchor:middle;fill:#000000;fill-opacity:1;stroke:none;stroke-width:3;stroke-linecap:round;stroke-dasharray:none;stroke-opacity:1;paint-order:fill markers stroke"
       x="501.03241"
       y="79.726959"
       id="text9388"><tspan
         sodipodi:role="line"
         id="tspan9386"
         style="stroke-width:3"
         x="501.03241"
         y="79.726959">unit-specific emblem within</tspan><tspan
         sodipodi:role="line"
         style="stroke-width:3"
         x="501.03241"
         y="85.018623"
         id="tspan9390">diamond (ODST shown)</tspan></text><text
       xml:space="preserve"
       style="font-size:4.23333px;font-family:'Cascadia Code';-inkscape-font-specification:'Cascadia Code';text-align:center;text-anchor:middle;fill:#000000;fill-opacity:1;stroke:none;stroke-width:3;stroke-linecap:round;stroke-dasharray:none;stroke-opacity:1;paint-order:fill markers stroke"
       x="225.97078"
       y="41.086105"
       id="text9506"><tspan
         sodipodi:role="line"
         id="tspan9504"
         style="font-size:4.23333px;fill:#000000;fill-opacity:1;stroke:none;stroke-width:3"
         x="225.97078"
         y="41.086105">(none)</tspan></text><text
       xml:space="preserve"
       style="font-size:4.23333px;font-family:'Cascadia Code';-inkscape-font-specification:'Cascadia Code';text-align:center;text-anchor:middle;fill:#000000;fill-opacity:1;stroke:none;stroke-width:3;stroke-linecap:round;stroke-dasharray:none;stroke-opacity:1;paint-order:fill markers stroke"
       x="225.37796"
       y="108.66695"
       id="text9510"><tspan
         sodipodi:role="line"
         id="tspan9508"
         style="font-size:4.23333px;fill:#000000;fill-opacity:1;stroke:none;stroke-width:3"
         x="225.37796"
         y="108.66695">(none)</tspan></text><path
       id="path9514"
       style="fill:#000000;fill-opacity:1;stroke:none;stroke-width:3.00001;stroke-linecap:round;stroke-dasharray:none;stroke-opacity:1;paint-order:fill markers stroke"
       d="m 569.65194,78.59813 -3.98791,28.30477 4.10885,5.25803 0.0606,4.20338 8.42567,1.41752 8.42563,-1.41752 0.0606,-4.20338 4.10889,-5.25803 -3.98792,-28.30477 h -4.53225 l -2.4003,9.40848 h -3.3491 l -2.40033,-9.40848 z"
       sodipodi:nodetypes="cccccccccccccc" /><g
       id="g9550"
       transform="matrix(0.03196001,0,0,0.03196001,481.14664,147.57542)"
       style="stroke-width:8.27858"><path
         d="m 455.9,178.4 c 21.4,-21.9 53.9,-54.4 72.2,-72.7 1.5,-1.5 2.4,-3.6 2.4,-5.8 l 0.3,-29.4 c 0,-2.7 -2.2,-5 -5,-5 -1.3,0 -2.6,0.5 -3.5,1.5 L 410.5,180.6 c -28.3,28.6 -50,72.3 -51.8,109.9 -1.8,37.6 3.2,85.7 15.2,82.9 14.1,-3.4 32.3,-26 44.9,-8.4 5.3,7.5 4.2,16.1 -5.3,23 -7.4,5.4 -23,9.8 -31.1,12.1 l -14.2,2.5 c -7.1,0 -13.3,-4 -22.2,-13.5 -8.9,-9.5 -9.4,-19.4 -9.4,-32 0.1,-12.5 -2.2,-17.5 -2.2,-17.5 10.6,0 12.4,-8.8 12.4,-8.8 h -46.6 c -8.7,0 -16.9,6.3 -16.9,14.6 v 11.3 l 7.1,0.3 c 5.2,0.2 7.6,5.1 6.5,10.1 -2.1,10.4 -7.5,19.8 -15.5,26.7 -6.2,5.6 -13.3,11 -30,6.2 -8,-2.3 -23.7,-6.8 -31.1,-12.1 -9.5,-6.9 -10.6,-15.5 -5.3,-23 12.6,-17.6 30.8,5 44.9,8.4 12.1,2.9 17,-45.3 15.3,-82.9 -1.8,-37.6 -23.5,-81.3 -51.8,-109.8 L 111.6,67 c -1.9,-1.9 -5.1,-1.9 -7,0 -0.9,0.9 -1.5,2.2 -1.5,3.5 l 0.2,29.4 c 0,2.2 0.9,4.3 2.4,5.8 18.3,18.3 50.7,50.8 72.2,72.7 31.3,32 60,54 67.2,106.2 7.2,52.2 -11.2,52.8 -11.2,52.8 0,0 6.9,-19.1 4.1,-38.8 -2.8,-19.7 -10.1,-55.1 -36.7,-81.5 -20.2,-20 -68.3,-68.5 -91.8,-92.2 -1.4,-1.4 -3.6,-1.3 -5,0.1 -0.6,0.7 -1,1.5 -1,2.4 l 0.2,27.6 c 0,4.9 2,7.5 5.4,11 11.4,11.4 23.3,23.5 32.6,33 25.8,26.4 59.3,54.4 66.5,97.7 5,29.6 -8.4,33.6 -8.4,33.6 0,0 1,-20 -1.2,-36.2 -2.3,-16.3 -16.8,-40.1 -38.7,-61.8 -10.7,-10.7 -31.1,-31.1 -49.5,-49.5 -1.4,-1.5 -3.8,-1.6 -5.3,-0.2 -0.8,0.8 -1.3,1.8 -1.2,3 l 0.2,26.6 c 0,3.4 1.3,6.6 3.6,9.2 l 38.3,41.7 c 16.1,17.2 24.3,28.7 24.3,52 0,0 -2.6,28.4 -4,45.2 -2,26.1 17.4,41.4 31.5,48.5 l 72.4,34.6 c 3.5,1.7 5.9,5 6.4,8.8 1,6.9 1.5,13.8 1.5,20.8 v 17.6 H 270 c -7.7,0 -11.2,3.7 -12,12 l -1.5,17.5 c -34,18.5 -57.9,51.1 -65.4,89.1 5,2 10.1,3.9 15.5,5.7 9.5,3.2 19.5,6.3 29.9,8.9 v -0.7 c 0.7,-9 8.2,-16 17.3,-16 h 164.6 c 4,0 7.5,2.9 8.2,6.8 l 0.2,1 c 5.3,-1.8 10.5,-3.7 15.5,-5.7 -7.4,-37.7 -31.1,-70.3 -64.9,-88.8 l -1.6,-17.8 c -0.9,-8.3 -4.3,-12 -12,-12 h -8.1 V 473 c -0.1,-7 0.4,-13.9 1.5,-20.8 0.6,-3.8 3,-7.1 6.5,-8.8 L 436,408.8 c 14,-7.2 33.4,-22.5 31.4,-48.5 -1.3,-16.8 -3.9,-45.2 -3.9,-45.2 0,-23.3 8.2,-34.8 24.3,-52.1 L 526,221.3 c 2.3,-2.5 3.6,-5.8 3.6,-9.2 l 0.2,-26.6 c 0,-2.1 -1.7,-3.8 -3.7,-3.8 -1,0 -2,0.4 -2.7,1.1 -18.3,18.4 -38.7,38.9 -49.5,49.5 -21.9,21.8 -36.5,45.5 -38.7,61.8 -2.3,16.3 -1.3,36.3 -1.3,36.3 0,0 -13.4,-4 -8.4,-33.6 7.2,-43.4 40.7,-71.3 66.5,-97.7 9.3,-9.6 21.3,-21.6 32.6,-33 3.4,-3.4 5.3,-6.1 5.4,-11 l 0.2,-27.6 c 0,-1.9 -1.6,-3.5 -3.5,-3.5 -0.9,0 -1.8,0.3 -2.4,1 -23.5,23.7 -71.6,72.2 -91.8,92.1 -26.6,26.4 -33.9,61.8 -36.7,81.5 -2.8,19.7 4.1,38.8 4.1,38.8 0,0 -18.4,-0.6 -11.2,-52.8 7.3,-52.2 36,-74.2 67.2,-106.2 z m -130.3,213 c 0.1,-0.2 0.3,-0.4 0.6,-0.4 0.2,0 0.4,0.2 0.5,0.4 5.6,20.5 19.1,26.6 25,28.4 0.7,0.2 1.1,0.9 0.9,1.6 -0.1,0.3 -0.3,0.5 -0.5,0.7 -2.3,1.5 -10.4,7 -17.7,12 -3.7,2.5 -8.7,-0.1 -8.7,-4.6 v -38.1 z m 0,68.5 c 0,-1.1 0.9,-2 2,-2 h 4.5 c 5.3,0 9.7,4.7 9.7,10.4 0,5.8 -4.4,10.4 -9.7,10.4 h -4.5 c -1.1,0 -2,-0.9 -2,-1.9 z M 300,341.6 c 0.4,-2.9 2.8,-2 7.9,-2 2.6,0 5.1,0 7.9,0 -0.3,0.4 -4.9,6.4 -10.1,6.4 -5.4,0 -5.8,-3.7 -5.7,-4.4 z M 405.7,566 v 0 c 6.7,8.9 12.1,18.7 15.9,29.2 0.6,1.8 -0.3,3.7 -2,4.3 -0.4,0.1 -0.8,0.2 -1.1,0.2 H 251.8 c -5,0 -9.1,-4.1 -9.1,-9.1 0,-0.9 0.2,-1.8 0.4,-2.7 2,-6.6 4.6,-13 7.7,-19.3 1.8,-3.6 5.4,-5.9 9.4,-5.9 h 139.2 c 2.4,0.2 4.8,1.3 6.3,3.3 z m -16.5,-17.6 v 0 c 1.7,1.4 1.9,4 0.5,5.8 -0.8,0.9 -1.9,1.4 -3.1,1.4 H 270.7 c -3.3,0 -6,-2.7 -6,-6 0,-1.5 0.5,-2.9 1.5,-4 9.3,-10.6 20.4,-18.2 32.6,-21.8 4,-1.2 8.1,-2 12.2,-2.3 h 0.1 c 1.2,-0.1 2.4,-0.1 3.6,-0.1 h 2 c 26.6,-0.1 52.4,9.5 72.5,27 z"
         id="path9516"
         style="stroke-width:8.27858" /><path
         d="m 416.9,715.4 c -24.6,32.5 -62.4,48.7 -100.2,48.7 -37.8,0 -75.6,-16.3 -100.2,-48.7 32.2,10.5 66.2,15.8 100.2,15.8 34,0 68,-5.3 100.2,-15.8 z"
         id="path9518"
         style="stroke-width:8.27858" /><path
         d="m 122.6,261.3 h -0.9 c -11.1,-0.2 -20.3,8.6 -20.5,19.7 -0.3,11.1 8.6,20.3 19.6,20.5 0.3,0 0.6,0 0.9,0 11.1,0.3 20.3,-8.5 20.5,-19.6 0.3,-11.1 -8.5,-20.3 -19.6,-20.6 z m -0.9,27.9 c -4.3,-0.1 -7.7,-3.6 -7.7,-7.9 0.1,-4.3 3.6,-7.8 7.9,-7.7 4.3,0.1 7.7,3.6 7.7,7.8 0,4.4 -3.6,7.9 -7.9,7.8 z"
         id="path9520"
         style="stroke-width:8.27858" /><path
         d="m 153.4,328 c -0.1,5.1 -4.3,9.3 -9.4,9.2 0,0 0,0 0,0 h -29.6 c -25.2,0 -27,-23.8 -26.8,-32.7 0,-0.7 0.6,-1.3 1.4,-1.3 0.4,0 0.7,0.2 0.9,0.4 3.7,4 12.1,11.5 21.8,11.5 H 144 c 5.1,-0.1 9.3,4 9.4,9.2 0,0 0,0 0,0 z"
         id="path9522"
         style="stroke-width:8.27858" /><path
         d="m 166.7,394.8 c 1.9,4.5 -0.3,9.7 -4.8,11.5 -0.1,0 -0.1,0.1 -0.2,0.1 l -21.4,8.6 c -13,5.2 -41.8,5.4 -44,1 -1.6,-3.3 18,-15.8 23,-17.8 l 26.5,-12 c 8.1,-3.3 17.4,0.5 20.9,8.6 z"
         id="path9524"
         style="stroke-width:8.27858" /><path
         d="m 150.9,363.1 c 0,5.1 -4.2,9.2 -9.3,9.2 0,0 0,0 0,0 H 111 c -26.3,0 -28.8,-27.6 -28.4,-35.5 0,-0.4 0.3,-0.6 0.7,-0.6 0.2,0 0.4,0.1 0.5,0.3 2.6,4.1 9.7,13.9 20.1,13.9 h 37.7 c 5.1,-0.1 9.3,4 9.4,9.2 0,0 0,0 0,0 z"
         id="path9526"
         style="stroke-width:8.27858" /><path
         d="m 180,411.4 9.8,5.3 c 3.1,1.7 4.3,5.6 2.6,8.8 -0.5,1 -1.4,1.9 -2.3,2.4 l -30,18.4 c -4.6,2.8 -9.6,1.3 -6.1,-6.3 2.6,-5.7 13.9,-20.1 19.1,-27.2 1.5,-2.1 4.5,-2.7 6.9,-1.4 z"
         id="path9528"
         style="stroke-width:8.27858" /><path
         d="m 539.5,550.6 2.7,-1 c 9.7,-3.4 13.5,-12 9.7,-21.8 l -17.3,-41.7 c 0.2,0.7 2.6,8.4 -7.3,13.5 -9.3,4.8 -41.4,22.7 -48.1,26.4 -0.4,0.3 -0.6,0.8 -0.4,1.2 0.1,0.1 0.2,0.2 0.3,0.3 8.3,5.8 18.4,8.6 28.6,7.9 10.5,-0.8 16.1,-0.9 18.9,-0.9 1.5,0 2.7,1.2 2.7,2.8 0,0 0,0.1 0,0.1 -0.9,16.3 -27.6,18.2 -27.6,18.2 -49.4,0.8 -58.7,10.3 -58.7,10.3 l 7.6,18.7 c 0,0 14.4,-0.5 23,1.1 8.6,1.7 9.8,4.3 10.5,6.4 4.7,13.1 -85.1,50.5 -167.5,50.5 -82.4,0 -172.3,-37.4 -167.6,-50.5 0.8,-2.1 2,-4.7 10.6,-6.4 8.6,-1.7 23,-1.1 23,-1.1 l 7.6,-18.7 c 0,0 -9.3,-9.6 -58.7,-10.4 0,0 -26.7,-1.8 -27.6,-18.1 -0.1,-1.5 1.1,-2.8 2.6,-2.9 0.1,0 0.1,0 0.2,0 2.8,0 8.4,0.2 18.9,0.9 10.1,0.7 20.2,-2.1 28.6,-7.9 0.4,-0.3 0.5,-0.8 0.2,-1.2 -0.1,-0.1 -0.2,-0.2 -0.3,-0.3 -6.7,-3.7 -38.9,-21.7 -48.1,-26.4 -9.4,-4.9 -7.7,-12.1 -7.3,-13.4 l -17.3,41.6 c -3.8,9.8 0.1,18.4 9.7,21.8 l 2.7,1 -10.9,38 c -1.9,6.5 -0.5,10.8 5.4,14 l 14.8,7.8 c 9.3,4.9 20.2,5.5 30,1.8 l 1.4,-0.5 -6.3,44.3 c -0.7,4.4 1.4,8.8 5.2,11.3 21.3,13.2 95.3,53.4 183.3,53.4 88,0 162.1,-40.2 183.4,-53.4 3.8,-2.4 5.8,-6.8 5.2,-11.3 l -6.3,-44.3 1.3,0.5 c 9.8,3.7 20.7,3 30.1,-1.8 l 15.3,-7.9 c 5.9,-3.2 6.9,-6.8 5,-13.3 z m -306,135.6 c -0.1,2.4 -3.2,2.9 -9.3,1.2 -10.5,-2.9 -20.9,-6.3 -31.1,-10.3 -5.9,-2.2 -8.7,-4.7 -8.5,-7 0.9,-11.8 1.8,-23.6 2.7,-35.5 4,1.7 8.1,3.2 12.1,4.8 -0.7,10.1 -1.4,20.3 -2.1,30.4 7.8,2.9 15.7,5.5 23.7,7.8 0.6,-10.2 1.1,-20.4 1.7,-30.6 4.1,1.2 8.3,2.3 12.5,3.4 -0.5,11.9 -1.1,23.9 -1.7,35.8 z m 71.8,13.6 c -4.2,-0.1 -8.5,-0.4 -12.7,-0.7 -7.6,-8.8 -15.1,-17.9 -22.4,-27.3 0.6,1.3 0.9,2.3 0.8,3 -0.2,7.3 -0.4,14.7 -0.6,22 -4.7,-0.6 -9.3,-1.4 -14,-2.2 0.5,-13.2 0.9,-26.3 1.4,-39.5 4.1,0.7 8.2,1.4 12.3,1.9 7.3,9.2 14.7,18.1 22.2,26.8 -0.6,-1.3 -0.9,-2.3 -0.9,-2.9 0.1,-7.2 0.2,-14.4 0.3,-21.6 4.6,0.4 9.2,0.6 13.8,0.8 -0.1,13.3 -0.2,26.5 -0.2,39.7 z m 63.5,-3.7 c -9.8,1.5 -19.6,2.5 -29.4,3.2 -5.9,0.4 -8.9,-0.8 -8.9,-3.1 0,-3.1 -0.1,-6.3 -0.1,-9.4 4.9,-0.2 9.7,-0.5 14.6,-0.9 0,1.4 0,4.2 0,5.6 5.9,-0.5 11.9,-1.1 17.8,-1.9 0,-1.4 0,-4 0,-5.3 -9.8,-2.4 -19.6,-5.3 -29.3,-8.6 -2.1,-0.7 -3.2,-1.7 -3.2,-3 0,-2.9 0,-5.9 -0.1,-8.8 0,-2.4 2.9,-3.7 8.6,-4.1 9.6,-0.6 19.2,-1.7 28.8,-3.1 5.8,-0.9 8.7,-0.2 8.7,2.2 0.1,2.9 0.2,5.9 0.3,8.8 -4.8,0.9 -9.5,1.6 -14.3,2.2 0,-1.2 -0.1,-2.5 -0.1,-3.7 -5.9,0.8 -11.7,1.4 -17.6,1.9 0,1.1 0,2.3 0.1,3.4 9.7,3 19.4,5.5 29.2,7.6 2.1,0.5 3.2,1.3 3.2,2.7 0.1,3.1 0.2,6.3 0.3,9.4 0.2,2.3 -2.8,4 -8.6,4.9 z m 72,-19 c -10,3.8 -20.1,7.2 -30.3,10 -5.8,1.6 -8.8,1.1 -8.9,-1.3 -0.5,-10.7 -1,-21.4 -1.6,-32.2 -0.1,-2.4 2.7,-4.3 8.4,-5.9 10,-2.8 19.9,-6.1 29.6,-9.8 5.7,-2.2 8.6,-2.2 8.8,0.2 0.3,3.7 0.6,7.3 0.9,11 -4.7,1.9 -9.3,3.8 -14.1,5.5 -0.1,-2 -0.3,-3.9 -0.4,-5.9 -6.8,2.5 -13.6,4.7 -20.5,6.7 0.4,7.3 0.8,14.5 1.2,21.8 7,-2 13.9,-4.3 20.8,-6.8 -0.1,-2.1 -0.3,-4.3 -0.4,-6.4 4.7,-1.7 9.4,-3.6 14.1,-5.5 0.3,3.8 0.6,7.7 0.9,11.5 0.2,2.4 -2.6,4.9 -8.5,7.1 z"
         id="path9530"
         style="stroke-width:8.27858" /><path
         d="m 211.2,430.6 14.2,6.5 c 2.5,1.1 3.7,4.1 2.6,6.6 -0.2,0.6 -0.6,1.1 -1,1.5 l -14.8,15 c -1.6,1.6 -4.3,1.7 -5.9,0 -0.8,-0.8 -1.2,-1.8 -1.2,-2.9 L 205,434.4 c 0,-2.4 2.1,-4.4 4.5,-4.4 0.5,0.2 1.1,0.4 1.7,0.6 z"
         id="path9532"
         style="stroke-width:8.27858" /><path
         d="m 243.7,446.2 12.9,4.5 c 3.3,1.1 5.1,4.6 4,7.9 -0.5,1.5 -1.5,2.7 -2.8,3.5 l -11.9,7 c -2.1,1.3 -4.9,0.6 -6.1,-1.5 -0.4,-0.7 -0.6,-1.5 -0.6,-2.4 l 0.6,-16.3 c 0.1,-1.6 1.6,-2.9 3.2,-2.7 0.2,-0.1 0.4,-0.1 0.7,0 z"
         id="path9534"
         style="stroke-width:8.27858" /><path
         d="m 512.2,261.3 c 0,0 0,0 0,0 -11.1,0.3 -19.9,9.5 -19.7,20.5 0.3,11.1 9.4,19.9 20.5,19.6 10.9,-0.2 19.6,-9.2 19.7,-20.1 -0.1,-11.1 -9.3,-20.1 -20.5,-20 z m 0,27.9 c -4.3,-0.1 -7.7,-3.6 -7.7,-7.9 0.1,-4.3 3.6,-7.8 7.9,-7.7 4.3,0.1 7.7,3.6 7.7,7.8 0,4.4 -3.6,7.9 -7.9,7.8 z"
         id="path9536"
         style="stroke-width:8.27858" /><path
         d="m 480.5,328 c 0.1,5.1 4.3,9.3 9.4,9.2 h 29.6 c 25.2,0 27,-23.8 26.8,-32.7 0,-0.7 -0.6,-1.3 -1.4,-1.3 -0.3,0 -0.7,0.2 -0.9,0.4 -3.7,4 -12.1,11.5 -21.8,11.5 h -32.3 c -5.1,-0.1 -9.3,4.1 -9.4,9.2 0,0 0,0 0,0 z"
         id="path9538"
         style="stroke-width:8.27858" /><path
         d="m 469.1,394.8 c -1.9,4.5 0.3,9.7 4.8,11.5 0.1,0 0.1,0.1 0.2,0.1 l 21.4,8.6 c 13,5.2 41.8,5.4 44,1 1.6,-3.3 -18,-15.8 -23,-17.8 l -26.5,-12 c -8.1,-3.2 -17.4,0.6 -20.9,8.6 z"
         id="path9540"
         style="stroke-width:8.27858" /><path
         d="m 483,363.1 c 0,5.1 4.2,9.2 9.3,9.2 0,0 0,0 0,0 h 30.6 c 26.4,0 28.8,-27.6 28.5,-35.5 0,-0.4 -0.3,-0.6 -0.7,-0.6 -0.2,0 -0.4,0.1 -0.5,0.3 -2.6,4.1 -9.7,13.9 -20.1,13.9 h -37.7 c -5.1,-0.1 -9.3,4 -9.4,9.2 0,0 0,0 0,0 z"
         id="path9542"
         style="stroke-width:8.27858" /><path
         d="m 453.8,411.4 -9.8,5.3 c -3.1,1.7 -4.3,5.6 -2.6,8.7 0.5,1 1.4,1.9 2.3,2.5 l 30,18.4 c 4.6,2.8 9.6,1.3 6.2,-6.3 -2.6,-5.7 -13.9,-20.1 -19.1,-27.2 -1.6,-2.1 -4.6,-2.7 -7,-1.4 z"
         id="path9544"
         style="stroke-width:8.27858" /><path
         d="m 422.6,430.6 -14.2,6.5 c -2.5,1.1 -3.7,4.1 -2.5,6.7 0.2,0.5 0.6,1 1,1.5 l 14.8,15 c 1.6,1.6 4.3,1.7 5.9,0 0.8,-0.8 1.2,-1.8 1.2,-2.9 l 0.1,-22.9 c 0,-2.4 -2.1,-4.4 -4.5,-4.4 -0.6,0.1 -1.2,0.3 -1.8,0.5 z"
         id="path9546"
         style="stroke-width:8.27858" /><path
         d="m 390.1,446.2 -12.9,4.5 c -3.3,1.1 -5.1,4.6 -4,7.9 0.5,1.5 1.5,2.7 2.8,3.5 l 11.9,7 c 2.1,1.3 4.8,0.6 6.1,-1.5 0.4,-0.7 0.7,-1.6 0.6,-2.4 L 394,448.9 c -0.1,-1.6 -1.6,-2.9 -3.2,-2.7 -0.2,-0.1 -0.4,-0.1 -0.7,0 z"
         id="path9548"
         style="stroke-width:8.27858" /></g><text
       xml:space="preserve"
       style="font-size:4.23333px;font-family:'Cascadia Code';-inkscape-font-specification:'Cascadia Code';text-align:center;text-anchor:middle;fill:#000000;fill-opacity:1;stroke:none;stroke-width:3;stroke-linecap:round;stroke-dasharray:none;stroke-opacity:1;paint-order:fill markers stroke"
       x="489.61383"
       y="189.3952"
       id="text9574"><tspan
         sodipodi:role="line"
         style="stroke-width:3"
         x="489.61383"
         y="189.3952"
         id="tspan9576">COL</tspan></text><path
       style="fill:none;fill-opacity:1;stroke:#000000;stroke-width:3;stroke-linecap:round;stroke-dasharray:none;stroke-opacity:1;paint-order:fill markers stroke"
       d="m 329.59062,162.60976 11.95342,11.95342 11.95341,-11.95342"
       id="path9632" /><path
       style="fill:none;fill-opacity:1;stroke:#000000;stroke-width:3;stroke-linecap:round;stroke-dasharray:none;stroke-opacity:1;paint-order:fill markers stroke"
       d="m 329.59062,167.90143 11.95342,11.95342 11.95341,-11.95342"
       id="path9634" /><text
       xml:space="preserve"
       style="font-size:4.23333px;font-family:'Cascadia Code';-inkscape-font-specification:'Cascadia Code';text-align:center;text-anchor:middle;fill:#000000;fill-opacity:1;stroke:none;stroke-width:3;stroke-linecap:round;stroke-dasharray:none;stroke-opacity:1;paint-order:fill markers stroke"
       x="342.72202"
       y="193.37744"
       id="text9638"><tspan
         sodipodi:role="line"
         id="tspan9636"
         style="stroke-width:3"
         x="342.72202"
         y="193.37744">MAJ</tspan><tspan
         sodipodi:role="line"
         style="stroke-width:3"
         x="342.72202"
         y="198.6691"
         id="tspan9644">(ODST)</tspan></text><path
       style="fill:none;stroke:#000000;stroke-width:3;stroke-linecap:round;stroke-dasharray:none;stroke-opacity:1;paint-order:fill markers stroke"
       d="m 341.54403,145.36468 -11.95342,11.95342 11.95342,11.95341 11.95342,-11.95341 z"
       id="path9640" /><path
       id="path9642"
       style="fill:#000000;fill-opacity:1;stroke:none;stroke-width:3.00001;stroke-linecap:round;stroke-dasharray:none;stroke-opacity:1;paint-order:fill markers stroke"
       d="m 338.68866,150.81865 -1.32296,9.3899 1.36308,1.7443 0.0201,1.39444 2.79515,0.47025 2.79514,-0.47025 0.0201,-1.39444 1.36309,-1.7443 -1.32296,-9.3899 h -1.50354 l -0.79628,3.12119 h -1.11104 l -0.79629,-3.12119 z"
       sodipodi:nodetypes="cccccccccccccc" /><text
       xml:space="preserve"
       style="font-size:4.23333px;font-family:'Cascadia Code';-inkscape-font-specification:'Cascadia Code';text-align:center;text-anchor:middle;fill:#000000;fill-opacity:1;stroke:none;stroke-width:3;stroke-linecap:round;stroke-dasharray:none;stroke-opacity:1;paint-order:fill markers stroke"
       x="440.04559"
       y="189.88992"
       id="text9650"><tspan
         sodipodi:role="line"
         id="tspan9648"
         style="stroke-width:3"
         x="440.04559"
         y="189.88992">LTCOL</tspan></text><text
       xml:space="preserve"
       style="font-size:4.23333px;font-family:'Cascadia Code';-inkscape-font-specification:'Cascadia Code';text-align:center;text-anchor:middle;fill:#000000;fill-opacity:1;stroke:none;stroke-width:3;stroke-linecap:round;stroke-dasharray:none;stroke-opacity:1;paint-order:fill markers stroke"
       x="521.25409"
       y="189.68033"
       id="text9658"><tspan
         sodipodi:role="line"
         id="tspan9656"
         style="stroke-width:3"
         x="521.25409"
         y="189.68033">BGEN-GEN</tspan></text><text
       xml:space="preserve"
       style="font-size:4.23333px;font-family:'Cascadia Code';-inkscape-font-specification:'Cascadia Code';text-align:center;text-anchor:middle;fill:#000000;fill-opacity:1;stroke:none;stroke-width:3;stroke-linecap:round;stroke-dasharray:none;stroke-opacity:1;paint-order:fill markers stroke"
       x="521.46368"
       y="165.5773"
       id="text9662"><tspan
         sodipodi:role="line"
         id="tspan9660"
         style="stroke-width:3"
         x="521.46368"
         y="165.5773">Stars</tspan></text><text
       xml:space="preserve"
       style="font-size:4.23333px;font-family:'Cascadia Code';-inkscape-font-specification:'Cascadia Code';text-align:center;text-anchor:middle;fill:#000000;fill-opacity:1;stroke:none;stroke-width:3;stroke-linecap:round;stroke-dasharray:none;stroke-opacity:1;paint-order:fill markers stroke"
       x="440.16464"
       y="159.46707"
       id="text9666"><tspan
         sodipodi:role="line"
         id="tspan9664"
         style="stroke-width:3"
         x="440.16464"
         y="159.46707">idk what do do for these</tspan><tspan
         sodipodi:role="line"
         style="stroke-width:3"
         x="440.16464"
         y="164.75873"
         id="tspan9668">field grade is way out</tspan><tspan
         sodipodi:role="line"
         style="stroke-width:3"
         x="440.16464"
         y="170.0504"
         id="tspan9670">of scope for us anyway</tspan><tspan
         sodipodi:role="line"
         style="stroke-width:3"
         x="440.16464"
         y="175.34206"
         id="tspan9672">so eh</tspan></text><text
       xml:space="preserve"
       style="font-size:4.23333px;font-family:'Cascadia Code';-inkscape-font-specification:'Cascadia Code';text-align:center;text-anchor:middle;fill:none;fill-opacity:0.960366;stroke:#0a193d;stroke-width:0.499999;stroke-linecap:round;paint-order:fill markers stroke"
       x="418.87103"
       y="188.19998"
       id="text1082"><tspan
         sodipodi:role="line"
         id="tspan1080"
         style="stroke-width:0.5"
         x="418.87103"
         y="188.19998">??????</tspan></text><text
       xml:space="preserve"
       style="font-size:4.23333px;font-family:'Cascadia Code';-inkscape-font-specification:'Cascadia Code';text-align:center;text-anchor:middle;fill:none;fill-opacity:0.960366;stroke:#0a193d;stroke-width:0.499999;stroke-linecap:round;paint-order:fill markers stroke"
       x="521.36127"
       y="153.61739"
       id="text1086"><tspan
         sodipodi:role="line"
         id="tspan1084"
         style="stroke-width:0.5"
         x="521.36127"
         y="153.61739">???????</tspan></text><text
       xml:space="preserve"
       style="font-size:4.23333px;font-family:'Cascadia Code';-inkscape-font-specification:'Cascadia Code';text-align:center;text-anchor:middle;fill:none;fill-opacity:0.960366;stroke:#0a193d;stroke-width:0.499999;stroke-linecap:round;paint-order:fill markers stroke"
       x="299.26196"
       y="-27.38139"
       id="text1231"><tspan
         sodipodi:role="line"
         id="tspan1229"
         style="fill:#000000;fill-opacity:1;stroke:none;stroke-width:0.5"
         x="299.26196"
         y="-27.38139">These are UNICOM</tspan><tspan
         sodipodi:role="line"
         style="fill:#000000;fill-opacity:1;stroke:none;stroke-width:0.5"
         x="299.26196"
         y="-22.089727"
         id="tspan1233" /><tspan
         sodipodi:role="line"
         style="fill:#000000;fill-opacity:1;stroke:none;stroke-width:0.5"
         x="299.26196"
         y="-16.798065"
         id="tspan1235">NAVCOM is prolly similar but idk</tspan></text></g></svg>
