<?xml version="1.0" encoding="UTF-8" standalone="no"?>
<!-- Created with Inkscape (http://www.inkscape.org/) -->

<svg
   width="92.550781mm"
   height="134.57158mm"
   viewBox="0 0 92.550781 134.57158"
   version="1.1"
   id="svg5"
   xml:space="preserve"
   inkscape:version="1.2.1 (9c6d41e410, 2022-07-14)"
   sodipodi:docname="valkyrie.svg"
   inkscape:export-filename="valkyrie.png"
   inkscape:export-xdpi="283.12"
   inkscape:export-ydpi="283.12"
   xmlns:inkscape="http://www.inkscape.org/namespaces/inkscape"
   xmlns:sodipodi="http://sodipodi.sourceforge.net/DTD/sodipodi-0.dtd"
   xmlns="http://www.w3.org/2000/svg"
   xmlns:svg="http://www.w3.org/2000/svg"><sodipodi:namedview
     id="namedview7"
     pagecolor="#505050"
     bordercolor="#eeeeee"
     borderopacity="1"
     inkscape:showpageshadow="0"
     inkscape:pageopacity="0"
     inkscape:pagecheckerboard="0"
     inkscape:deskcolor="#505050"
     inkscape:document-units="mm"
     showgrid="false"
     inkscape:zoom="1.7852694"
     inkscape:cx="182.32543"
     inkscape:cy="251.50266"
     inkscape:window-width="2560"
     inkscape:window-height="1387"
     inkscape:window-x="1912"
     inkscape:window-y="892"
     inkscape:window-maximized="1"
     inkscape:current-layer="layer1" /><defs
     id="defs2" /><g
     inkscape:label="Layer 1"
     inkscape:groupmode="layer"
     id="layer1"
     transform="translate(-250.7819,-154.9774)"><path
       id="path416"
       style="fill:#103d63;stroke:none;stroke-width:1;fill-opacity:1"
       d="m 311.09057,154.97814 c -0.67118,-0.009 -1.32305,0.0589 -1.71411,0.36638 -1.12816,0.88667 -1.0291,4.96413 -1.21801,6.34277 -0.70167,5.1185 -1.40552,10.24492 -2.22467,15.34583 -0.22331,1.38959 -0.0602,4.36787 -1.10898,5.39709 -0.80854,0.79375 -2.77452,0.42375 -3.8101,0.42375 -3.48482,0 -7.11179,0.29246 -10.58178,-0.0155 -2.38495,-0.2114 -2.10316,-4.76869 -2.40347,-6.59908 -0.77867,-4.74452 -1.39781,-9.5254 -2.06138,-14.2875 -0.25294,-1.8157 -0.13012,-4.63906 -0.98391,-6.26577 -0.50958,-0.97111 -2.38102,-0.61339 -3.28404,-0.61339 h -9.78959 c -0.42067,5.28546 -2.03615,10.65993 -3.01325,15.875 -1.76266,9.40777 -3.34474,18.85237 -4.81159,28.31041 -1.34832,8.69445 -2.4061,17.44347 -3.24218,26.19375 -0.39635,4.1476 0.047,8.61151 -0.6134,12.69535 -0.26432,1.63512 -2.41525,1.95851 -3.66541,2.62155 -2.22593,1.18031 -4.5312,2.85918 -5.41104,5.3206 -2.19867,6.14997 6.02424,7.04824 7.17941,11.64167 0.23019,0.91546 0.50934,2.81411 0.21962,3.70417 -0.49636,1.5253 -2.18429,2.71092 -1.526,4.49791 0.55562,1.50813 2.33836,2.8795 3.50676,3.92276 3.12817,2.7932 6.55321,5.32921 9.78958,8.00468 4.81832,3.9833 10.57118,9.11136 16.66875,10.94042 3.55123,1.06521 7.95711,0.68032 11.64167,0.68006 2.89322,-2.6e-4 6.53389,0.12917 9.26042,-0.91726 6.39522,-2.45454 12.26264,-7.65021 17.4625,-11.9817 3.57847,-2.98104 9.41244,-6.21773 11.66905,-10.38437 0.89799,-1.65841 -0.72002,-3.08954 -1.341,-4.49792 -0.4363,-0.98928 -0.22751,-3.52746 0.26303,-4.49688 1.69016,-3.34036 6.61584,-4.29445 7.31273,-8.4677 0.62256,-3.72904 -2.8895,-6.41053 -5.73298,-7.97316 -1.23746,-0.67998 -3.40216,-0.99055 -3.66489,-2.61483 -0.67389,-4.16743 -0.20885,-8.72661 -0.6134,-12.95993 -0.87921,-9.20245 -2.11841,-18.36714 -3.46646,-27.51667 -1.32898,-9.02254 -2.91127,-18.03349 -4.63847,-26.9875 -0.98663,-5.11424 -2.5496,-10.42232 -2.96261,-15.61041 h -9.26042 c -0.46884,0 -1.1592,-0.0857 -1.83038,-0.0946 z m -14.01568,31.52727 c 0.32049,0.006 0.63033,0.0617 0.86248,0.14831 0.79782,0.29766 0.60136,1.22231 1.19476,1.66708 0.47511,0.35614 1.50386,0.22778 1.78697,0.75448 0.23431,0.43607 0.15847,1.03597 0.14728,1.51154 -0.019,0.80123 -0.0422,1.63324 0.006,2.43241 h -2.27066 v 12.32483 3.1352 c 0,0.38127 -0.1148,0.97747 0.12506,1.2976 0.27293,0.36429 0.84933,1.05184 1.28054,1.21078 0.50014,0.18439 1.30564,0.0326 1.83761,0.0326 h 3.45974 c 0.46527,0 1.12632,0.11991 1.56786,-0.032 0.29737,-0.10234 0.51978,-0.39802 0.75655,-0.5917 0.52776,-0.43177 1.91711,-1.1331 2.57865,-0.58033 0.31762,0.26538 0.12454,1.35294 0.12454,1.7446 v 5.13509 c -0.90263,0.17503 -2.01834,0.14468 -2.75642,-0.49765 -0.28095,-0.24444 -0.47136,-0.96114 -0.8139,-1.05265 -0.57143,-0.15279 -1.3518,-0.0171 -1.94356,-0.0171 -1.49404,0 -2.98968,0.0537 -4.48706,0.0537 0.20585,1.05794 0,2.37391 0,3.45974 v 7.35149 c 0,7.62172 0.0238,15.24594 0.0233,22.86631 -1.5e-4,2.45256 -0.82652,5.11547 -1.90221,7.29774 -0.26371,0.53518 -1.00152,2.06551 -1.79678,1.84278 -0.78669,-0.22054 -1.31911,-1.66144 -1.61438,-2.32957 -1.11849,-2.53148 -1.6831,-5.12812 -1.6831,-7.89203 V 215.1822 c -1.51564,0 -3.02824,-0.0537 -4.54081,-0.0537 -0.56938,0 -1.33831,-0.13673 -1.88619,0.0171 -0.33778,0.0948 -0.52554,0.84559 -0.82579,1.08366 -0.76302,0.60512 -1.84127,0.6374 -2.74763,0.46664 v -5.13509 c 0,-0.38931 -0.1855,-1.45732 0.12506,-1.72909 0.69149,-0.60528 2.1323,0.16927 2.68562,0.61908 0.20819,0.16919 0.39128,0.44205 0.64854,0.53692 0.50012,0.1844 1.30616,0.0326 1.83813,0.0326 h 3.45974 c 0.46471,0 1.12664,0.12041 1.56734,-0.032 0.45149,-0.15612 1.05309,-0.89025 1.33429,-1.26556 0.23983,-0.32013 0.12557,-0.91634 0.12557,-1.2976 v -3.13521 -12.27056 h -2.26963 c 0,-0.95579 -0.0526,-1.91326 -0.0537,-2.86495 -5.6e-4,-0.3651 -0.024,-0.88696 0.23875,-1.17718 0.44358,-0.49007 1.36879,-0.2499 1.84794,-0.78032 0.30331,-0.3358 0.29878,-0.87286 0.58757,-1.2268 0.28421,-0.34845 0.84817,-0.47498 1.38234,-0.46457 z m 8.36331,12.62249 c 4.21093,0.52911 7.60314,3.40701 10.65723,6.09575 0.74008,0.65149 1.43718,1.37076 2.23191,1.95854 0.17489,0.12942 0.66832,0.57394 0.86506,0.2713 0.26643,-0.41031 -0.33069,-1.48524 -0.52606,-1.85829 -0.58524,-1.11808 -1.22067,-2.20352 -2.01538,-3.18843 -0.34841,-0.43143 -1.10473,-0.90706 -1.28416,-1.4118 0.93865,0.14072 1.91977,1.00016 2.68717,1.51825 2.65471,1.79199 4.89462,4.04772 5.84874,7.18044 0.43677,1.43443 0.78433,2.87286 1.14773,4.32687 0.0875,0.35004 0.14657,1.26432 0.49041,1.45882 0.17717,0.10034 0.29199,-0.15038 0.34572,-0.27491 0.1635,-0.37789 0.27792,-0.77931 0.35346,-1.18391 0.30565,-1.63686 0.40934,-3.31935 0.10284,-4.96404 h 0.0455 c 0.65627,1.12428 1.03207,2.4716 1.30534,3.73414 0.36089,1.66785 0.53785,3.34896 0.37207,5.0555 -0.3739,3.84937 -2.53669,7.41766 -5.22965,10.1105 -1.46786,1.46766 -3.14307,2.83866 -5.10098,3.59823 0.35707,-0.84933 1.21951,-1.98955 0.0909,-2.69596 -1.03519,-0.64784 -2.82118,-0.15103 -3.96203,-0.092 -2.70343,0.13996 -5.76644,-0.23037 -7.92458,-2.02881 -0.7905,-0.65873 -1.68168,-1.66299 -1.77612,-2.7435 3.88103,1.44704 10.10256,1.93257 12.41888,-2.36833 0.63032,-1.17036 0.78858,-2.56382 0.78858,-3.87109 0,-2.98038 -0.97847,-6.03778 -2.4536,-8.60774 -1.65322,-2.88005 -4.27726,-5.1092 -6.65437,-7.37423 -0.64053,-0.61028 -1.30016,-1.20041 -1.94614,-1.80454 -0.28629,-0.26771 -0.68167,-0.49705 -0.8785,-0.84077 z m -17.12918,0.0212 c 0.12761,-0.003 0.25114,0.004 0.36897,0.0243 -0.85725,0.92713 -1.8949,1.73818 -2.8236,2.59571 -3.20028,2.95498 -6.38076,5.95095 -7.95094,10.11101 -0.81313,2.15428 -1.3511,4.61448 -1.12034,6.92258 0.11144,1.11468 0.35759,2.28485 0.98753,3.23339 2.63793,3.97204 8.31129,3.21812 12.1822,1.95854 -0.0926,1.06023 -0.96939,2.03843 -1.73064,2.69957 -2.15023,1.86746 -5.29191,2.19988 -8.01553,2.06499 -1.12657,-0.0557 -2.89761,-0.54252 -3.91656,0.0997 -1.12432,0.70869 -0.26824,1.8407 0.0909,2.69596 -1.97211,-0.76513 -3.68635,-2.14644 -5.14697,-3.64371 -3.43805,-3.5244 -5.7528,-8.14675 -5.15266,-13.16198 0.17727,-1.48149 0.50354,-2.93052 1.03508,-4.32687 0.14846,-0.38998 0.31149,-1.11482 0.65681,-1.36581 -0.30286,1.62586 -0.18577,3.25272 0.0879,4.87309 0.0859,0.50904 0.19208,1.42211 0.73225,1.63917 0.4007,-1.03282 0.57323,-2.11566 0.8413,-3.18792 0.50162,-2.0064 1.11397,-4.08336 2.25929,-5.82961 0.94984,-1.44829 2.36163,-2.54647 3.72329,-3.58221 0.6969,-0.53009 1.4329,-1.01121 2.19366,-1.44643 0.35314,-0.20202 0.73059,-0.46423 1.13843,-0.52761 h 5.2e-4 c -0.24839,0.52825 -0.9147,0.94303 -1.28054,1.4118 -0.78623,1.00741 -1.40624,2.07051 -2.01797,3.18792 -0.2253,0.41154 -0.39953,0.86691 -0.51986,1.32085 -0.0445,0.16505 -0.11689,0.42061 0.006,0.56999 0.20906,0.25481 0.73201,-0.22565 0.89711,-0.34417 0.8204,-0.58927 1.51502,-1.34399 2.27738,-2.00194 1.20411,-1.03921 2.34473,-2.12869 3.6437,-3.05563 1.17245,-0.83667 2.50459,-1.5008 3.82561,-2.06447 0.74131,-0.31633 1.8347,-0.8488 2.728,-0.87024 z m -28.30474,41.91321 c 0.14922,7.01065 7.49757,7.63769 11.61738,11.21327 0.88397,0.7673 3.17619,4.17931 1.52704,5.17229 -1.48696,0.89535 -5.34476,-1.72896 -7.059,-1.91099 -2.34288,-0.24898 -3.58246,1.78408 -5.29167,2.98793 -1.99944,-4.5458 -12.76609,-8.56172 -6.86831,-14.2627 0.70935,-0.68554 1.52559,-1.21557 2.3704,-1.71669 1.16523,-0.69109 2.36565,-1.25266 3.70416,-1.48311 z m 74.34792,0 c 1.39356,0.74216 2.88398,1.2283 4.23333,2.06809 0.73502,0.45746 1.43361,0.95637 1.96939,1.64693 4.54925,5.865 -6.61282,9.03023 -7.52564,13.74748 -1.88169,-1.51685 -3.09059,-3.53331 -5.82083,-3.13934 -1.54543,0.22302 -5.39287,2.75638 -6.71949,1.76526 -1.52795,-1.14221 0.80818,-4.379 1.70326,-5.15317 2.90248,-2.50931 6.98663,-2.71255 9.73274,-5.65392 1.58618,-1.69889 1.59962,-3.32738 2.42724,-5.28133 z m -6.68745,15.62747 c 0.66191,-3.9e-4 1.30641,0.14158 1.92495,0.51211 l -7.67292,4.7625 -1.5875,-3.70416 c 2.38849,0.25237 4.97152,-1.56905 7.33547,-1.57045 z m -63.42713,0.51211 8.99583,1.32292 -1.32292,3.70417 c -2.49342,-0.57203 -6.11822,-3.01282 -7.67291,-5.02709 z m 66.41041,0.52917 c 1.31049,1.51474 5.06446,5.52953 4.72685,7.67292 -0.23468,1.49064 -2.33157,2.79135 -3.40393,3.68297 -3.77188,3.13611 -7.93142,5.55083 -12.43542,7.46932 -14.34091,6.10816 -31.78019,5.68477 -46.0375,-0.41703 -4.22697,-1.80922 -8.4799,-4.25692 -11.90625,-7.34064 -0.92073,-0.82841 -3.01678,-2.32597 -3.10833,-3.65921 -0.14128,-2.05925 3.06177,-5.25464 4.16667,-6.87916 2.08677,0.80272 3.87324,2.47682 5.82083,3.59151 3.17818,1.81901 6.57516,3.29905 10.05417,4.43332 12.65738,4.12642 26.49063,3.96151 38.89375,-0.99994 4.81831,-1.92749 8.92891,-4.72143 13.22916,-7.55406 z m -62.9977,4.35425 -2.82205,8.24033 1.28571,0.81855 6.27352,-6.04252 -1.22577,-0.78083 -4.06125,3.85506 1.7756,-5.31027 z m 56.80067,1.34411 -4.87722,2.84065 4.26072,7.31635 4.87774,-2.84065 -0.71004,-1.21957 -3.65817,2.13062 -1.06557,-1.82883 1.82934,-1.06556 -0.71003,-1.21957 -1.82935,1.06557 -1.06505,-1.82935 3.65818,-2.1301 z m -47.86892,3.72432 -5.13922,7.03264 1.34204,0.55811 0.86765,-1.16789 1.85001,0.76895 -0.21549,1.43867 1.34204,0.55759 1.36012,-8.60309 z m 40.39961,0.23203 -1.31,0.52451 3.14658,7.8605 1.30999,-0.52451 z m -5.26222,1.80815 -4.12584,0.94723 1.89497,8.25221 1.37511,-0.31574 -0.78961,-3.43855 1.16892,-0.2682 2.24792,3.10317 1.49862,-0.34417 -2.2195,-3.10988 1.11414,-1.70378 -0.47387,-2.06292 z m -29.50414,0.03 -1.66501,8.3013 5.53403,1.11001 0.2775,-1.38338 -4.15065,-0.83251 1.38751,-6.91792 z m -6.0942,1.02371 -0.40256,2.65978 -1.19889,-0.49816 z m 28.64011,0.23616 -1.54874,0.1018 -0.9679,2.48202 -1.28519,-2.33371 -1.54875,0.1018 2.24948,4.09485 0.27802,4.22403 1.40818,-0.093 -0.27802,-4.22403 z m -14.24822,0.12299 -0.38758,8.45736 1.40922,0.0651 0.13074,-2.84789 0.62839,-0.76223 1.86293,3.73 1.60714,0.0739 -2.48305,-5.00124 2.87114,-3.45664 -1.76217,-0.0806 -2.61689,3.15691 0.14986,-3.27009 z m 20.95841,0.092 0.6935,0.43408 0.21445,0.93535 -0.43408,0.6935 -2.18695,0.50229 -0.47387,-2.06292 z" /><path
       style="fill:none;stroke:none;stroke-width:1.32292;stroke-linecap:round;stroke-opacity:1;paint-order:fill markers stroke"
       d="m 257.70563,265.08152 c 12.9885,10.50351 23.33456,14.19858 39.29317,14.19858 15.95861,0 26.60184,-3.68468 39.24943,-14.23563"
       id="path636"
       sodipodi:nodetypes="czc" /></g></svg>
