<?xml version="1.0" encoding="UTF-8" standalone="no"?>
<!-- Created with Inkscape (http://www.inkscape.org/) -->

<svg
   width="71.682419mm"
   height="43.108643mm"
   viewBox="0 0 71.682419 43.108643"
   version="1.1"
   id="svg5"
   xml:space="preserve"
   inkscape:version="1.2.1 (9c6d41e410, 2022-07-14)"
   sodipodi:docname="banshee.svg"
   xmlns:inkscape="http://www.inkscape.org/namespaces/inkscape"
   xmlns:sodipodi="http://sodipodi.sourceforge.net/DTD/sodipodi-0.dtd"
   xmlns="http://www.w3.org/2000/svg"
   xmlns:svg="http://www.w3.org/2000/svg"><sodipodi:namedview
     id="namedview7"
     pagecolor="#505050"
     bordercolor="#eeeeee"
     borderopacity="1"
     inkscape:showpageshadow="0"
     inkscape:pageopacity="0"
     inkscape:pagecheckerboard="0"
     inkscape:deskcolor="#505050"
     inkscape:document-units="mm"
     showgrid="false"
     inkscape:zoom="0.63118804"
     inkscape:cx="116.44707"
     inkscape:cy="123.57649"
     inkscape:window-width="2560"
     inkscape:window-height="1387"
     inkscape:window-x="1912"
     inkscape:window-y="892"
     inkscape:window-maximized="1"
     inkscape:current-layer="layer1" /><defs
     id="defs2" /><g
     inkscape:label="Layer 1"
     inkscape:groupmode="layer"
     id="layer1"
     transform="translate(-52.00772,-28.244147)"><path
       style="fill:#000000;stroke-width:1"
       d="m 83.361066,69.099458 c -1.17507,-1.23936 -4.24356,-4.40831 -6.81886,-7.0421 l -4.68238,-4.78872 -1.79991,0.10929 c -1.54357,0.0937 -2.28579,0.34302 -5.21133,1.75044 -2.87321,1.38223 -3.63473,1.64115 -4.82698,1.64115 -1.34596,0 -1.45307,-0.0517 -2.17775,-1.05214 -1.84141,-2.54199 -2.29618,-5.15325 -1.10495,-6.34448 0.47419,-0.4742 0.47378,-0.51122 -0.0148,-1.31456 -0.27648,-0.45464 -0.50269,-1.05812 -0.50269,-1.34108 0,-0.29983 -0.13799,-0.4639 -0.33073,-0.39326 -0.57453,0.21055 -0.89418,-0.2104 -1.91285,-2.51907 -2.47924,-5.61885 -2.57386,-7.33539 -0.5356,-9.71664 0.5099,-0.5957 0.92709,-1.33132 0.92709,-1.63469 0,-1.02297 2.94174,-2.76875 7.40834,-4.39651 1.6321,-0.59479 2.50104,-0.73574 4.89479,-0.79397 1.60073,-0.0389 4.45823,-0.19902 6.35,-0.35573 1.89177,-0.15672 5.99942,-0.29111 9.12812,-0.29866 6.92111,-0.0167 10.92747,-0.31 16.215094,-1.18709 2.21455,-0.36734 5.21687,-0.78362 6.67183,-0.92506 3.30629,-0.32141 9.6662,-0.34056 10.15567,-0.0306 0.3611,0.22869 0.27543,1.13987 -0.16577,1.76323 -0.11043,0.15601 -3.05828,1.74971 -6.55078,3.54154 -9.29895,4.77085 -9.31396,4.78113 -7.54754,5.1691 0.56924,0.12503 1.44195,-0.09 3.22139,-0.79364 2.75149,-1.08804 3.11231,-1.09184 8.40363,-0.0885 7.12172,1.35042 10.72021,3.21689 11.05804,5.7356 0.026,0.71835 0.052,1.43671 0.078,2.15506 0,0.36347 -0.40414,0.7295 -1.31511,1.19113 -0.95837,0.48564 -1.55952,1.04849 -2.21614,2.07495 -1.14983,1.79747 -4.1955,4.53188 -6.42794,5.771 -1.61848,0.89835 -1.89682,0.96517 -4.15596,0.99768 l -2.42131,0.0348 -3.30729,-1.88118 c -4.80608,-2.73369 -4.37381,-2.68702 -5.32726,-0.57519 -0.44298,0.98117 -1.279504,2.97456 -1.858944,4.42977 -0.57943,1.45521 -1.19387,2.78609 -1.36543,2.95753 -0.53245,0.53206 -3.49648,1.01979 -4.21313,0.69326 -0.35176,-0.16027 -1.15099,-1.19525 -1.82611,-2.36478 -0.66031,-1.14387 -1.9522,-3.30015 -2.87086,-4.79174 l -1.67029,-2.71198 h -1.83543 -1.83543 l 0.48737,0.7826 c 0.75184,1.20724 6.02664,9.11452 8.75561,13.12523 1.34607,1.97828 2.4474,3.7612 2.4474,3.96203 0,0.20531 -0.49222,0.49877 -1.12448,0.67042 -0.61847,0.1679 -1.65171,0.47033 -2.29609,0.67208 -0.64439,0.20174 -1.76656,0.36681 -2.49372,0.36681 -1.31569,0 -1.33248,-0.0109 -3.4586,-2.25339 z"
       id="path351"
       sodipodi:nodetypes="cscssscsssssssssssssssssssccsssscssssssscccsssssscc" /></g></svg>
