<?xml version="1.0" encoding="UTF-8" standalone="no"?>
<!-- Created with Inkscape (http://www.inkscape.org/) -->

<svg
   width="63.596626mm"
   height="60.12291mm"
   viewBox="0 0 63.596626 60.12291"
   version="1.1"
   id="svg5"
   xml:space="preserve"
   inkscape:version="1.2.1 (9c6d41e410, 2022-07-14)"
   sodipodi:docname="hunter.svg"
   xmlns:inkscape="http://www.inkscape.org/namespaces/inkscape"
   xmlns:sodipodi="http://sodipodi.sourceforge.net/DTD/sodipodi-0.dtd"
   xmlns="http://www.w3.org/2000/svg"
   xmlns:svg="http://www.w3.org/2000/svg"><sodipodi:namedview
     id="namedview7"
     pagecolor="#505050"
     bordercolor="#eeeeee"
     borderopacity="1"
     inkscape:showpageshadow="0"
     inkscape:pageopacity="0"
     inkscape:pagecheckerboard="0"
     inkscape:deskcolor="#505050"
     inkscape:document-units="mm"
     showgrid="false"
     inkscape:zoom="0.89263468"
     inkscape:cx="201.65024"
     inkscape:cy="7.8419539"
     inkscape:window-width="2560"
     inkscape:window-height="1387"
     inkscape:window-x="1912"
     inkscape:window-y="892"
     inkscape:window-maximized="1"
     inkscape:current-layer="layer1" /><defs
     id="defs2" /><g
     inkscape:label="Layer 1"
     inkscape:groupmode="layer"
     id="layer1"
     transform="translate(-41.093007,-86.248731)"><path
       style="fill:#000000;stroke-width:1"
       d="m 57.809886,146.27588 c -1.89178,-0.0884 -3.47162,-0.17765 -3.51077,-0.19844 -0.0392,-0.0208 0.004,-0.33545 0.0948,-0.69925 0.10514,-0.4189 0.0542,-0.66146 -0.13885,-0.66146 -0.16767,0 -0.2763,-0.14883 -0.24139,-0.33073 0.12755,-0.66461 -0.34874,-1.52135 -0.84575,-1.52135 -0.27788,0 -0.70493,-0.30476 -0.94899,-0.67725 -0.3031,-0.46259 -0.50541,-0.57747 -0.6383,-0.36244 -0.41899,0.67794 -2.45149,0.0335 -3.90525,-1.2382 -0.7562,-0.6615 -1.3749,-1.38519 -1.3749,-1.6082 0,-0.95456 3.566,-6.43145 4.18862,-6.43314 0.0974,-2.7e-4 0.13597,0.72778 0.0858,1.61789 -0.0689,1.223 -0.009,1.59094 0.24568,1.50609 0.18527,-0.0618 0.42895,-0.28379 0.54152,-0.49342 0.11256,-0.20961 0.81754,-1.51222 1.56661,-2.89466 0.74907,-1.38245 1.3882,-2.67162 1.42027,-2.86481 0.0633,-0.38142 3.20384,-1.52888 4.56926,-1.66948 0.543,-0.0559 1.10896,0.10651 1.5875,0.45562 1.42899,1.04248 2.29835,1.02542 1.14054,-0.0224 -0.61631,-0.55776 -0.67292,-1.15748 -0.17368,-1.84022 0.26695,-0.36507 0.29525,-0.78954 0.11366,-1.70422 -0.46103,-2.32211 0.21145,-6.81293 1.25979,-8.4129 0.24724,-0.37733 0.38595,-1.14477 0.36155,-2.00035 -0.0218,-0.76348 0.14355,-2.04299 0.36737,-2.84335 0.22383,-0.80037 0.47871,-2.42764 0.56642,-3.61617 0.0877,-1.18852 0.33769,-2.58751 0.55552,-3.10885 0.21783,-0.52134 0.35783,-0.9479 0.31111,-0.9479 -0.0467,0 -0.7856,0.9525 -1.64194,2.11667 -1.50565,2.04687 -1.98658,2.48014 -1.98238,1.78594 0.009,-1.43004 0.71015,-4.06626 1.48878,-5.59476 1.03217,-2.026204 1.07176,-1.90718 -0.96161,-2.891104 -1.06462,-0.51515 -1.61064,-0.57498 -5.15938,-0.56535 -3.99187,0.0108 -4.76441,0.10351 -11.16543,1.33949 -1.92089,0.370914 -3.76636,0.631534 -4.10105,0.579154 -0.57261,-0.0896 -0.55492,-0.12906 0.29984,-0.668494 0.49959,-0.3153 2.49003,-1.08518 4.42319,-1.71084 3.59003,-1.16192 4.38638,-1.5987 2.43842,-1.33742 -1.85761,0.24916 -1.09794,-0.47619 1.36574,-1.30403 3.52596,-1.18477 5.92533,-1.59799 9.38513,-1.61628 l 3.175,-0.0168 -1.5875,-0.48417 c -0.87313,-0.26629 -4.07634,-0.95791 -7.11825,-1.53692 -3.0419,-0.57902 -5.5983,-1.12032 -5.68088,-1.2029 -0.40983,-0.40983 0.92449,-0.64282 3.70249,-0.64648 3.23392,-0.004 6.47381,0.44554 9.7199,1.34944 1.0704,0.29806 2.22439,0.4721 2.56442,0.38676 0.59664,-0.14975 3.75023,0.19583 4.77769,0.52354 0.33344,0.10636 0.23551,-0.0686 -0.29246,-0.52238 -1.11576,-0.95906 -3.81934,-2.32196 -6.61458,-3.33448 -1.30969,-0.47441 -2.6161,-1.02442 -2.90314,-1.22225 -0.28704,-0.19782 -0.73353,-0.35968 -0.99219,-0.35968 -0.25866,0 -0.4703,-0.11906 -0.4703,-0.26458 0,-0.35735 4.50665,-0.34192 6.49985,0.0222 3.08932,0.56444 7.76772,3.20727 9.32805,5.26941 0.49549,0.65485 1.00644,1.23032 1.13545,1.27882 0.12902,0.0485 0.23457,-0.92267 0.23457,-2.15817 v -2.24637 l -1.37207,-1.14877 c -1.67203,-1.3999 -1.19932,-1.69578 0.99447,-0.62246 1.32804,0.64975 2.60553,1.91993 4.13867,4.11498 0.44185,0.63261 0.44954,0.59929 0.29273,-1.26855 -0.0971,-1.15652 -0.0605,-1.91823 0.092,-1.91823 0.13919,0 0.60277,0.36669 1.03018,0.81486 0.42741,0.44818 1.5799,1.473 2.56109,2.27739 0.9812,0.80438 1.72696,1.55479 1.65725,1.66758 -0.16892,0.27332 0.87867,1.5878 1.27432,1.59898 0.95553,0.027 2.03132,1.79416 2.03132,3.33675 0,0.67937 -1.52174,1.68704 -2.91041,1.92722 -1.3244,0.22906 -1.23982,0.983724 0.19107,1.704854 1.23472,0.62227 1.40103,0.93902 0.60268,1.14779 -0.9716,0.25408 -0.61222,0.87042 0.50752,0.87042 1.44992,0 1.81466,-0.18971 1.68353,-0.87564 -0.0723,-0.37809 0.11266,-0.79534 0.52362,-1.18142 0.60029,-0.56395 0.69393,-0.57623 1.69639,-0.22254 l 1.06103,0.37435 0.70066,-1.428634 c 0.38536,-0.78574 0.81562,-1.42862 0.95613,-1.42862 0.36838,0 0.60994,1.57709 0.50354,3.287464 l -0.0918,1.47576 1.60753,-3.7e-4 c 1.37733,-3.2e-4 1.69755,-0.0962 2.23626,-0.66962 0.3458,-0.36809 0.79354,-0.60601 0.99498,-0.52871 0.20143,0.0773 0.79432,-0.21232 1.31752,-0.64358 l 0.951284,-0.78413 1.04479,0.58524 c 1.33465,0.74759 3.15726,2.50636 3.02214,2.91628 -0.0634,0.19223 -0.91971,0.36629 -2.19955,0.44707 l -2.095784,0.1323 0.992184,0.38388 c 0.671,0.25961 0.99219,0.54911 0.99219,0.8943 0,0.44684 -0.14524,0.49406 -1.16595,0.37901 -1.483024,-0.16716 -2.162084,0.1815 -1.122964,0.57657 0.40472,0.15389 0.847174,0.27979 0.983224,0.27979 0.13605,0 0.24736,0.41672 0.24736,0.92604 0,0.83243 0.0736,0.92663 0.7276,0.93185 0.85062,0.007 2.81879,0.84776 3.11831,1.33241 0.25275,0.40895 -0.774,1.30761 -1.49397,1.30761 -0.27492,0 -0.49986,0.17441 -0.49986,0.38757 0,0.65612 -0.93298,0.93535 -3.125214,0.93535 -1.56017,0 -2.18789,-0.1039 -2.43635,-0.40327 -0.18407,-0.2218 -0.39605,-0.34189 -0.47107,-0.26688 -0.075,0.075 -0.28478,0.0132 -0.46615,-0.13729 -0.50991,-0.42318 -1.77122,-0.0158 -1.57051,0.50728 0.0904,0.23557 0.6453,2.32319 1.23313,4.63916 l 1.06876,4.21085 -0.42394,2.72201 c -0.25309,1.62496 -0.64761,3.10109 -0.9789,3.66258 -0.30522,0.51731 -0.59769,0.94056 -0.64995,0.94056 -0.32583,0 -1.57917,-2.71451 -2.26211,-4.89933 l -0.80483,-2.5748 -0.89637,0.8688 -0.89636,0.86879 -2.19288,-0.68551 c -1.20609,-0.37703 -2.71332,-0.74379 -3.3494,-0.81502 -1.61532,-0.18088 -1.88369,-0.54882 -0.85611,-1.17373 0.72573,-0.44134 0.78303,-0.55259 0.43388,-0.84235 -0.80941,-0.67175 -1.96157,-3.08175 -2.14908,-4.49528 -0.24906,-1.8775 -1.01036,-3.1849 -1.85456,-3.1849 -0.76144,0 -0.8441,-0.61531 -0.14904,-1.10948 0.26746,-0.19015 0.55581,-0.78097 0.64077,-1.31292 l 0.15448,-0.96719 -1.23608,-0.1114 c -0.97262,-0.0876 -1.55873,0.048 -2.74989,0.63647 -1.73485,0.85705 -1.98861,0.89272 -2.57509,0.36196 -0.38892,-0.35197 -0.41319,-0.24773 -0.27611,1.18604 0.1544,1.61489 0.36088,1.92216 1.85147,2.75529 0.92549,0.51727 2.39243,2.11641 3.65573,3.98519 0.59024,0.87312 1.32545,1.80034 1.6338,2.06048 0.38213,0.3224 0.50689,0.64233 0.39184,1.00482 -0.33781,1.06435 -0.20143,3.35087 0.2372,3.97712 0.55437,0.79147 0.54562,1.56205 -0.0316,2.78089 -0.27324,0.57698 -0.35458,1.01487 -0.19844,1.06836 0.14552,0.0498 0.68064,0.34423 1.18915,0.65419 l 0.92457,0.56356 -1.11467,0.55987 c -0.728,0.36566 -1.53189,1.13554 -2.3174,2.21939 -1.08453,1.49642 -1.20703,1.81548 -1.24647,3.24655 -0.0565,2.049 0.37628,2.5515 1.02528,1.19052 0.36007,-0.75506 0.84584,-1.18044 2.03161,-1.77901 l 1.5584,-0.78668 -0.1803,1.4431 c -0.15885,1.27136 -0.0669,1.73337 0.77284,3.88232 0.83937,2.14803 0.91837,2.54463 0.66178,3.32209 -0.21288,0.64505 -0.4834,0.91842 -1.00432,1.01491 -1.06498,0.19725 -4.75074,0.20119 -6.36168,0.007 -1.37866,-0.16636 -1.41156,-0.18991 -1.268,-0.90769 0.16174,-0.80873 -0.41712,-1.5963 -0.76251,-1.03744 -0.20198,0.32682 -0.55441,0.26296 -1.99595,-0.3617 l -0.94393,-0.40902 0.10581,0.72093 c 0.0648,0.44175 -0.0819,0.94453 -0.37899,1.29838 -0.45824,0.54582 -0.59276,0.56343 -2.45525,0.32149 -1.08374,-0.14078 -2.07943,-0.36495 -2.21263,-0.49815 -0.31034,-0.31034 -0.38129,-5.05866 -0.10019,-6.70453 0.19929,-1.16679 0.71139,-1.7757 0.71139,-0.84586 0,0.22601 0.28704,0.83333 0.63787,1.34962 l 0.63786,0.9387 0.32221,-0.60206 c 0.22682,-0.42382 0.28281,-1.60119 0.18911,-3.97691 l -0.1331,-3.37486 1.41971,-1.46577 c 1.48041,-1.52844 2.64676,-2.28591 3.2102,-2.08482 0.50356,0.17973 0.40676,-1.09887 -0.13229,-1.74741 -0.25466,-0.30639 -1.13189,-0.95625 -1.94939,-1.44415 l -1.48636,-0.88708 -0.15728,1.74556 c -0.23065,2.5599 -1.80525,6.1112 -2.70962,6.1112 -0.44406,0 -1.67936,1.27973 -1.69264,1.75354 -0.005,0.16408 -0.18695,0.44655 -0.40523,0.62771 -0.5345,0.44359 -0.49079,1.05551 0.13229,1.85208 0.81307,1.03945 0.67326,1.32292 -0.65248,1.32292 -0.64991,0 -1.59491,0.19707 -2.10001,0.43793 -0.86998,0.41487 -0.92792,0.52723 -1.09992,2.13333 -0.15964,1.49074 -0.095,1.8991 0.53557,3.38274 0.84875,1.99703 1.10501,3.5538 0.70732,4.29689 -0.36775,0.68716 -1.15898,0.76956 -5.46027,0.56867 z"
       id="path248"
       sodipodi:nodetypes="cscssssssssccssssssssscssssscsscssssssscssscssscsssscssscssssssssssssssssscssscsssscscscsssssscsssssscsscsssscccssssssssccssssssssscscssssscsssscsssccsssssscsscsssscsscssssssscc" /></g></svg>
