<?xml version="1.0" encoding="UTF-8" standalone="no"?>
<!-- Created with Inkscape (http://www.inkscape.org/) -->

<svg
   width="98.078415mm"
   height="179.45102mm"
   viewBox="0 0 98.078415 179.45102"
   version="1.1"
   id="svg617"
   xml:space="preserve"
   inkscape:version="1.2.1 (9c6d41e410, 2022-07-14)"
   sodipodi:docname="spirit.svg"
   xmlns:inkscape="http://www.inkscape.org/namespaces/inkscape"
   xmlns:sodipodi="http://sodipodi.sourceforge.net/DTD/sodipodi-0.dtd"
   xmlns="http://www.w3.org/2000/svg"
   xmlns:svg="http://www.w3.org/2000/svg"><sodipodi:namedview
     id="namedview619"
     pagecolor="#505050"
     bordercolor="#eeeeee"
     borderopacity="1"
     inkscape:showpageshadow="0"
     inkscape:pageopacity="0"
     inkscape:pagecheckerboard="0"
     inkscape:deskcolor="#505050"
     inkscape:document-units="mm"
     showgrid="false"
     inkscape:zoom="0.44631734"
     inkscape:cx="29.127257"
     inkscape:cy="407.7816"
     inkscape:window-width="2560"
     inkscape:window-height="1387"
     inkscape:window-x="1912"
     inkscape:window-y="892"
     inkscape:window-maximized="1"
     inkscape:current-layer="layer1" /><defs
     id="defs614" /><g
     inkscape:label="Layer 1"
     inkscape:groupmode="layer"
     id="layer1"
     transform="translate(-38.950048,-52.779207)"><path
       id="path752"
       style="fill:#000000;stroke-width:1"
       d="m 87.989461,52.779207 c -5.288574,0.19217 -5.06191,0.123457 -6.013069,1.823145 -0.30941,0.552899 -0.478289,1.633311 -0.556039,3.559989 -0.0903,2.237868 -0.212778,2.903006 -0.642338,3.484025 -0.366929,0.49629 -0.571965,1.290161 -0.663525,2.569869 -0.15197,2.123998 -0.183803,2.147965 -2.842721,2.160075 -2.645207,0.012 -2.636684,0.0052 -3.827673,3.051494 -0.58698,1.501308 -1.067118,3.043401 -1.067118,3.427181 0,0.383779 -0.308854,1.3504 -0.686263,2.148189 -0.68878,1.455948 -0.77064,2.949515 -0.247531,4.519104 0.16869,0.506149 0.07535,0.600619 -0.750341,0.755509 -1.561269,0.29289 -1.549396,1.973523 0.01395,1.973523 1.057569,0 1.597126,0.454814 1.795756,1.513603 0.22682,1.209049 0.473719,1.38745 1.924947,1.39268 1.061779,0.004 1.447496,0.302443 0.859896,0.665592 -0.14553,0.0899 -0.265747,0.900522 -0.267167,1.801441 -0.002,1.186148 -0.184349,2.028671 -0.661458,3.05356 -0.54501,1.170753 -0.658875,1.817489 -0.658875,3.743958 V 96.7512 l -2.579687,0.808737 c -2.684308,0.841509 -8.9845,2.373527 -12.625586,3.070093 -1.730629,0.33108 -2.536809,0.35042 -4.497917,0.10852 -2.532667,-0.31239 -6.982991,-0.16837 -8.1163,0.26252 -0.37288,0.14177 -0.945514,0.71071 -1.272274,1.26452 -0.32675,0.5538 -0.806102,1.15549 -1.065051,1.33687 -0.25896,0.18138 -0.966475,1.46035 -1.572514,2.84221 l -1.101742,2.5125 0.107487,4.44056 0.108004,4.44004 1.372526,3.41168 c 0.754889,1.87649 1.317243,3.55541 1.250053,3.73052 -0.0672,0.17511 -1.047736,0.46757 -2.179195,0.65009 -1.131459,0.18252 -2.190082,0.38268 -2.352311,0.44493 -0.21595,0.0829 -0.26783,13.31261 -0.19327,49.38407 l 0.101802,49.27038 1.460893,2.64583 c 1.257289,2.27733 1.612483,2.71714 2.548682,3.15795 0.598229,0.28167 1.746493,0.5501 2.551782,0.59634 3.382926,0.19431 8.481574,0.65112 10.364742,0.92863 1.866948,0.27511 2.145003,0.25173 3.625102,-0.30179 1.464448,-0.54767 1.785705,-0.82483 3.723803,-3.21118 3.385787,-4.16887 3.129395,-3.00688 3.268535,-14.80374 0.10705,-9.07725 0.594193,-8.80939 0.702282,-13.22142 0.51697,-21.10216 0.515951,-42.23055 -0.258899,-63.32482 -0.0792,-2.15625 -0.99597,-6.02439 -0.448551,-6.458 0.1819,-0.14409 0.926047,-0.45476 1.653646,-0.69091 1.239559,-0.40231 1.452275,-0.39878 3.370854,0.0599 2.889277,0.69081 3.822031,1.60322 6.132959,5.9986 1.757318,3.34243 2.65473,4.37469 3.401859,3.91294 0.17123,-0.10583 0.195843,-2.23951 0.07131,-6.1035 l -0.191203,-5.94073 0.618567,0.20774 c 0.329869,0.11056 3.762908,0.17511 6.309175,0.18862 2.546268,-0.0135 5.979306,-0.0781 6.309176,-0.18862 l 0.618567,-0.20774 -0.19172,5.94073 c -0.12453,3.86399 -0.0994,5.99767 0.07183,6.1035 0.74713,0.46175 1.644542,-0.57051 3.40186,-3.91294 2.310932,-4.39538 3.243682,-5.30779 6.132952,-5.9986 1.91858,-0.45872 2.1313,-0.46225 3.37086,-0.0599 0.7276,0.23615 1.47174,0.54682 1.65364,0.69091 0.54742,0.43361 -0.36935,4.30175 -0.44855,6.458 -0.77485,21.09427 -0.77587,42.22266 -0.2589,63.32482 0.10809,4.41203 0.59523,4.14417 0.70228,13.22142 0.13914,11.79686 -0.11725,10.63487 3.26854,14.80374 1.9381,2.38635 2.25935,2.66351 3.7238,3.21118 1.4801,0.55352 1.75764,0.5769 3.62459,0.30179 1.88317,-0.27751 6.98233,-0.73432 10.36526,-0.92863 0.80529,-0.0462 1.95355,-0.31467 2.55178,-0.59634 0.9362,-0.44081 1.29139,-0.88062 2.54868,-3.15795 l 1.46038,-2.64583 0.1018,-49.27038 c 0.0746,-36.07146 0.0232,-49.30117 -0.19275,-49.38407 -0.16223,-0.0623 -1.22086,-0.26241 -2.35232,-0.44493 -1.13145,-0.18252 -2.11199,-0.47498 -2.17919,-0.65009 -0.0672,-0.17511 0.49516,-1.85403 1.25005,-3.73052 l 1.37253,-3.41168 0.108,-4.44004 0.10749,-4.44056 -1.10174,-2.5125 c -0.60604,-1.38186 -1.31356,-2.66083 -1.57252,-2.84221 -0.25895,-0.18138 -0.7383,-0.78307 -1.06505,-1.33687 -0.32676,-0.55381 -0.89939,-1.12275 -1.27227,-1.26452 -1.13331,-0.43089 -5.58363,-0.57491 -8.1163,-0.26252 -1.96111,0.2419 -2.76729,0.22256 -4.49792,-0.10852 -3.64108,-0.696563 -9.94128,-2.228584 -12.62558,-3.070093 L 102.27903,96.7512 v -2.329056 c 0,-1.926469 -0.11387,-2.573205 -0.65888,-3.743958 -0.47711,-1.024889 -0.65945,-1.867412 -0.66145,-3.05356 -10e-4,-0.900919 -0.12164,-1.711541 -0.26717,-1.801441 -0.5876,-0.363149 -0.20188,-0.661592 0.85989,-0.665592 1.45123,-0.0052 1.69761,-0.183631 1.92443,-1.39268 0.19863,-1.058789 0.73819,-1.513603 1.79576,-1.513603 1.56335,0 1.57574,-1.680633 0.0145,-1.973523 -0.82569,-0.15489 -0.91955,-0.24936 -0.75086,-0.755509 0.52311,-1.569589 0.44177,-3.063156 -0.24701,-4.519104 -0.37741,-0.797789 -0.68627,-1.76441 -0.68627,-2.148189 0,-0.38378 -0.48013,-1.925873 -1.06711,-3.427181 -1.19099,-3.046297 -1.18247,-3.039494 -3.827677,-3.051494 -2.658917,-0.01211 -2.69075,-0.03608 -2.84272,-2.160075 -0.09156,-1.279708 -0.296596,-2.073579 -0.663526,-2.569869 -0.429559,-0.581019 -0.552038,-1.246157 -0.642338,-3.484025 -0.07775,-1.926678 -0.246628,-3.00709 -0.556038,-3.559989 -0.951159,-1.699688 -0.724495,-1.630975 -6.01307,-1.823145 z" /></g></svg>
