<?xml version="1.0" encoding="UTF-8" standalone="no"?>
<!-- Created with Inkscape (http://www.inkscape.org/) -->

<svg
   width="73.621353mm"
   height="80.511879mm"
   viewBox="0 0 73.621353 80.511879"
   version="1.1"
   id="svg415"
   xml:space="preserve"
   inkscape:version="1.2.1 (9c6d41e410, 2022-07-14)"
   sodipodi:docname="wraith.svg"
   xmlns:inkscape="http://www.inkscape.org/namespaces/inkscape"
   xmlns:sodipodi="http://sodipodi.sourceforge.net/DTD/sodipodi-0.dtd"
   xmlns="http://www.w3.org/2000/svg"
   xmlns:svg="http://www.w3.org/2000/svg"><sodipodi:namedview
     id="namedview417"
     pagecolor="#505050"
     bordercolor="#eeeeee"
     borderopacity="1"
     inkscape:showpageshadow="0"
     inkscape:pageopacity="0"
     inkscape:pagecheckerboard="0"
     inkscape:deskcolor="#505050"
     inkscape:document-units="mm"
     showgrid="false"
     inkscape:zoom="0.89263468"
     inkscape:cx="-22.405583"
     inkscape:cy="256.54392"
     inkscape:window-width="2560"
     inkscape:window-height="1387"
     inkscape:window-x="1912"
     inkscape:window-y="892"
     inkscape:window-maximized="1"
     inkscape:current-layer="layer1" /><defs
     id="defs412" /><g
     inkscape:label="Layer 1"
     inkscape:groupmode="layer"
     id="layer1"
     transform="translate(-604.1285,57.883805)"><path
       id="path548"
       style="fill:#000000;stroke-width:1"
       d="m 640.93917,-57.883805 c -3.10104,0.0029 -3.31282,0.03724 -3.69435,0.592212 -1.15421,1.678905 -2.12441,2.302809 -2.12441,1.366324 0,-1.945076 -4.71016,-0.300594 -7.23212,2.524911 -0.55806,0.625245 -1.12103,1.136881 -1.25057,1.136881 -0.4459,0 0.31412,-1.456965 1.27641,-2.447395 1.33363,-1.372661 0.60452,-1.254153 -0.81391,0.132291 -0.87032,0.850695 -1.26019,1.510999 -1.60145,2.711979 -0.24807,0.873125 -0.74192,2.182814 -1.09709,2.910417 -1.35951,2.784896 -1.48376,3.27164 -1.05058,4.10931 0.57152,1.105165 0.4861,1.546993 -0.33538,1.738395 -4.47241,1.042051 -6.58545,1.863532 -8.20105,3.187403 -1.45592,1.193005 -2.0942,2.4801 -3.63389,7.331852 l -1.24747,3.932059 0.48886,0.928626 c 0.26889,0.510769 0.92537,1.207349 1.45883,1.547709 0.53348,0.34037 1.04638,0.742583 1.13998,0.894002 0.0957,0.15484 1.12967,0.275436 2.36265,0.275436 1.20568,0 3.46047,0.0777 5.01106,0.172599 l 2.81947,0.172083 v 0.985986 c 0,0.578359 -0.17375,1.129872 -0.42065,1.334802 -0.58526,0.48571 -0.27137,2.914258 0.57464,4.445207 0.74657,1.350979 0.78565,1.620573 0.23616,1.620573 -0.22188,0 -0.51641,0.297658 -0.65474,0.661458 -0.17224,0.45302 -0.45211,0.661458 -0.88883,0.661458 -0.44185,0 -1.1201,0.515826 -2.20865,1.679484 -0.86402,0.92363 -1.88995,1.758935 -2.27945,1.856735 -0.42746,0.10728 -0.97369,0.598938 -1.37821,1.239717 -0.44976,0.7124693 -0.91971,1.111533 -1.42885,1.2133629 -0.47834,0.09567 -1.21413,0.6792727 -1.9911,1.5792318 l -1.23248,1.4273031 h -3.70675 -3.70675 l 0.185,0.5953125 c 0.55566,1.7908982 2.44528,5.52163906 3.34502,6.604248 1.22965,1.4795485 4.10622,3.4424586 4.74699,3.2390788 0.24503,-0.07776 0.51733,-0.025251 0.60513,0.1167887 0.0878,0.1420499 0.81716,0.5595224 1.62109,0.927592 1.42089,0.6504993 3.46408,2.383621 8.9576,7.5995362 2.37921,2.259008 3.10258,2.668341 5.73918,3.24683 0.84323,0.18501 1.47244,-0.423626 1.61179,-1.559595 0.0813,-0.662309 0.21627,-0.430183 0.81545,1.401465 0.83462,2.551428 1.35464,3.648314 2.13889,4.511353 0.77692,0.854979 2.3539,1.622562 3.39824,1.654162 0.47873,0.0145 1.53169,0.252698 1.53169,0.252698 h 2.1146 2.1146 c 0,0 1.05348,-0.238198 1.53221,-0.252698 1.04434,-0.0316 2.6208,-0.799183 3.39772,-1.654162 0.78425,-0.863039 1.30427,-1.959925 2.13889,-4.511353 0.59918,-1.831648 0.73418,-2.063774 0.81546,-1.401465 0.13935,1.135969 0.76855,1.744605 1.61178,1.559595 2.6366,-0.578489 3.35997,-0.987822 5.73919,-3.24683 5.49351,-5.2159152 7.5367,-6.9490369 8.95759,-7.5995362 0.80394,-0.3680696 1.5333,-0.7855421 1.62109,-0.927592 0.0878,-0.1420398 0.3601,-0.1945486 0.60513,-0.1167887 0.64077,0.2033798 3.51787,-1.7595303 4.74752,-3.2390788 0.89973,-1.08260894 2.78935,-4.8133498 3.34501,-6.604248 l 0.18449,-0.5953125 h -3.70676 -3.70675 l -1.23248,-1.4273031 c -0.77697,-0.8999591 -1.51224,-1.4835619 -1.99057,-1.5792318 -0.50914,-0.1018299 -0.97962,-0.5008936 -1.42937,-1.2133629 -0.40452,-0.640779 -0.95076,-1.132437 -1.37822,-1.239717 -0.38949,-0.0978 -1.41491,-0.933105 -2.27893,-1.856735 -1.08854,-1.163658 -1.7668,-1.679484 -2.20865,-1.679484 -0.43672,0 -0.71711,-0.208438 -0.88935,-0.661458 -0.13833,-0.3638 -0.43286,-0.661458 -0.65474,-0.661458 -0.54949,0 -0.51041,-0.269594 0.23616,-1.620573 0.84601,-1.530949 1.16042,-3.959497 0.57516,-4.445207 -0.2469,-0.20493 -0.42116,-0.756443 -0.42116,-1.334802 v -0.985986 l 2.81946,-0.172083 c 1.55059,-0.0949 3.80591,-0.172599 5.01159,-0.172599 1.23297,0 2.26645,-0.120596 2.36212,-0.275436 0.0936,-0.151419 0.60651,-0.553632 1.13999,-0.894002 0.53346,-0.34036 1.18993,-1.03694 1.45882,-1.547709 l 0.48886,-0.928626 -1.24747,-3.932059 c -1.53969,-4.851752 -2.17797,-6.138847 -3.63388,-7.331852 -1.6156,-1.323871 -3.72865,-2.145352 -8.20105,-3.187403 -0.82148,-0.191402 -0.90639,-0.63323 -0.33487,-1.738395 0.43318,-0.83767 0.30841,-1.324414 -1.0511,-4.10931 -0.35517,-0.727603 -0.8485,-2.037292 -1.09657,-2.910417 -0.34126,-1.20098 -0.73165,-1.861284 -1.60197,-2.711979 -1.41843,-1.386444 -2.14701,-1.504952 -0.81339,-0.132291 0.96229,0.99043 1.72179,2.447395 1.27589,2.447395 -0.12953,0 -0.69199,-0.511636 -1.25005,-1.136881 -2.52196,-2.825505 -7.23263,-4.469987 -7.23263,-2.524911 0,0.936485 -0.9702,0.312581 -2.12442,-1.366324 -0.38153,-0.554975 -0.5933,-0.589272 -3.69435,-0.592212 z" /></g></svg>
